Maitree-600.ufo
<glyph name="exclam" format="1">
  <advance width="336"/>
  <unicode hex="0021"/>
  <note>
	exclam
  </note>
  <outline>
    <contour>
      <point x="204" y="164" type="line"/>
      <point x="235" y="709" type="line"/>
      <point x="100" y="709" type="line"/>
      <point x="132" y="164" type="line"/>
    </contour>
    <contour>
      <point x="201" y="-14"/>
      <point x="227" y="9"/>
      <point x="227" y="45" type="curve" smooth="yes"/>
      <point x="227" y="81"/>
      <point x="201" y="104"/>
      <point x="168" y="104" type="curve" smooth="yes"/>
      <point x="136" y="104"/>
      <point x="110" y="81"/>
      <point x="110" y="45" type="curve" smooth="yes"/>
      <point x="110" y="9"/>
      <point x="136" y="-14"/>
      <point x="168" y="-14" type="curve" smooth="yes"/>
    </contour>
  </outline>
</glyph>
<glyph name="quotedbl" format="1">
  <advance width="408"/>
  <unicode hex="0022"/>
  <note>
	quotedbl
  </note>
  <outline>
    <contour>
      <point x="308" y="431" type="line"/>
      <point x="377" y="700" type="line"/>
      <point x="263" y="710" type="line"/>
      <point x="222" y="431" type="line"/>
    </contour>
    <contour>
      <point x="118" y="431" type="line"/>
      <point x="186" y="700" type="line"/>
      <point x="73" y="710" type="line"/>
      <point x="31" y="431" type="line"/>
    </contour>
  </outline>
</glyph>
<glyph name="numbersign" format="1">
  <advance width="625"/>
  <unicode hex="0023"/>
  <note>
	numbersign
  </note>
  <outline>
    <contour>
      <point x="187" y="0" type="line"/>
      <point x="215" y="152" type="line"/>
      <point x="340" y="152" type="line"/>
      <point x="312" y="0" type="line"/>
      <point x="415" y="0" type="line"/>
      <point x="443" y="152" type="line"/>
      <point x="555" y="152" type="line"/>
      <point x="555" y="232" type="line"/>
      <point x="458" y="232" type="line"/>
      <point x="483" y="362" type="line"/>
      <point x="589" y="362" type="line"/>
      <point x="589" y="442" type="line"/>
      <point x="498" y="442" type="line"/>
      <point x="524" y="582" type="line"/>
      <point x="420" y="582" type="line"/>
      <point x="394" y="442" type="line"/>
      <point x="270" y="442" type="line"/>
      <point x="296" y="582" type="line"/>
      <point x="192" y="582" type="line"/>
      <point x="166" y="442" type="line"/>
      <point x="57" y="442" type="line"/>
      <point x="57" y="362" type="line"/>
      <point x="151" y="362" type="line"/>
      <point x="127" y="232" type="line"/>
      <point x="21" y="232" type="line"/>
      <point x="21" y="152" type="line"/>
      <point x="112" y="152" type="line"/>
      <point x="84" y="0" type="line"/>
    </contour>
    <contour>
      <point x="255" y="362" type="line"/>
      <point x="379" y="362" type="line"/>
      <point x="355" y="232" type="line"/>
      <point x="230" y="232" type="line"/>
    </contour>
  </outline>
</glyph>
<glyph name="dollar" format="1">
  <advance width="688"/>
  <unicode hex="0024"/>
  <note>
	dollar
  </note>
  <outline>
    <contour>
      <point x="352" y="-93" type="line"/>
      <point x="352" y="-12" type="line"/>
      <point x="474" y="-2"/>
      <point x="567" y="54"/>
      <point x="567" y="170" type="curve" smooth="yes"/>
      <point x="567" y="289"/>
      <point x="488" y="340"/>
      <point x="380" y="389" type="curve" smooth="yes"/>
      <point x="262" y="443"/>
      <point x="193" y="470"/>
      <point x="193" y="534" type="curve" smooth="yes"/>
      <point x="193" y="595"/>
      <point x="247" y="620"/>
      <point x="314" y="620" type="curve" smooth="yes"/>
      <point x="374" y="620"/>
      <point x="419" y="606"/>
      <point x="449" y="587" type="curve"/>
      <point x="465" y="528" type="line" smooth="yes"/>
      <point x="478" y="480"/>
      <point x="490" y="469"/>
      <point x="512" y="469" type="curve" smooth="yes"/>
      <point x="525" y="469"/>
      <point x="531" y="478"/>
      <point x="531" y="490" type="curve" smooth="yes"/>
      <point x="531" y="629" type="line"/>
      <point x="489" y="662"/>
      <point x="426" y="686"/>
      <point x="360" y="695" type="curve"/>
      <point x="360" y="780" type="line"/>
      <point x="267" y="780" type="line"/>
      <point x="267" y="697" type="line"/>
      <point x="162" y="687"/>
      <point x="69" y="632"/>
      <point x="69" y="520" type="curve" smooth="yes"/>
      <point x="69" y="408"/>
      <point x="168" y="353"/>
      <point x="280" y="303" type="curve" smooth="yes"/>
      <point x="401" y="249"/>
      <point x="443" y="222"/>
      <point x="443" y="157" type="curve" smooth="yes"/>
      <point x="443" y="87"/>
      <point x="368" y="65"/>
      <point x="296" y="65" type="curve" smooth="yes"/>
      <point x="241" y="65"/>
      <point x="179" y="79"/>
      <point x="149" y="100" type="curve"/>
      <point x="132" y="158" type="line" smooth="yes"/>
      <point x="117" y="205"/>
      <point x="108" y="218"/>
      <point x="87" y="218" type="curve" smooth="yes"/>
      <point x="72" y="218"/>
      <point x="66" y="208"/>
      <point x="66" y="197" type="curve" smooth="yes"/>
      <point x="66" y="47" type="line"/>
      <point x="111" y="19"/>
      <point x="189" y="-4"/>
      <point x="259" y="-11" type="curve"/>
      <point x="259" y="-93" type="line"/>
    </contour>
  </outline>
</glyph>
<glyph name="percent" format="1">
  <advance width="858"/>
  <unicode hex="0025"/>
  <note>
	percent
  </note>
  <outline>
    <contour>
      <point x="703" y="638" type="line"/>
      <point x="612" y="699" type="line"/>
      <point x="151" y="45" type="line"/>
      <point x="239" y="-13" type="line"/>
    </contour>
    <contour>
      <point x="298" y="369"/>
      <point x="359" y="433"/>
      <point x="359" y="535" type="curve" smooth="yes"/>
      <point x="359" y="636"/>
      <point x="298" y="699"/>
      <point x="202" y="699" type="curve" smooth="yes"/>
      <point x="107" y="699"/>
      <point x="46" y="636"/>
      <point x="46" y="535" type="curve" smooth="yes"/>
      <point x="46" y="433"/>
      <point x="107" y="369"/>
      <point x="202" y="369" type="curve" smooth="yes"/>
    </contour>
    <contour>
      <point x="168" y="443"/>
      <point x="139" y="467"/>
      <point x="139" y="535" type="curve" smooth="yes"/>
      <point x="139" y="602"/>
      <point x="168" y="626"/>
      <point x="202" y="626" type="curve" smooth="yes"/>
      <point x="236" y="626"/>
      <point x="265" y="602"/>
      <point x="265" y="535" type="curve" smooth="yes"/>
      <point x="265" y="467"/>
      <point x="236" y="443"/>
      <point x="202" y="443" type="curve" smooth="yes"/>
    </contour>
    <contour>
      <point x="751" y="-14"/>
      <point x="812" y="50"/>
      <point x="812" y="152" type="curve" smooth="yes"/>
      <point x="812" y="253"/>
      <point x="751" y="316"/>
      <point x="655" y="316" type="curve" smooth="yes"/>
      <point x="560" y="316"/>
      <point x="499" y="253"/>
      <point x="499" y="152" type="curve" smooth="yes"/>
      <point x="499" y="50"/>
      <point x="560" y="-14"/>
      <point x="655" y="-14" type="curve" smooth="yes"/>
    </contour>
    <contour>
      <point x="622" y="60"/>
      <point x="593" y="85"/>
      <point x="593" y="152" type="curve" smooth="yes"/>
      <point x="593" y="219"/>
      <point x="622" y="244"/>
      <point x="656" y="244" type="curve" smooth="yes"/>
      <point x="690" y="244"/>
      <point x="719" y="219"/>
      <point x="719" y="152" type="curve" smooth="yes"/>
      <point x="719" y="85"/>
      <point x="690" y="60"/>
      <point x="656" y="60" type="curve" smooth="yes"/>
    </contour>
  </outline>
</glyph>
<glyph name="ampersand" format="1">
  <advance width="733"/>
  <unicode hex="0026"/>
  <note>
	ampersand
  </note>
  <outline>
    <contour>
      <point x="365" y="-14"/>
      <point x="434" y="19"/>
      <point x="479" y="61" type="curve"/>
      <point x="540" y="0" type="line"/>
      <point x="715" y="0" type="line" smooth="yes"/>
      <point x="728" y="0"/>
      <point x="731" y="7"/>
      <point x="731" y="18" type="curve" smooth="yes"/>
      <point x="731" y="36"/>
      <point x="718" y="46"/>
      <point x="691" y="55" type="curve" smooth="yes"/>
      <point x="641" y="70" type="line"/>
      <point x="556" y="153" type="line"/>
      <point x="589" y="201"/>
      <point x="609" y="259"/>
      <point x="617" y="314" type="curve"/>
      <point x="690" y="338" type="line" smooth="yes"/>
      <point x="710" y="345"/>
      <point x="720" y="355"/>
      <point x="720" y="373" type="curve" smooth="yes"/>
      <point x="720" y="383"/>
      <point x="717" y="390"/>
      <point x="705" y="390" type="curve" smooth="yes"/>
      <point x="522" y="390" type="line" smooth="yes"/>
      <point x="489" y="390"/>
      <point x="467" y="376"/>
      <point x="467" y="348" type="curve" smooth="yes"/>
      <point x="467" y="329"/>
      <point x="475" y="318"/>
      <point x="491" y="318" type="curve" smooth="yes"/>
      <point x="544" y="318" type="line"/>
      <point x="537" y="275"/>
      <point x="528" y="236"/>
      <point x="505" y="201" type="curve"/>
      <point x="345" y="356" type="line"/>
      <point x="432" y="393"/>
      <point x="486" y="444"/>
      <point x="486" y="524" type="curve" smooth="yes"/>
      <point x="486" y="613"/>
      <point x="412" y="687"/>
      <point x="288" y="687" type="curve" smooth="yes"/>
      <point x="180" y="687"/>
      <point x="90" y="629"/>
      <point x="90" y="527" type="curve" smooth="yes"/>
      <point x="90" y="460"/>
      <point x="126" y="410"/>
      <point x="178" y="359" type="curve"/>
      <point x="102" y="327"/>
      <point x="36" y="272"/>
      <point x="36" y="174" type="curve" smooth="yes"/>
      <point x="36" y="57"/>
      <point x="146" y="-14"/>
      <point x="278" y="-14" type="curve" smooth="yes"/>
    </contour>
    <contour>
      <point x="220" y="59"/>
      <point x="157" y="98"/>
      <point x="157" y="176" type="curve" smooth="yes"/>
      <point x="157" y="240"/>
      <point x="195" y="278"/>
      <point x="232" y="300" type="curve"/>
      <point x="429" y="111" type="line"/>
      <point x="394" y="80"/>
      <point x="348" y="59"/>
      <point x="293" y="59" type="curve" smooth="yes"/>
    </contour>
    <contour>
      <point x="246" y="443"/>
      <point x="211" y="487"/>
      <point x="211" y="536" type="curve" smooth="yes"/>
      <point x="211" y="589"/>
      <point x="244" y="615"/>
      <point x="290" y="615" type="curve" smooth="yes"/>
      <point x="336" y="615"/>
      <point x="368" y="583"/>
      <point x="368" y="529" type="curve" smooth="yes"/>
      <point x="368" y="473"/>
      <point x="333" y="434"/>
      <point x="285" y="409" type="curve"/>
    </contour>
  </outline>
</glyph>
<glyph name="quotesingle" format="1">
  <advance width="217"/>
  <unicode hex="0027"/>
  <note>
	quotesingle
  </note>
  <outline>
    <contour>
      <point x="118" y="431" type="line"/>
      <point x="186" y="700" type="line"/>
      <point x="73" y="710" type="line"/>
      <point x="31" y="431" type="line"/>
    </contour>
  </outline>
</glyph>
<glyph name="parenleft" format="1">
  <advance width="322"/>
  <unicode hex="0028"/>
  <note>
	parenleft
  </note>
  <outline>
    <contour>
      <point x="279" y="-79" type="line"/>
      <point x="215" y="45"/>
      <point x="168" y="179"/>
      <point x="168" y="350" type="curve" smooth="yes"/>
      <point x="168" y="520"/>
      <point x="215" y="651"/>
      <point x="279" y="775" type="curve"/>
      <point x="170" y="775" type="line"/>
      <point x="95" y="660"/>
      <point x="43" y="516"/>
      <point x="43" y="350" type="curve" smooth="yes"/>
      <point x="43" y="183"/>
      <point x="95" y="36"/>
      <point x="170" y="-79" type="curve"/>
    </contour>
  </outline>
</glyph>
<glyph name="parenright" format="1">
  <advance width="322"/>
  <unicode hex="0029"/>
  <note>
	parenright
  </note>
  <outline>
    <contour>
      <point x="152" y="-79" type="line"/>
      <point x="227" y="36"/>
      <point x="279" y="183"/>
      <point x="279" y="350" type="curve" smooth="yes"/>
      <point x="279" y="516"/>
      <point x="227" y="660"/>
      <point x="152" y="775" type="curve"/>
      <point x="43" y="775" type="line"/>
      <point x="107" y="651"/>
      <point x="154" y="520"/>
      <point x="154" y="350" type="curve" smooth="yes"/>
      <point x="154" y="179"/>
      <point x="107" y="45"/>
      <point x="43" y="-79" type="curve"/>
    </contour>
  </outline>
</glyph>
<glyph name="asterisk" format="1">
  <advance width="414"/>
  <unicode hex="002A"/>
  <note>
	asterisk
  </note>
  <outline>
    <contour>
      <point x="258" y="374" type="line"/>
      <point x="227" y="506" type="line"/>
      <point x="330" y="415" type="line"/>
      <point x="388" y="510" type="line"/>
      <point x="255" y="554" type="line"/>
      <point x="386" y="597" type="line"/>
      <point x="332" y="693" type="line"/>
      <point x="231" y="601" type="line"/>
      <point x="261" y="733" type="line"/>
      <point x="153" y="733" type="line"/>
      <point x="184" y="601" type="line"/>
      <point x="72" y="693" type="line"/>
      <point x="26" y="595" type="line"/>
      <point x="159" y="554" type="line"/>
      <point x="26" y="512" type="line"/>
      <point x="80" y="419" type="line"/>
      <point x="184" y="506" type="line"/>
      <point x="153" y="374" type="line"/>
    </contour>
  </outline>
</glyph>
<glyph name="plus" format="1">
  <advance width="598"/>
  <unicode hex="002B"/>
  <note>
	plus
  </note>
  <outline>
    <contour>
      <point x="361" y="96" type="line"/>
      <point x="361" y="283" type="line"/>
      <point x="546" y="283" type="line"/>
      <point x="546" y="379" type="line"/>
      <point x="361" y="379" type="line"/>
      <point x="361" y="572" type="line"/>
      <point x="238" y="572" type="line"/>
      <point x="238" y="379" type="line"/>
      <point x="53" y="379" type="line"/>
      <point x="53" y="283" type="line"/>
      <point x="238" y="283" type="line"/>
      <point x="238" y="96" type="line"/>
    </contour>
  </outline>
</glyph>
<glyph name="comma" format="1">
  <advance width="332"/>
  <unicode hex="002C"/>
  <note>
	comma
  </note>
  <outline>
    <contour>
      <point x="186" y="-91"/>
      <point x="238" y="20"/>
      <point x="256" y="89" type="curve"/>
      <point x="140" y="115" type="line" smooth="yes"/>
      <point x="106" y="123"/>
      <point x="82" y="107"/>
      <point x="82" y="78" type="curve" smooth="yes"/>
      <point x="82" y="63"/>
      <point x="90" y="57"/>
      <point x="102" y="52" type="curve" smooth="yes"/>
      <point x="134" y="42" type="line"/>
      <point x="130" y="1"/>
      <point x="92" y="-79"/>
      <point x="61" y="-122" type="curve"/>
      <point x="124" y="-160" type="line"/>
    </contour>
  </outline>
</glyph>
<glyph name="hyphen" format="1">
  <advance width="339"/>
  <unicode hex="002D"/>
  <note>
	hyphen
  </note>
  <outline>
    <contour>
      <point x="320" y="258" type="line"/>
      <point x="320" y="355" type="line"/>
      <point x="19" y="355" type="line"/>
      <point x="19" y="258" type="line"/>
    </contour>
  </outline>
</glyph>
<glyph name="period" format="1">
  <advance width="273"/>
  <unicode hex="002E"/>
  <note>
	period
  </note>
  <outline>
    <contour>
      <point x="175" y="-14"/>
      <point x="207" y="16"/>
      <point x="207" y="57" type="curve" smooth="yes"/>
      <point x="207" y="98"/>
      <point x="175" y="128"/>
      <point x="137" y="128" type="curve" smooth="yes"/>
      <point x="98" y="128"/>
      <point x="66" y="98"/>
      <point x="66" y="57" type="curve" smooth="yes"/>
      <point x="66" y="16"/>
      <point x="98" y="-14"/>
      <point x="137" y="-14" type="curve" smooth="yes"/>
    </contour>
  </outline>
</glyph>
<glyph name="slash" format="1">
  <advance width="392"/>
  <unicode hex="002F"/>
  <note>
	slash
  </note>
  <outline>
    <contour>
      <point x="421" y="716" type="line"/>
      <point x="311" y="758" type="line"/>
      <point x="-34" y="-92" type="line"/>
      <point x="75" y="-134" type="line"/>
    </contour>
  </outline>
</glyph>
<glyph name="zero" format="1">
  <advance width="724"/>
  <unicode hex="0030"/>
  <note>
	zero
  </note>
  <outline>
    <contour>
      <point x="569" y="-14"/>
      <point x="673" y="144"/>
      <point x="673" y="342" type="curve" smooth="yes"/>
      <point x="673" y="540"/>
      <point x="569" y="699"/>
      <point x="362" y="699" type="curve" smooth="yes"/>
      <point x="155" y="699"/>
      <point x="51" y="540"/>
      <point x="51" y="342" type="curve" smooth="yes"/>
      <point x="51" y="144"/>
      <point x="155" y="-14"/>
      <point x="362" y="-14" type="curve" smooth="yes"/>
    </contour>
    <contour>
      <point x="242" y="65"/>
      <point x="176" y="172"/>
      <point x="176" y="342" type="curve" smooth="yes"/>
      <point x="176" y="512"/>
      <point x="242" y="620"/>
      <point x="362" y="620" type="curve" smooth="yes"/>
      <point x="481" y="620"/>
      <point x="547" y="512"/>
      <point x="547" y="342" type="curve" smooth="yes"/>
      <point x="547" y="172"/>
      <point x="481" y="65"/>
      <point x="362" y="65" type="curve" smooth="yes"/>
    </contour>
  </outline>
</glyph>
<glyph name="one" format="1">
  <advance width="452"/>
  <unicode hex="0031"/>
  <note>
	one
  </note>
  <outline>
    <contour>
      <point x="380" y="0" type="line" smooth="yes"/>
      <point x="393" y="0"/>
      <point x="397" y="9"/>
      <point x="397" y="20" type="curve" smooth="yes"/>
      <point x="397" y="37"/>
      <point x="387" y="50"/>
      <point x="353" y="58" type="curve" smooth="yes"/>
      <point x="291" y="72" type="line"/>
      <point x="291" y="685" type="line"/>
      <point x="171" y="685" type="line"/>
      <point x="92" y="660" type="line" smooth="yes"/>
      <point x="64" y="651"/>
      <point x="47" y="638"/>
      <point x="47" y="610" type="curve" smooth="yes"/>
      <point x="47" y="590"/>
      <point x="59" y="581"/>
      <point x="74" y="581" type="curve"/>
      <point x="166" y="609" type="line"/>
      <point x="166" y="73" type="line"/>
      <point x="107" y="73" type="line" smooth="yes"/>
      <point x="73" y="73"/>
      <point x="51" y="59"/>
      <point x="51" y="30" type="curve" smooth="yes"/>
      <point x="51" y="11"/>
      <point x="60" y="0"/>
      <point x="76" y="0" type="curve" smooth="yes"/>
    </contour>
  </outline>
</glyph>
<glyph name="two" format="1">
  <advance width="591"/>
  <unicode hex="0032"/>
  <note>
	two
  </note>
  <outline>
    <contour>
      <point x="536" y="0" type="line"/>
      <point x="536" y="79" type="line"/>
      <point x="213" y="79" type="line"/>
      <point x="213" y="83" type="line"/>
      <point x="377" y="248" type="line" smooth="yes"/>
      <point x="467" y="339"/>
      <point x="525" y="419"/>
      <point x="525" y="506" type="curve" smooth="yes"/>
      <point x="525" y="634"/>
      <point x="442" y="695"/>
      <point x="307" y="695" type="curve" smooth="yes"/>
      <point x="226" y="695"/>
      <point x="146" y="668"/>
      <point x="76" y="628" type="curve"/>
      <point x="76" y="486" type="line" smooth="yes"/>
      <point x="76" y="475"/>
      <point x="82" y="466"/>
      <point x="97" y="466" type="curve" smooth="yes"/>
      <point x="118" y="466"/>
      <point x="128" y="478"/>
      <point x="143" y="526" type="curve" smooth="yes"/>
      <point x="160" y="585" type="line"/>
      <point x="194" y="602"/>
      <point x="240" y="615"/>
      <point x="284" y="615" type="curve" smooth="yes"/>
      <point x="346" y="615"/>
      <point x="396" y="585"/>
      <point x="396" y="515" type="curve" smooth="yes"/>
      <point x="396" y="446"/>
      <point x="347" y="387"/>
      <point x="284" y="323" type="curve" smooth="yes"/>
      <point x="58" y="95" type="line"/>
      <point x="58" y="0" type="line"/>
    </contour>
  </outline>
</glyph>
<glyph name="three" format="1">
  <advance width="593"/>
  <unicode hex="0033"/>
  <note>
	three
  </note>
  <outline>
    <contour>
      <point x="415" y="-10"/>
      <point x="530" y="60"/>
      <point x="530" y="185" type="curve" smooth="yes"/>
      <point x="530" y="280"/>
      <point x="460" y="343"/>
      <point x="361" y="358" type="curve"/>
      <point x="450" y="383"/>
      <point x="506" y="443"/>
      <point x="506" y="528" type="curve" smooth="yes"/>
      <point x="506" y="645"/>
      <point x="405" y="695"/>
      <point x="291" y="695" type="curve" smooth="yes"/>
      <point x="210" y="695"/>
      <point x="126" y="668"/>
      <point x="56" y="628" type="curve"/>
      <point x="56" y="486" type="line" smooth="yes"/>
      <point x="56" y="475"/>
      <point x="62" y="466"/>
      <point x="77" y="466" type="curve" smooth="yes"/>
      <point x="98" y="466"/>
      <point x="108" y="478"/>
      <point x="123" y="526" type="curve" smooth="yes"/>
      <point x="140" y="585" type="line"/>
      <point x="175" y="602"/>
      <point x="220" y="615"/>
      <point x="265" y="615" type="curve" smooth="yes"/>
      <point x="334" y="615"/>
      <point x="381" y="580"/>
      <point x="381" y="512" type="curve" smooth="yes"/>
      <point x="381" y="441"/>
      <point x="328" y="401"/>
      <point x="241" y="390" type="curve" smooth="yes"/>
      <point x="165" y="380" type="line"/>
      <point x="165" y="301" type="line"/>
      <point x="214" y="309"/>
      <point x="243" y="313"/>
      <point x="271" y="313" type="curve" smooth="yes"/>
      <point x="352" y="313"/>
      <point x="405" y="262"/>
      <point x="405" y="196" type="curve" smooth="yes"/>
      <point x="405" y="119"/>
      <point x="361" y="69"/>
      <point x="253" y="69" type="curve" smooth="yes"/>
      <point x="186" y="69"/>
      <point x="106" y="87"/>
      <point x="48" y="111" type="curve"/>
      <point x="48" y="29" type="line"/>
      <point x="97" y="8"/>
      <point x="182" y="-10"/>
      <point x="262" y="-10" type="curve" smooth="yes"/>
    </contour>
  </outline>
</glyph>
<glyph name="four" format="1">
  <advance width="644"/>
  <unicode hex="0034"/>
  <note>
	four
  </note>
  <outline>
    <contour>
      <point x="503" y="0" type="line"/>
      <point x="503" y="146" type="line"/>
      <point x="594" y="146" type="line"/>
      <point x="594" y="225" type="line"/>
      <point x="503" y="225" type="line"/>
      <point x="503" y="685" type="line"/>
      <point x="358" y="685" type="line"/>
      <point x="31" y="224" type="line"/>
      <point x="31" y="146" type="line"/>
      <point x="379" y="146" type="line"/>
      <point x="379" y="0" type="line"/>
    </contour>
    <contour>
      <point x="378" y="572" type="line"/>
      <point x="378" y="225" type="line"/>
      <point x="133" y="225" type="line"/>
    </contour>
  </outline>
</glyph>
<glyph name="five" format="1">
  <advance width="554"/>
  <unicode hex="0035"/>
  <note>
	five
  </note>
  <outline>
    <contour>
      <point x="387" y="-10"/>
      <point x="513" y="53"/>
      <point x="513" y="213" type="curve" smooth="yes"/>
      <point x="513" y="349"/>
      <point x="420" y="422"/>
      <point x="296" y="422" type="curve" smooth="yes"/>
      <point x="262" y="422"/>
      <point x="219" y="416"/>
      <point x="187" y="408" type="curve"/>
      <point x="203" y="606" type="line"/>
      <point x="459" y="606" type="line"/>
      <point x="459" y="685" type="line"/>
      <point x="85" y="685" type="line"/>
      <point x="59" y="373" type="line"/>
      <point x="113" y="324" type="line"/>
      <point x="159" y="335"/>
      <point x="197" y="343"/>
      <point x="243" y="343" type="curve" smooth="yes"/>
      <point x="327" y="343"/>
      <point x="389" y="299"/>
      <point x="389" y="204" type="curve" smooth="yes"/>
      <point x="389" y="106"/>
      <point x="316" y="69"/>
      <point x="229" y="69" type="curve" smooth="yes"/>
      <point x="162" y="69"/>
      <point x="89" y="89"/>
      <point x="41" y="109" type="curve"/>
      <point x="41" y="28" type="line"/>
      <point x="99" y="5"/>
      <point x="171" y="-10"/>
      <point x="245" y="-10" type="curve" smooth="yes"/>
    </contour>
  </outline>
</glyph>
<glyph name="six" format="1">
  <advance width="606"/>
  <unicode hex="0036"/>
  <note>
	six
  </note>
  <outline>
    <contour>
      <point x="447" y="-10"/>
      <point x="556" y="69"/>
      <point x="556" y="215" type="curve" smooth="yes"/>
      <point x="556" y="336"/>
      <point x="474" y="420"/>
      <point x="331" y="420" type="curve" smooth="yes"/>
      <point x="271" y="420"/>
      <point x="216" y="399"/>
      <point x="175" y="374" type="curve"/>
      <point x="175" y="533"/>
      <point x="267" y="616"/>
      <point x="389" y="616" type="curve" smooth="yes"/>
      <point x="416" y="616"/>
      <point x="442" y="614"/>
      <point x="471" y="607" type="curve"/>
      <point x="471" y="684" type="line"/>
      <point x="443" y="690"/>
      <point x="415" y="695"/>
      <point x="387" y="695" type="curve" smooth="yes"/>
      <point x="167" y="695"/>
      <point x="51" y="536"/>
      <point x="51" y="327" type="curve" smooth="yes"/>
      <point x="51" y="120"/>
      <point x="139" y="-10"/>
      <point x="314" y="-10" type="curve" smooth="yes"/>
    </contour>
    <contour>
      <point x="221" y="69"/>
      <point x="176" y="155"/>
      <point x="176" y="293" type="curve"/>
      <point x="212" y="319"/>
      <point x="264" y="341"/>
      <point x="308" y="341" type="curve" smooth="yes"/>
      <point x="385" y="341"/>
      <point x="431" y="297"/>
      <point x="431" y="211" type="curve" smooth="yes"/>
      <point x="431" y="137"/>
      <point x="392" y="69"/>
      <point x="310" y="69" type="curve" smooth="yes"/>
    </contour>
  </outline>
</glyph>
<glyph name="seven" format="1">
  <advance width="574"/>
  <unicode hex="0037"/>
  <note>
	seven
  </note>
  <outline>
    <contour>
      <point x="286" y="0" type="line"/>
      <point x="533" y="616" type="line"/>
      <point x="533" y="685" type="line"/>
      <point x="41" y="685" type="line"/>
      <point x="41" y="542" type="line" smooth="yes"/>
      <point x="41" y="530"/>
      <point x="47" y="521"/>
      <point x="62" y="521" type="curve" smooth="yes"/>
      <point x="83" y="521"/>
      <point x="95" y="538"/>
      <point x="102" y="563" type="curve" smooth="yes"/>
      <point x="114" y="606" type="line"/>
      <point x="396" y="606" type="line"/>
      <point x="148" y="0" type="line"/>
    </contour>
  </outline>
</glyph>
<glyph name="eight" format="1">
  <advance width="648"/>
  <unicode hex="0038"/>
  <note>
	eight
  </note>
  <outline>
    <contour>
      <point x="474" y="-12"/>
      <point x="587" y="63"/>
      <point x="587" y="183" type="curve" smooth="yes"/>
      <point x="587" y="256"/>
      <point x="536" y="315"/>
      <point x="436" y="361" type="curve"/>
      <point x="518" y="411"/>
      <point x="556" y="460"/>
      <point x="556" y="528" type="curve" smooth="yes"/>
      <point x="556" y="625"/>
      <point x="471" y="697"/>
      <point x="327" y="697" type="curve" smooth="yes"/>
      <point x="183" y="697"/>
      <point x="89" y="624"/>
      <point x="89" y="528" type="curve" smooth="yes"/>
      <point x="89" y="457"/>
      <point x="128" y="404"/>
      <point x="213" y="358" type="curve"/>
      <point x="117" y="317"/>
      <point x="61" y="251"/>
      <point x="61" y="178" type="curve" smooth="yes"/>
      <point x="61" y="58"/>
      <point x="171" y="-12"/>
      <point x="322" y="-12" type="curve" smooth="yes"/>
    </contour>
    <contour>
      <point x="242" y="67"/>
      <point x="181" y="107"/>
      <point x="181" y="175" type="curve" smooth="yes"/>
      <point x="181" y="239"/>
      <point x="249" y="283"/>
      <point x="320" y="312" type="curve"/>
      <point x="391" y="282"/>
      <point x="458" y="238"/>
      <point x="458" y="176" type="curve" smooth="yes"/>
      <point x="458" y="107"/>
      <point x="397" y="67"/>
      <point x="320" y="67" type="curve" smooth="yes"/>
    </contour>
    <contour>
      <point x="264" y="440"/>
      <point x="216" y="475"/>
      <point x="216" y="528" type="curve" smooth="yes"/>
      <point x="216" y="586"/>
      <point x="267" y="618"/>
      <point x="327" y="618" type="curve" smooth="yes"/>
      <point x="389" y="618"/>
      <point x="439" y="587"/>
      <point x="439" y="528" type="curve" smooth="yes"/>
      <point x="439" y="476"/>
      <point x="393" y="439"/>
      <point x="328" y="409" type="curve"/>
    </contour>
  </outline>
</glyph>
<glyph name="nine" format="1">
  <advance width="606"/>
  <unicode hex="0039"/>
  <note>
	nine
  </note>
  <outline>
    <contour>
      <point x="445" y="-10"/>
      <point x="556" y="151"/>
      <point x="556" y="358" type="curve" smooth="yes"/>
      <point x="556" y="573"/>
      <point x="470" y="695"/>
      <point x="296" y="695" type="curve" smooth="yes"/>
      <point x="160" y="695"/>
      <point x="51" y="609"/>
      <point x="51" y="462" type="curve" smooth="yes"/>
      <point x="51" y="337"/>
      <point x="139" y="245"/>
      <point x="280" y="245" type="curve" smooth="yes"/>
      <point x="337" y="245"/>
      <point x="392" y="265"/>
      <point x="432" y="292" type="curve"/>
      <point x="428" y="137"/>
      <point x="336" y="69"/>
      <point x="220" y="69" type="curve" smooth="yes"/>
      <point x="191" y="69"/>
      <point x="159" y="73"/>
      <point x="128" y="81" type="curve"/>
      <point x="128" y="4" type="line"/>
      <point x="154" y="-5"/>
      <point x="199" y="-10"/>
      <point x="233" y="-10" type="curve" smooth="yes"/>
    </contour>
    <contour>
      <point x="225" y="324"/>
      <point x="176" y="378"/>
      <point x="176" y="466" type="curve" smooth="yes"/>
      <point x="176" y="548"/>
      <point x="216" y="616"/>
      <point x="300" y="616" type="curve" smooth="yes"/>
      <point x="389" y="616"/>
      <point x="431" y="522"/>
      <point x="431" y="375" type="curve"/>
      <point x="394" y="345"/>
      <point x="347" y="324"/>
      <point x="301" y="324" type="curve" smooth="yes"/>
    </contour>
  </outline>
</glyph>
<glyph name="colon" format="1">
  <advance width="292"/>
  <unicode hex="003A"/>
  <note>
	colon
  </note>
  <outline>
    <contour>
      <point x="192" y="369"/>
      <point x="227" y="401"/>
      <point x="227" y="449" type="curve" smooth="yes"/>
      <point x="227" y="497"/>
      <point x="192" y="529"/>
      <point x="146" y="529" type="curve" smooth="yes"/>
      <point x="101" y="529"/>
      <point x="66" y="497"/>
      <point x="66" y="449" type="curve" smooth="yes"/>
      <point x="66" y="401"/>
      <point x="101" y="369"/>
      <point x="146" y="369" type="curve" smooth="yes"/>
    </contour>
    <contour>
      <point x="192" y="9"/>
      <point x="227" y="41"/>
      <point x="227" y="89" type="curve" smooth="yes"/>
      <point x="227" y="137"/>
      <point x="192" y="169"/>
      <point x="146" y="169" type="curve" smooth="yes"/>
      <point x="101" y="169"/>
      <point x="66" y="137"/>
      <point x="66" y="89" type="curve" smooth="yes"/>
      <point x="66" y="41"/>
      <point x="101" y="9"/>
      <point x="146" y="9" type="curve" smooth="yes"/>
    </contour>
  </outline>
</glyph>
<glyph name="semicolon" format="1">
  <advance width="294"/>
  <unicode hex="003B"/>
  <note>
	semicolon
  </note>
  <outline>
    <contour>
      <point x="155" y="-91"/>
      <point x="215" y="20"/>
      <point x="233" y="89" type="curve"/>
      <point x="117" y="115" type="line" smooth="yes"/>
      <point x="83" y="123"/>
      <point x="59" y="107"/>
      <point x="59" y="78" type="curve" smooth="yes"/>
      <point x="59" y="63"/>
      <point x="67" y="57"/>
      <point x="79" y="52" type="curve" smooth="yes"/>
      <point x="111" y="42" type="line"/>
      <point x="107" y="1"/>
      <point x="67" y="-75"/>
      <point x="38" y="-114" type="curve"/>
      <point x="101" y="-152" type="line"/>
    </contour>
    <contour>
      <point x="199" y="369"/>
      <point x="234" y="401"/>
      <point x="234" y="449" type="curve" smooth="yes"/>
      <point x="234" y="497"/>
      <point x="199" y="529"/>
      <point x="153" y="529" type="curve" smooth="yes"/>
      <point x="108" y="529"/>
      <point x="73" y="497"/>
      <point x="73" y="449" type="curve" smooth="yes"/>
      <point x="73" y="401"/>
      <point x="108" y="369"/>
      <point x="153" y="369" type="curve" smooth="yes"/>
    </contour>
  </outline>
</glyph>
<glyph name="less" format="1">
  <advance width="569"/>
  <unicode hex="003C"/>
  <note>
	less
  </note>
  <outline>
    <contour>
      <point x="503" y="122" type="line"/>
      <point x="173" y="308" type="line"/>
      <point x="503" y="495" type="line"/>
      <point x="456" y="585" type="line"/>
      <point x="56" y="356" type="line"/>
      <point x="56" y="261" type="line"/>
      <point x="456" y="32" type="line"/>
    </contour>
  </outline>
</glyph>
<glyph name="equal" format="1">
  <advance width="550"/>
  <unicode hex="003D"/>
  <note>
	equal
  </note>
  <outline>
    <contour>
      <point x="497" y="368" type="line"/>
      <point x="497" y="460" type="line"/>
      <point x="53" y="460" type="line"/>
      <point x="53" y="368" type="line"/>
    </contour>
    <contour>
      <point x="497" y="176" type="line"/>
      <point x="497" y="268" type="line"/>
      <point x="53" y="268" type="line"/>
      <point x="53" y="176" type="line"/>
    </contour>
  </outline>
</glyph>
<glyph name="greater" format="1">
  <advance width="569"/>
  <unicode hex="003E"/>
  <note>
	greater
  </note>
  <outline>
    <contour>
      <point x="513" y="261" type="line"/>
      <point x="513" y="356" type="line"/>
      <point x="113" y="585" type="line"/>
      <point x="66" y="495" type="line"/>
      <point x="396" y="308" type="line"/>
      <point x="66" y="122" type="line"/>
      <point x="113" y="32" type="line"/>
    </contour>
  </outline>
</glyph>
<glyph name="question" format="1">
  <advance width="483"/>
  <unicode hex="003F"/>
  <note>
	question
  </note>
  <outline>
    <contour>
      <point x="290" y="164" type="line"/>
      <point x="290" y="257" type="line" smooth="yes"/>
      <point x="290" y="330"/>
      <point x="307" y="352"/>
      <point x="359" y="407" type="curve" smooth="yes"/>
      <point x="395" y="445"/>
      <point x="438" y="490"/>
      <point x="438" y="567" type="curve" smooth="yes"/>
      <point x="438" y="656"/>
      <point x="371" y="719"/>
      <point x="252" y="719" type="curve" smooth="yes"/>
      <point x="175" y="719"/>
      <point x="106" y="687"/>
      <point x="71" y="658" type="curve"/>
      <point x="71" y="555" type="line" smooth="yes"/>
      <point x="71" y="545"/>
      <point x="78" y="537"/>
      <point x="93" y="537" type="curve" smooth="yes"/>
      <point x="114" y="537"/>
      <point x="125" y="550"/>
      <point x="131" y="575" type="curve" smooth="yes"/>
      <point x="142" y="620" type="line"/>
      <point x="169" y="637"/>
      <point x="205" y="646"/>
      <point x="240" y="646" type="curve" smooth="yes"/>
      <point x="296" y="646"/>
      <point x="328" y="609"/>
      <point x="328" y="560" type="curve" smooth="yes"/>
      <point x="328" y="508"/>
      <point x="302" y="472"/>
      <point x="269" y="438" type="curve" smooth="yes"/>
      <point x="223" y="390"/>
      <point x="189" y="351"/>
      <point x="189" y="277" type="curve" smooth="yes"/>
      <point x="189" y="164" type="line"/>
    </contour>
    <contour>
      <point x="273" y="-14"/>
      <point x="299" y="9"/>
      <point x="299" y="45" type="curve" smooth="yes"/>
      <point x="299" y="81"/>
      <point x="273" y="104"/>
      <point x="240" y="104" type="curve" smooth="yes"/>
      <point x="208" y="104"/>
      <point x="182" y="81"/>
      <point x="182" y="45" type="curve" smooth="yes"/>
      <point x="182" y="9"/>
      <point x="208" y="-14"/>
      <point x="240" y="-14" type="curve" smooth="yes"/>
    </contour>
  </outline>
</glyph>
<glyph name="at" format="1">
  <advance width="861"/>
  <unicode hex="0040"/>
  <note>
	at
  </note>
  <outline>
    <contour>
      <point x="496" y="-94"/>
      <point x="577" y="-76"/>
      <point x="649" y="-51" type="curve"/>
      <point x="649" y="36" type="line"/>
      <point x="555" y="1"/>
      <point x="483" y="-11"/>
      <point x="424" y="-11" type="curve" smooth="yes"/>
      <point x="245" y="-11"/>
      <point x="131" y="95"/>
      <point x="131" y="282" type="curve" smooth="yes"/>
      <point x="131" y="497"/>
      <point x="265" y="637"/>
      <point x="474" y="637" type="curve" smooth="yes"/>
      <point x="638" y="637"/>
      <point x="753" y="527"/>
      <point x="753" y="358" type="curve" smooth="yes"/>
      <point x="753" y="251"/>
      <point x="715" y="181"/>
      <point x="665" y="181" type="curve" smooth="yes"/>
      <point x="634" y="181"/>
      <point x="605" y="203"/>
      <point x="608" y="246" type="curve" smooth="yes"/>
      <point x="625" y="500" type="line"/>
      <point x="566" y="517"/>
      <point x="512" y="528"/>
      <point x="461" y="528" type="curve" smooth="yes"/>
      <point x="328" y="528"/>
      <point x="246" y="431"/>
      <point x="246" y="294" type="curve" smooth="yes"/>
      <point x="246" y="163"/>
      <point x="316" y="99"/>
      <point x="420" y="99" type="curve" smooth="yes"/>
      <point x="469" y="99"/>
      <point x="516" y="122"/>
      <point x="554" y="162" type="curve"/>
      <point x="577" y="122"/>
      <point x="619" y="99"/>
      <point x="664" y="99" type="curve" smooth="yes"/>
      <point x="767" y="99"/>
      <point x="840" y="217"/>
      <point x="840" y="357" type="curve" smooth="yes"/>
      <point x="840" y="581"/>
      <point x="686" y="719"/>
      <point x="464" y="719" type="curve" smooth="yes"/>
      <point x="210" y="719"/>
      <point x="43" y="533"/>
      <point x="43" y="279" type="curve" smooth="yes"/>
      <point x="43" y="40"/>
      <point x="192" y="-94"/>
      <point x="424" y="-94" type="curve" smooth="yes"/>
    </contour>
    <contour>
      <point x="365" y="181"/>
      <point x="335" y="219"/>
      <point x="335" y="292" type="curve" smooth="yes"/>
      <point x="335" y="388"/>
      <point x="385" y="445"/>
      <point x="462" y="445" type="curve" smooth="yes"/>
      <point x="482" y="445"/>
      <point x="506" y="443"/>
      <point x="534" y="438" type="curve"/>
      <point x="520" y="234" type="line"/>
      <point x="495" y="199"/>
      <point x="464" y="181"/>
      <point x="421" y="181" type="curve" smooth="yes"/>
    </contour>
  </outline>
</glyph>
<glyph name="B" format="1">
  <advance width="718"/>
  <unicode hex="0042"/>
  <note>
	B
  </note>
  <outline>
    <contour>
      <point x="432" y="0" type="line" smooth="yes"/>
      <point x="574" y="0"/>
      <point x="668" y="70"/>
      <point x="668" y="194" type="curve" smooth="yes"/>
      <point x="668" y="274"/>
      <point x="618" y="337"/>
      <point x="530" y="362" type="curve"/>
      <point x="530" y="366" type="line"/>
      <point x="592" y="391"/>
      <point x="629" y="444"/>
      <point x="629" y="508" type="curve" smooth="yes"/>
      <point x="629" y="622"/>
      <point x="548" y="695"/>
      <point x="395" y="695" type="curve" smooth="yes"/>
      <point x="70" y="695" type="line" smooth="yes"/>
      <point x="59" y="695"/>
      <point x="51" y="688"/>
      <point x="51" y="670" type="curve" smooth="yes"/>
      <point x="51" y="645"/>
      <point x="67" y="631"/>
      <point x="107" y="621" type="curve" smooth="yes"/>
      <point x="127" y="616" type="line"/>
      <point x="127" y="79" type="line"/>
      <point x="107" y="74" type="line" smooth="yes"/>
      <point x="67" y="64"/>
      <point x="51" y="50"/>
      <point x="51" y="25" type="curve" smooth="yes"/>
      <point x="51" y="7"/>
      <point x="59" y="0"/>
      <point x="70" y="0" type="curve" smooth="yes"/>
    </contour>
    <contour>
      <point x="252" y="318" type="line"/>
      <point x="418" y="318" type="line" smooth="yes"/>
      <point x="499" y="318"/>
      <point x="543" y="269"/>
      <point x="543" y="196" type="curve" smooth="yes"/>
      <point x="543" y="122"/>
      <point x="500" y="78"/>
      <point x="415" y="78" type="curve" smooth="yes"/>
      <point x="252" y="78" type="line"/>
    </contour>
    <contour>
      <point x="252" y="617" type="line"/>
      <point x="389" y="617" type="line" smooth="yes"/>
      <point x="464" y="617"/>
      <point x="504" y="571"/>
      <point x="504" y="505" type="curve" smooth="yes"/>
      <point x="504" y="440"/>
      <point x="463" y="395"/>
      <point x="396" y="395" type="curve" smooth="yes"/>
      <point x="252" y="395" type="line"/>
    </contour>
  </outline>
</glyph>
<glyph name="C" format="1">
  <advance width="668"/>
  <unicode hex="0043"/>
  <note>
	C
  </note>
  <outline>
    <contour>
      <point x="487" y="-14"/>
      <point x="553" y="13"/>
      <point x="588" y="36" type="curve" smooth="yes"/>
      <point x="606" y="48"/>
      <point x="622" y="63"/>
      <point x="622" y="86" type="curve" smooth="yes"/>
      <point x="622" y="107"/>
      <point x="606" y="122"/>
      <point x="589" y="122" type="curve" smooth="yes"/>
      <point x="580" y="122"/>
      <point x="570" y="116"/>
      <point x="554" y="105" type="curve" smooth="yes"/>
      <point x="508" y="73"/>
      <point x="465" y="66"/>
      <point x="405" y="66" type="curve" smooth="yes"/>
      <point x="271" y="66"/>
      <point x="167" y="162"/>
      <point x="167" y="349" type="curve" smooth="yes"/>
      <point x="167" y="534"/>
      <point x="264" y="629"/>
      <point x="399" y="629" type="curve" smooth="yes"/>
      <point x="459" y="629"/>
      <point x="507" y="613"/>
      <point x="532" y="597" type="curve"/>
      <point x="551" y="528" type="line" smooth="yes"/>
      <point x="560" y="494"/>
      <point x="570" y="478"/>
      <point x="592" y="478" type="curve" smooth="yes"/>
      <point x="610" y="478"/>
      <point x="614" y="488"/>
      <point x="614" y="500" type="curve" smooth="yes"/>
      <point x="614" y="633" type="line"/>
      <point x="564" y="674"/>
      <point x="483" y="709"/>
      <point x="377" y="709" type="curve" smooth="yes"/>
      <point x="201" y="709"/>
      <point x="40" y="588"/>
      <point x="40" y="349" type="curve" smooth="yes"/>
      <point x="40" y="107"/>
      <point x="197" y="-14"/>
      <point x="388" y="-14" type="curve" smooth="yes"/>
    </contour>
  </outline>
</glyph>
<glyph name="D" format="1">
  <advance width="760"/>
  <unicode hex="0044"/>
  <note>
	D
  </note>
  <outline>
    <contour>
      <point x="380" y="0" type="line" smooth="yes"/>
      <point x="566" y="0"/>
      <point x="719" y="104"/>
      <point x="719" y="346" type="curve" smooth="yes"/>
      <point x="719" y="588"/>
      <point x="566" y="695"/>
      <point x="380" y="695" type="curve" smooth="yes"/>
      <point x="70" y="695" type="line" smooth="yes"/>
      <point x="59" y="695"/>
      <point x="51" y="688"/>
      <point x="51" y="670" type="curve" smooth="yes"/>
      <point x="51" y="645"/>
      <point x="67" y="631"/>
      <point x="107" y="621" type="curve" smooth="yes"/>
      <point x="127" y="616" type="line"/>
      <point x="127" y="79" type="line"/>
      <point x="107" y="74" type="line" smooth="yes"/>
      <point x="67" y="64"/>
      <point x="51" y="50"/>
      <point x="51" y="25" type="curve" smooth="yes"/>
      <point x="51" y="7"/>
      <point x="59" y="0"/>
      <point x="70" y="0" type="curve" smooth="yes"/>
    </contour>
    <contour>
      <point x="252" y="615" type="line"/>
      <point x="380" y="615" type="line" smooth="yes"/>
      <point x="518" y="615"/>
      <point x="593" y="513"/>
      <point x="593" y="346" type="curve" smooth="yes"/>
      <point x="593" y="179"/>
      <point x="518" y="80"/>
      <point x="380" y="80" type="curve" smooth="yes"/>
      <point x="252" y="80" type="line"/>
    </contour>
  </outline>
</glyph>
<glyph name="E" format="1">
  <advance width="711"/>
  <unicode hex="0045"/>
  <note>
	E
  </note>
  <outline>
    <contour>
      <point x="648" y="0" type="line"/>
      <point x="648" y="157" type="line" smooth="yes"/>
      <point x="648" y="169"/>
      <point x="644" y="177"/>
      <point x="628" y="177" type="curve" smooth="yes"/>
      <point x="611" y="177"/>
      <point x="599" y="159"/>
      <point x="587" y="117" type="curve" smooth="yes"/>
      <point x="576" y="78" type="line"/>
      <point x="252" y="78" type="line"/>
      <point x="252" y="317" type="line"/>
      <point x="500" y="317" type="line"/>
      <point x="515" y="278" type="line" smooth="yes"/>
      <point x="525" y="254"/>
      <point x="534" y="244"/>
      <point x="546" y="244" type="curve" smooth="yes"/>
      <point x="559" y="244"/>
      <point x="564" y="252"/>
      <point x="564" y="262" type="curve" smooth="yes"/>
      <point x="564" y="449" type="line" smooth="yes"/>
      <point x="564" y="458"/>
      <point x="559" y="467"/>
      <point x="546" y="467" type="curve" smooth="yes"/>
      <point x="534" y="467"/>
      <point x="524" y="456"/>
      <point x="515" y="433" type="curve" smooth="yes"/>
      <point x="500" y="394" type="line"/>
      <point x="252" y="394" type="line"/>
      <point x="252" y="617" type="line"/>
      <point x="562" y="617" type="line"/>
      <point x="573" y="579" type="line" smooth="yes"/>
      <point x="585" y="538"/>
      <point x="596" y="519"/>
      <point x="614" y="519" type="curve" smooth="yes"/>
      <point x="629" y="519"/>
      <point x="634" y="527"/>
      <point x="634" y="539" type="curve" smooth="yes"/>
      <point x="634" y="695" type="line"/>
      <point x="70" y="695" type="line" smooth="yes"/>
      <point x="59" y="695"/>
      <point x="51" y="688"/>
      <point x="51" y="670" type="curve" smooth="yes"/>
      <point x="51" y="645"/>
      <point x="68" y="631"/>
      <point x="107" y="621" type="curve" smooth="yes"/>
      <point x="127" y="616" type="line"/>
      <point x="127" y="79" type="line"/>
      <point x="107" y="74" type="line" smooth="yes"/>
      <point x="67" y="64"/>
      <point x="51" y="50"/>
      <point x="51" y="25" type="curve" smooth="yes"/>
      <point x="51" y="7"/>
      <point x="59" y="0"/>
      <point x="70" y="0" type="curve" smooth="yes"/>
    </contour>
  </outline>
</glyph>
<glyph name="F" format="1">
  <advance width="669"/>
  <unicode hex="0046"/>
  <note>
	F
  </note>
  <outline>
    <contour>
      <point x="315" y="0" type="line" smooth="yes"/>
      <point x="329" y="0"/>
      <point x="332" y="7"/>
      <point x="332" y="17" type="curve" smooth="yes"/>
      <point x="332" y="35"/>
      <point x="323" y="45"/>
      <point x="294" y="56" type="curve" smooth="yes"/>
      <point x="252" y="72" type="line"/>
      <point x="252" y="293" type="line"/>
      <point x="477" y="293" type="line"/>
      <point x="492" y="253" type="line" smooth="yes"/>
      <point x="501" y="230"/>
      <point x="510" y="219"/>
      <point x="522" y="219" type="curve" smooth="yes"/>
      <point x="536" y="219"/>
      <point x="541" y="228"/>
      <point x="541" y="237" type="curve" smooth="yes"/>
      <point x="541" y="429" type="line" smooth="yes"/>
      <point x="541" y="438"/>
      <point x="536" y="446"/>
      <point x="522" y="446" type="curve" smooth="yes"/>
      <point x="510" y="446"/>
      <point x="501" y="435"/>
      <point x="492" y="412" type="curve" smooth="yes"/>
      <point x="477" y="373" type="line"/>
      <point x="252" y="373" type="line"/>
      <point x="252" y="615" type="line"/>
      <point x="539" y="615" type="line"/>
      <point x="550" y="576" type="line" smooth="yes"/>
      <point x="562" y="535"/>
      <point x="573" y="517"/>
      <point x="591" y="517" type="curve" smooth="yes"/>
      <point x="606" y="517"/>
      <point x="611" y="524"/>
      <point x="611" y="537" type="curve" smooth="yes"/>
      <point x="611" y="695" type="line"/>
      <point x="70" y="695" type="line" smooth="yes"/>
      <point x="59" y="695"/>
      <point x="51" y="688"/>
      <point x="51" y="670" type="curve" smooth="yes"/>
      <point x="51" y="645"/>
      <point x="66" y="631"/>
      <point x="107" y="621" type="curve" smooth="yes"/>
      <point x="127" y="616" type="line"/>
      <point x="127" y="72" type="line"/>
      <point x="110" y="72" type="line" smooth="yes"/>
      <point x="76" y="72"/>
      <point x="54" y="58"/>
      <point x="54" y="30" type="curve" smooth="yes"/>
      <point x="54" y="11"/>
      <point x="63" y="0"/>
      <point x="79" y="0" type="curve" smooth="yes"/>
    </contour>
  </outline>
</glyph>
<glyph name="G" format="1">
  <advance width="735"/>
  <unicode hex="0047"/>
  <note>
	G
  </note>
  <outline>
    <contour>
      <point x="475" y="-14"/>
      <point x="560" y="2"/>
      <point x="624" y="35" type="curve"/>
      <point x="624" y="281" type="line"/>
      <point x="663" y="297" type="line" smooth="yes"/>
      <point x="690" y="308"/>
      <point x="699" y="318"/>
      <point x="699" y="335" type="curve" smooth="yes"/>
      <point x="699" y="346"/>
      <point x="694" y="352"/>
      <point x="684" y="352" type="curve" smooth="yes"/>
      <point x="449" y="352" type="line" smooth="yes"/>
      <point x="416" y="352"/>
      <point x="394" y="338"/>
      <point x="394" y="310" type="curve" smooth="yes"/>
      <point x="394" y="292"/>
      <point x="402" y="280"/>
      <point x="418" y="280" type="curve" smooth="yes"/>
      <point x="499" y="280" type="line"/>
      <point x="499" y="83" type="line"/>
      <point x="473" y="72"/>
      <point x="439" y="66"/>
      <point x="405" y="66" type="curve" smooth="yes"/>
      <point x="271" y="66"/>
      <point x="170" y="162"/>
      <point x="170" y="349" type="curve" smooth="yes"/>
      <point x="170" y="534"/>
      <point x="265" y="629"/>
      <point x="402" y="629" type="curve" smooth="yes"/>
      <point x="462" y="629"/>
      <point x="510" y="613"/>
      <point x="535" y="597" type="curve"/>
      <point x="554" y="528" type="line" smooth="yes"/>
      <point x="563" y="494"/>
      <point x="573" y="478"/>
      <point x="595" y="478" type="curve" smooth="yes"/>
      <point x="613" y="478"/>
      <point x="617" y="488"/>
      <point x="617" y="500" type="curve" smooth="yes"/>
      <point x="617" y="633" type="line"/>
      <point x="567" y="674"/>
      <point x="485" y="709"/>
      <point x="379" y="709" type="curve" smooth="yes"/>
      <point x="200" y="709"/>
      <point x="43" y="588"/>
      <point x="43" y="349" type="curve" smooth="yes"/>
      <point x="43" y="97"/>
      <point x="208" y="-14"/>
      <point x="401" y="-14" type="curve" smooth="yes"/>
    </contour>
  </outline>
</glyph>
<glyph name="H" format="1">
  <advance width="831"/>
  <unicode hex="0048"/>
  <note>
	H
  </note>
  <outline>
    <contour>
      <point x="312" y="0" type="line" smooth="yes"/>
      <point x="326" y="0"/>
      <point x="329" y="7"/>
      <point x="329" y="17" type="curve" smooth="yes"/>
      <point x="329" y="35"/>
      <point x="319" y="45"/>
      <point x="291" y="56" type="curve" smooth="yes"/>
      <point x="249" y="72" type="line"/>
      <point x="249" y="321" type="line"/>
      <point x="580" y="321" type="line"/>
      <point x="580" y="72" type="line"/>
      <point x="557" y="72" type="line" smooth="yes"/>
      <point x="524" y="72"/>
      <point x="502" y="58"/>
      <point x="502" y="30" type="curve" smooth="yes"/>
      <point x="502" y="11"/>
      <point x="511" y="0"/>
      <point x="527" y="0" type="curve" smooth="yes"/>
      <point x="764" y="0" type="line" smooth="yes"/>
      <point x="776" y="0"/>
      <point x="780" y="7"/>
      <point x="780" y="17" type="curve" smooth="yes"/>
      <point x="780" y="35"/>
      <point x="769" y="43"/>
      <point x="749" y="52" type="curve" smooth="yes"/>
      <point x="705" y="72" type="line"/>
      <point x="705" y="623" type="line"/>
      <point x="749" y="643" type="line" smooth="yes"/>
      <point x="769" y="652"/>
      <point x="780" y="660"/>
      <point x="780" y="678" type="curve" smooth="yes"/>
      <point x="780" y="688"/>
      <point x="776" y="695"/>
      <point x="764" y="695" type="curve" smooth="yes"/>
      <point x="557" y="695" type="line" smooth="yes"/>
      <point x="524" y="695"/>
      <point x="502" y="681"/>
      <point x="502" y="653" type="curve" smooth="yes"/>
      <point x="502" y="634"/>
      <point x="511" y="623"/>
      <point x="527" y="623" type="curve" smooth="yes"/>
      <point x="580" y="623" type="line"/>
      <point x="580" y="401" type="line"/>
      <point x="249" y="401" type="line"/>
      <point x="249" y="623" type="line"/>
      <point x="291" y="639" type="line" smooth="yes"/>
      <point x="318" y="649"/>
      <point x="329" y="660"/>
      <point x="329" y="678" type="curve" smooth="yes"/>
      <point x="329" y="688"/>
      <point x="326" y="695"/>
      <point x="312" y="695" type="curve" smooth="yes"/>
      <point x="106" y="695" type="line" smooth="yes"/>
      <point x="73" y="695"/>
      <point x="51" y="681"/>
      <point x="51" y="653" type="curve" smooth="yes"/>
      <point x="51" y="634"/>
      <point x="60" y="623"/>
      <point x="76" y="623" type="curve" smooth="yes"/>
      <point x="124" y="623" type="line"/>
      <point x="124" y="72" type="line"/>
      <point x="107" y="72" type="line" smooth="yes"/>
      <point x="73" y="72"/>
      <point x="51" y="58"/>
      <point x="51" y="30" type="curve" smooth="yes"/>
      <point x="51" y="11"/>
      <point x="60" y="0"/>
      <point x="76" y="0" type="curve" smooth="yes"/>
    </contour>
  </outline>
</glyph>
<glyph name="I" format="1">
  <advance width="390"/>
  <unicode hex="0049"/>
  <note>
	I
  </note>
  <outline>
    <contour>
      <point x="317" y="0" type="line" smooth="yes"/>
      <point x="331" y="0"/>
      <point x="334" y="7"/>
      <point x="334" y="17" type="curve" smooth="yes"/>
      <point x="334" y="35"/>
      <point x="324" y="45"/>
      <point x="296" y="56" type="curve" smooth="yes"/>
      <point x="254" y="72" type="line"/>
      <point x="254" y="623" type="line"/>
      <point x="296" y="639" type="line" smooth="yes"/>
      <point x="323" y="649"/>
      <point x="334" y="660"/>
      <point x="334" y="678" type="curve" smooth="yes"/>
      <point x="334" y="688"/>
      <point x="331" y="695"/>
      <point x="317" y="695" type="curve" smooth="yes"/>
      <point x="111" y="695" type="line" smooth="yes"/>
      <point x="78" y="695"/>
      <point x="56" y="681"/>
      <point x="56" y="653" type="curve" smooth="yes"/>
      <point x="56" y="634"/>
      <point x="65" y="623"/>
      <point x="81" y="623" type="curve" smooth="yes"/>
      <point x="129" y="623" type="line"/>
      <point x="129" y="72" type="line"/>
      <point x="112" y="72" type="line" smooth="yes"/>
      <point x="78" y="72"/>
      <point x="56" y="58"/>
      <point x="56" y="30" type="curve" smooth="yes"/>
      <point x="56" y="11"/>
      <point x="65" y="0"/>
      <point x="81" y="0" type="curve" smooth="yes"/>
    </contour>
  </outline>
</glyph>
<glyph name="J" format="1">
  <advance width="432"/>
  <unicode hex="004A"/>
  <note>
	J
  </note>
  <outline>
    <contour>
      <point x="126" y="-14"/>
      <point x="155" y="-7"/>
      <point x="183" y="8" type="curve" smooth="yes"/>
      <point x="246" y="43"/>
      <point x="314" y="113"/>
      <point x="314" y="253" type="curve" smooth="yes"/>
      <point x="314" y="623" type="line"/>
      <point x="356" y="639" type="line" smooth="yes"/>
      <point x="383" y="649"/>
      <point x="394" y="660"/>
      <point x="394" y="678" type="curve" smooth="yes"/>
      <point x="394" y="688"/>
      <point x="390" y="695"/>
      <point x="377" y="695" type="curve" smooth="yes"/>
      <point x="155" y="695" type="line" smooth="yes"/>
      <point x="122" y="695"/>
      <point x="100" y="681"/>
      <point x="100" y="653" type="curve" smooth="yes"/>
      <point x="100" y="634"/>
      <point x="109" y="623"/>
      <point x="125" y="623" type="curve" smooth="yes"/>
      <point x="189" y="623" type="line"/>
      <point x="189" y="261" type="line"/>
      <point x="189" y="151"/>
      <point x="139" y="108"/>
      <point x="31" y="70" type="curve"/>
      <point x="34" y="9"/>
      <point x="63" y="-14"/>
      <point x="101" y="-14" type="curve" smooth="yes"/>
    </contour>
  </outline>
</glyph>
<glyph name="K" format="1">
  <advance width="734"/>
  <unicode hex="004B"/>
  <note>
	K
  </note>
  <outline>
    <contour>
      <point x="714" y="0" type="line" smooth="yes"/>
      <point x="727" y="0"/>
      <point x="731" y="7"/>
      <point x="731" y="18" type="curve" smooth="yes"/>
      <point x="731" y="36"/>
      <point x="718" y="46"/>
      <point x="690" y="55" type="curve" smooth="yes"/>
      <point x="642" y="69" type="line"/>
      <point x="382" y="365" type="line"/>
      <point x="638" y="624" type="line"/>
      <point x="672" y="633" type="line" smooth="yes"/>
      <point x="700" y="641"/>
      <point x="714" y="654"/>
      <point x="714" y="671" type="curve" smooth="yes"/>
      <point x="714" y="688"/>
      <point x="707" y="695"/>
      <point x="694" y="695" type="curve" smooth="yes"/>
      <point x="494" y="695" type="line" smooth="yes"/>
      <point x="461" y="695"/>
      <point x="439" y="681"/>
      <point x="439" y="653" type="curve" smooth="yes"/>
      <point x="439" y="634"/>
      <point x="448" y="623"/>
      <point x="464" y="623" type="curve" smooth="yes"/>
      <point x="525" y="623" type="line"/>
      <point x="249" y="346" type="line"/>
      <point x="534" y="0" type="line"/>
    </contour>
    <contour>
      <point x="312" y="0" type="line" smooth="yes"/>
      <point x="323" y="0"/>
      <point x="329" y="7"/>
      <point x="329" y="17" type="curve" smooth="yes"/>
      <point x="329" y="35"/>
      <point x="318" y="46"/>
      <point x="291" y="56" type="curve" smooth="yes"/>
      <point x="249" y="72" type="line"/>
      <point x="249" y="623" type="line"/>
      <point x="291" y="639" type="line" smooth="yes"/>
      <point x="318" y="649"/>
      <point x="327" y="660"/>
      <point x="327" y="678" type="curve" smooth="yes"/>
      <point x="327" y="688"/>
      <point x="321" y="695"/>
      <point x="311" y="695" type="curve" smooth="yes"/>
      <point x="106" y="695" type="line" smooth="yes"/>
      <point x="73" y="695"/>
      <point x="51" y="681"/>
      <point x="51" y="653" type="curve" smooth="yes"/>
      <point x="51" y="634"/>
      <point x="60" y="623"/>
      <point x="76" y="623" type="curve" smooth="yes"/>
      <point x="124" y="623" type="line"/>
      <point x="124" y="72" type="line"/>
      <point x="107" y="72" type="line" smooth="yes"/>
      <point x="73" y="72"/>
      <point x="51" y="58"/>
      <point x="51" y="30" type="curve" smooth="yes"/>
      <point x="51" y="11"/>
      <point x="60" y="0"/>
      <point x="76" y="0" type="curve" smooth="yes"/>
    </contour>
  </outline>
</glyph>
<glyph name="L" format="1">
  <advance width="628"/>
  <unicode hex="004C"/>
  <note>
	L
  </note>
  <outline>
    <contour>
      <point x="617" y="0" type="line"/>
      <point x="617" y="182" type="line" smooth="yes"/>
      <point x="617" y="194"/>
      <point x="612" y="202"/>
      <point x="597" y="202" type="curve" smooth="yes"/>
      <point x="579" y="202"/>
      <point x="570" y="183"/>
      <point x="556" y="143" type="curve" smooth="yes"/>
      <point x="536" y="80" type="line"/>
      <point x="252" y="80" type="line"/>
      <point x="252" y="623" type="line"/>
      <point x="302" y="639" type="line" smooth="yes"/>
      <point x="330" y="648"/>
      <point x="340" y="660"/>
      <point x="340" y="678" type="curve" smooth="yes"/>
      <point x="340" y="688"/>
      <point x="336" y="695"/>
      <point x="323" y="695" type="curve" smooth="yes"/>
      <point x="109" y="695" type="line" smooth="yes"/>
      <point x="76" y="695"/>
      <point x="54" y="681"/>
      <point x="54" y="653" type="curve" smooth="yes"/>
      <point x="54" y="634"/>
      <point x="63" y="623"/>
      <point x="79" y="623" type="curve" smooth="yes"/>
      <point x="127" y="623" type="line"/>
      <point x="127" y="79" type="line"/>
      <point x="107" y="74" type="line" smooth="yes"/>
      <point x="67" y="64"/>
      <point x="51" y="50"/>
      <point x="51" y="25" type="curve" smooth="yes"/>
      <point x="51" y="7"/>
      <point x="59" y="0"/>
      <point x="70" y="0" type="curve" smooth="yes"/>
    </contour>
  </outline>
</glyph>
<glyph name="M" format="1">
  <advance width="1074"/>
  <unicode hex="004D"/>
  <note>
	M
  </note>
  <outline>
    <contour>
      <point x="266" y="0" type="line" smooth="yes"/>
      <point x="276" y="0"/>
      <point x="281" y="7"/>
      <point x="281" y="19" type="curve" smooth="yes"/>
      <point x="281" y="36"/>
      <point x="275" y="44"/>
      <point x="240" y="55" type="curve" smooth="yes"/>
      <point x="185" y="72" type="line"/>
      <point x="272" y="533" type="line" smooth="yes"/>
      <point x="277" y="563"/>
      <point x="280" y="610"/>
      <point x="280" y="610" type="curve"/>
      <point x="284" y="610" type="line"/>
      <point x="284" y="610"/>
      <point x="290" y="563"/>
      <point x="298" y="533" type="curve" smooth="yes"/>
      <point x="454" y="0" type="line"/>
      <point x="592" y="0" type="line"/>
      <point x="733" y="533" type="line" smooth="yes"/>
      <point x="740" y="563"/>
      <point x="748" y="610"/>
      <point x="748" y="610" type="curve"/>
      <point x="752" y="610" type="line"/>
      <point x="752" y="610"/>
      <point x="755" y="563"/>
      <point x="762" y="533" type="curve" smooth="yes"/>
      <point x="859" y="72" type="line"/>
      <point x="823" y="72" type="line" smooth="yes"/>
      <point x="789" y="72"/>
      <point x="767" y="58"/>
      <point x="767" y="30" type="curve" smooth="yes"/>
      <point x="767" y="11"/>
      <point x="776" y="0"/>
      <point x="792" y="0" type="curve" smooth="yes"/>
      <point x="1042" y="0" type="line" smooth="yes"/>
      <point x="1054" y="0"/>
      <point x="1057" y="10"/>
      <point x="1057" y="22" type="curve" smooth="yes"/>
      <point x="1057" y="40"/>
      <point x="1045" y="49"/>
      <point x="1019" y="59" type="curve" smooth="yes"/>
      <point x="981" y="73" type="line"/>
      <point x="863" y="616" type="line"/>
      <point x="883" y="621" type="line" smooth="yes"/>
      <point x="923" y="631"/>
      <point x="939" y="645"/>
      <point x="939" y="670" type="curve" smooth="yes"/>
      <point x="939" y="688"/>
      <point x="930" y="695"/>
      <point x="920" y="695" type="curve" smooth="yes"/>
      <point x="685" y="695" type="line"/>
      <point x="560" y="225" type="line" smooth="yes"/>
      <point x="547" y="175"/>
      <point x="539" y="85"/>
      <point x="539" y="85" type="curve" smooth="yes"/>
      <point x="534" y="85" type="line" smooth="yes"/>
      <point x="534" y="85"/>
      <point x="526" y="175"/>
      <point x="512" y="225" type="curve" smooth="yes"/>
      <point x="377" y="695" type="line"/>
      <point x="143" y="695" type="line" smooth="yes"/>
      <point x="132" y="695"/>
      <point x="123" y="688"/>
      <point x="123" y="670" type="curve" smooth="yes"/>
      <point x="123" y="645"/>
      <point x="141" y="631"/>
      <point x="179" y="621" type="curve" smooth="yes"/>
      <point x="199" y="616" type="line"/>
      <point x="93" y="72" type="line"/>
      <point x="76" y="72" type="line" smooth="yes"/>
      <point x="42" y="72"/>
      <point x="20" y="58"/>
      <point x="20" y="30" type="curve" smooth="yes"/>
      <point x="20" y="11"/>
      <point x="29" y="0"/>
      <point x="45" y="0" type="curve" smooth="yes"/>
    </contour>
  </outline>
</glyph>
<glyph name="N" format="1">
  <advance width="811"/>
  <unicode hex="004E"/>
  <note>
	N
  </note>
  <outline>
    <contour>
      <point x="289" y="0" type="line" smooth="yes"/>
      <point x="302" y="0"/>
      <point x="305" y="7"/>
      <point x="305" y="17" type="curve" smooth="yes"/>
      <point x="305" y="35"/>
      <point x="295" y="46"/>
      <point x="267" y="55" type="curve" smooth="yes"/>
      <point x="217" y="72" type="line"/>
      <point x="217" y="540" type="line"/>
      <point x="234" y="493"/>
      <point x="246" y="466"/>
      <point x="267" y="436" type="curve" smooth="yes"/>
      <point x="569" y="0" type="line"/>
      <point x="684" y="0" type="line"/>
      <point x="684" y="623" type="line"/>
      <point x="720" y="639" type="line" smooth="yes"/>
      <point x="745" y="650"/>
      <point x="763" y="662"/>
      <point x="763" y="678" type="curve" smooth="yes"/>
      <point x="763" y="688"/>
      <point x="760" y="695"/>
      <point x="747" y="695" type="curve" smooth="yes"/>
      <point x="564" y="695" type="line" smooth="yes"/>
      <point x="531" y="695"/>
      <point x="509" y="681"/>
      <point x="509" y="653" type="curve" smooth="yes"/>
      <point x="509" y="634"/>
      <point x="518" y="623"/>
      <point x="534" y="623" type="curve" smooth="yes"/>
      <point x="591" y="623" type="line"/>
      <point x="591" y="154" type="line"/>
      <point x="572" y="204"/>
      <point x="555" y="240"/>
      <point x="530" y="276" type="curve" smooth="yes"/>
      <point x="239" y="695" type="line"/>
      <point x="70" y="695" type="line" smooth="yes"/>
      <point x="60" y="695"/>
      <point x="51" y="688"/>
      <point x="51" y="670" type="curve" smooth="yes"/>
      <point x="51" y="646"/>
      <point x="63" y="632"/>
      <point x="104" y="622" type="curve" smooth="yes"/>
      <point x="124" y="617" type="line"/>
      <point x="124" y="72" type="line"/>
      <point x="107" y="72" type="line" smooth="yes"/>
      <point x="73" y="72"/>
      <point x="51" y="58"/>
      <point x="51" y="30" type="curve" smooth="yes"/>
      <point x="51" y="11"/>
      <point x="60" y="0"/>
      <point x="76" y="0" type="curve" smooth="yes"/>
    </contour>
  </outline>
</glyph>
<glyph name="P" format="1">
  <advance width="648"/>
  <unicode hex="0050"/>
  <note>
	P
  </note>
  <outline>
    <contour>
      <point x="323" y="0" type="line" smooth="yes"/>
      <point x="336" y="0"/>
      <point x="340" y="7"/>
      <point x="340" y="17" type="curve" smooth="yes"/>
      <point x="340" y="35"/>
      <point x="327" y="45"/>
      <point x="296" y="56" type="curve" smooth="yes"/>
      <point x="252" y="72" type="line"/>
      <point x="252" y="272" type="line"/>
      <point x="384" y="272" type="line" smooth="yes"/>
      <point x="528" y="272"/>
      <point x="626" y="352"/>
      <point x="626" y="484" type="curve" smooth="yes"/>
      <point x="626" y="615"/>
      <point x="528" y="695"/>
      <point x="384" y="695" type="curve" smooth="yes"/>
      <point x="70" y="695" type="line" smooth="yes"/>
      <point x="59" y="695"/>
      <point x="51" y="688"/>
      <point x="51" y="670" type="curve" smooth="yes"/>
      <point x="51" y="645"/>
      <point x="67" y="631"/>
      <point x="107" y="621" type="curve" smooth="yes"/>
      <point x="127" y="616" type="line"/>
      <point x="127" y="72" type="line"/>
      <point x="110" y="72" type="line" smooth="yes"/>
      <point x="76" y="72"/>
      <point x="54" y="58"/>
      <point x="54" y="30" type="curve" smooth="yes"/>
      <point x="54" y="11"/>
      <point x="63" y="0"/>
      <point x="79" y="0" type="curve" smooth="yes"/>
    </contour>
    <contour>
      <point x="252" y="615" type="line"/>
      <point x="373" y="615" type="line" smooth="yes"/>
      <point x="453" y="615"/>
      <point x="501" y="562"/>
      <point x="501" y="484" type="curve" smooth="yes"/>
      <point x="501" y="405"/>
      <point x="453" y="352"/>
      <point x="373" y="352" type="curve" smooth="yes"/>
      <point x="252" y="352" type="line"/>
    </contour>
  </outline>
</glyph>
<glyph name="Q" format="1">
  <advance width="756"/>
  <unicode hex="0051"/>
  <note>
	Q
  </note>
  <outline>
    <contour>
      <point x="576" y="-159"/>
      <point x="598" y="-143"/>
      <point x="598" y="-110" type="curve" smooth="yes"/>
      <point x="598" y="-84"/>
      <point x="582" y="-74"/>
      <point x="546" y="-63" type="curve" smooth="yes"/>
      <point x="514" y="-53"/>
      <point x="485" y="-41"/>
      <point x="458" y="-26" type="curve" smooth="yes"/>
      <point x="431" y="-11" type="line"/>
      <point x="593" y="9"/>
      <point x="713" y="121"/>
      <point x="713" y="347" type="curve" smooth="yes"/>
      <point x="713" y="596"/>
      <point x="566" y="709"/>
      <point x="378" y="709" type="curve" smooth="yes"/>
      <point x="190" y="709"/>
      <point x="43" y="596"/>
      <point x="43" y="347" type="curve" smooth="yes"/>
      <point x="43" y="120"/>
      <point x="164" y="7"/>
      <point x="328" y="-11" type="curve"/>
      <point x="349" y="-37"/>
      <point x="373" y="-64"/>
      <point x="399" y="-87" type="curve" smooth="yes"/>
      <point x="442" y="-127"/>
      <point x="492" y="-159"/>
      <point x="542" y="-159" type="curve" smooth="yes"/>
    </contour>
    <contour>
      <point x="242" y="66"/>
      <point x="170" y="167"/>
      <point x="170" y="347" type="curve" smooth="yes"/>
      <point x="170" y="527"/>
      <point x="242" y="629"/>
      <point x="378" y="629" type="curve" smooth="yes"/>
      <point x="515" y="629"/>
      <point x="586" y="527"/>
      <point x="586" y="347" type="curve" smooth="yes"/>
      <point x="586" y="167"/>
      <point x="515" y="66"/>
      <point x="378" y="66" type="curve" smooth="yes"/>
    </contour>
  </outline>
</glyph>
<glyph name="R" format="1">
  <advance width="712"/>
  <unicode hex="0052"/>
  <note>
	R
  </note>
  <outline>
    <contour>
      <point x="315" y="0" type="line" smooth="yes"/>
      <point x="329" y="0"/>
      <point x="332" y="7"/>
      <point x="332" y="17" type="curve" smooth="yes"/>
      <point x="332" y="35"/>
      <point x="321" y="46"/>
      <point x="294" y="56" type="curve" smooth="yes"/>
      <point x="252" y="72" type="line"/>
      <point x="252" y="302" type="line"/>
      <point x="502" y="0" type="line"/>
      <point x="682" y="0" type="line" smooth="yes"/>
      <point x="695" y="0"/>
      <point x="699" y="7"/>
      <point x="699" y="18" type="curve" smooth="yes"/>
      <point x="699" y="36"/>
      <point x="686" y="46"/>
      <point x="658" y="55" type="curve" smooth="yes"/>
      <point x="610" y="69" type="line"/>
      <point x="400" y="304" type="line"/>
      <point x="536" y="309"/>
      <point x="624" y="372"/>
      <point x="624" y="497" type="curve" smooth="yes"/>
      <point x="624" y="628"/>
      <point x="529" y="695"/>
      <point x="384" y="695" type="curve" smooth="yes"/>
      <point x="70" y="695" type="line" smooth="yes"/>
      <point x="59" y="695"/>
      <point x="51" y="688"/>
      <point x="51" y="670" type="curve" smooth="yes"/>
      <point x="51" y="646"/>
      <point x="70" y="635"/>
      <point x="107" y="626" type="curve" smooth="yes"/>
      <point x="127" y="621" type="line"/>
      <point x="127" y="72" type="line"/>
      <point x="110" y="72" type="line" smooth="yes"/>
      <point x="76" y="72"/>
      <point x="54" y="58"/>
      <point x="54" y="30" type="curve" smooth="yes"/>
      <point x="54" y="11"/>
      <point x="63" y="0"/>
      <point x="79" y="0" type="curve" smooth="yes"/>
    </contour>
    <contour>
      <point x="252" y="620" type="line"/>
      <point x="374" y="620" type="line" smooth="yes"/>
      <point x="453" y="620"/>
      <point x="499" y="575"/>
      <point x="499" y="497" type="curve" smooth="yes"/>
      <point x="499" y="420"/>
      <point x="453" y="375"/>
      <point x="374" y="375" type="curve" smooth="yes"/>
      <point x="252" y="375" type="line"/>
    </contour>
  </outline>
</glyph>
<glyph name="T" format="1">
  <advance width="632"/>
  <unicode hex="0054"/>
  <note>
	T
  </note>
  <outline>
    <contour>
      <point x="442" y="0" type="line" smooth="yes"/>
      <point x="456" y="0"/>
      <point x="459" y="7"/>
      <point x="459" y="17" type="curve" smooth="yes"/>
      <point x="459" y="35"/>
      <point x="448" y="46"/>
      <point x="421" y="56" type="curve" smooth="yes"/>
      <point x="379" y="72" type="line"/>
      <point x="379" y="615" type="line"/>
      <point x="530" y="615" type="line"/>
      <point x="543" y="566" type="line" smooth="yes"/>
      <point x="552" y="534"/>
      <point x="561" y="514"/>
      <point x="583" y="514" type="curve" smooth="yes"/>
      <point x="595" y="514"/>
      <point x="606" y="520"/>
      <point x="606" y="537" type="curve" smooth="yes"/>
      <point x="606" y="695" type="line"/>
      <point x="26" y="695" type="line"/>
      <point x="26" y="537" type="line" smooth="yes"/>
      <point x="26" y="520"/>
      <point x="38" y="514"/>
      <point x="50" y="514" type="curve" smooth="yes"/>
      <point x="71" y="514"/>
      <point x="80" y="534"/>
      <point x="89" y="566" type="curve" smooth="yes"/>
      <point x="102" y="615" type="line"/>
      <point x="254" y="615" type="line"/>
      <point x="254" y="72" type="line"/>
      <point x="237" y="72" type="line" smooth="yes"/>
      <point x="203" y="72"/>
      <point x="181" y="58"/>
      <point x="181" y="30" type="curve" smooth="yes"/>
      <point x="181" y="11"/>
      <point x="190" y="0"/>
      <point x="206" y="0" type="curve" smooth="yes"/>
    </contour>
  </outline>
</glyph>
<glyph name="U" format="1">
  <advance width="807"/>
  <unicode hex="0055"/>
  <note>
	U
  </note>
  <outline>
    <contour>
      <point x="576" y="-14"/>
      <point x="697" y="80"/>
      <point x="697" y="268" type="curve" smooth="yes"/>
      <point x="697" y="624" type="line"/>
      <point x="736" y="643" type="line" smooth="yes"/>
      <point x="759" y="654"/>
      <point x="771" y="666"/>
      <point x="771" y="679" type="curve" smooth="yes"/>
      <point x="771" y="690"/>
      <point x="768" y="695"/>
      <point x="755" y="695" type="curve" smooth="yes"/>
      <point x="573" y="695" type="line" smooth="yes"/>
      <point x="540" y="695"/>
      <point x="518" y="681"/>
      <point x="518" y="653" type="curve" smooth="yes"/>
      <point x="518" y="634"/>
      <point x="527" y="623"/>
      <point x="543" y="623" type="curve" smooth="yes"/>
      <point x="599" y="623" type="line"/>
      <point x="599" y="255" type="line" smooth="yes"/>
      <point x="599" y="131"/>
      <point x="527" y="66"/>
      <point x="415" y="66" type="curve" smooth="yes"/>
      <point x="304" y="66"/>
      <point x="234" y="130"/>
      <point x="234" y="255" type="curve" smooth="yes"/>
      <point x="234" y="623" type="line"/>
      <point x="276" y="639" type="line" smooth="yes"/>
      <point x="303" y="649"/>
      <point x="314" y="660"/>
      <point x="314" y="678" type="curve" smooth="yes"/>
      <point x="314" y="688"/>
      <point x="311" y="695"/>
      <point x="297" y="695" type="curve" smooth="yes"/>
      <point x="91" y="695" type="line" smooth="yes"/>
      <point x="58" y="695"/>
      <point x="36" y="681"/>
      <point x="36" y="653" type="curve" smooth="yes"/>
      <point x="36" y="634"/>
      <point x="45" y="623"/>
      <point x="61" y="623" type="curve" smooth="yes"/>
      <point x="109" y="623" type="line"/>
      <point x="109" y="268" type="line" smooth="yes"/>
      <point x="109" y="84"/>
      <point x="238" y="-14"/>
      <point x="409" y="-14" type="curve" smooth="yes"/>
    </contour>
  </outline>
</glyph>
<glyph name="V" format="1">
  <advance width="768"/>
  <unicode hex="0056"/>
  <note>
	V
  </note>
  <outline>
    <contour>
      <point x="451" y="0" type="line"/>
      <point x="681" y="623" type="line"/>
      <point x="731" y="642" type="line" smooth="yes"/>
      <point x="752" y="650"/>
      <point x="765" y="662"/>
      <point x="765" y="678" type="curve" smooth="yes"/>
      <point x="765" y="688"/>
      <point x="760" y="695"/>
      <point x="748" y="695" type="curve" smooth="yes"/>
      <point x="556" y="695" type="line" smooth="yes"/>
      <point x="523" y="695"/>
      <point x="501" y="681"/>
      <point x="501" y="653" type="curve" smooth="yes"/>
      <point x="501" y="634"/>
      <point x="509" y="623"/>
      <point x="525" y="623" type="curve" smooth="yes"/>
      <point x="585" y="623" type="line"/>
      <point x="409" y="137" type="line" smooth="yes"/>
      <point x="398" y="108"/>
      <point x="395" y="76"/>
      <point x="395" y="76" type="curve" smooth="yes"/>
      <point x="390" y="76" type="line" smooth="yes"/>
      <point x="390" y="76"/>
      <point x="386" y="108"/>
      <point x="376" y="137" type="curve" smooth="yes"/>
      <point x="210" y="623" type="line"/>
      <point x="257" y="637" type="line" smooth="yes"/>
      <point x="286" y="645"/>
      <point x="302" y="657"/>
      <point x="302" y="678" type="curve" smooth="yes"/>
      <point x="302" y="688"/>
      <point x="297" y="695"/>
      <point x="286" y="695" type="curve" smooth="yes"/>
      <point x="59" y="695" type="line" smooth="yes"/>
      <point x="26" y="695"/>
      <point x="4" y="681"/>
      <point x="4" y="653" type="curve" smooth="yes"/>
      <point x="4" y="634"/>
      <point x="13" y="623"/>
      <point x="29" y="623" type="curve" smooth="yes"/>
      <point x="77" y="623" type="line"/>
      <point x="304" y="0" type="line"/>
    </contour>
  </outline>
</glyph>
<glyph name="W" format="1">
  <advance width="1141"/>
  <unicode hex="0057"/>
  <note>
	W
  </note>
  <outline>
    <contour>
      <point x="420" y="0" type="line"/>
      <point x="549" y="482" type="line" smooth="yes"/>
      <point x="559" y="524"/>
      <point x="564" y="585"/>
      <point x="564" y="585" type="curve"/>
      <point x="569" y="585" type="line"/>
      <point x="569" y="585"/>
      <point x="572" y="524"/>
      <point x="584" y="482" type="curve" smooth="yes"/>
      <point x="724" y="0" type="line"/>
      <point x="874" y="0" type="line"/>
      <point x="1052" y="623" type="line"/>
      <point x="1103" y="642" type="line" smooth="yes"/>
      <point x="1124" y="650"/>
      <point x="1136" y="662"/>
      <point x="1136" y="678" type="curve" smooth="yes"/>
      <point x="1136" y="688"/>
      <point x="1132" y="695"/>
      <point x="1119" y="695" type="curve" smooth="yes"/>
      <point x="925" y="695" type="line" smooth="yes"/>
      <point x="892" y="695"/>
      <point x="869" y="681"/>
      <point x="869" y="653" type="curve" smooth="yes"/>
      <point x="869" y="634"/>
      <point x="878" y="623"/>
      <point x="894" y="623" type="curve" smooth="yes"/>
      <point x="959" y="623" type="line"/>
      <point x="831" y="162" type="line" smooth="yes"/>
      <point x="822" y="127"/>
      <point x="818" y="83"/>
      <point x="818" y="83" type="curve" smooth="yes"/>
      <point x="814" y="83" type="line" smooth="yes"/>
      <point x="814" y="83"/>
      <point x="810" y="127"/>
      <point x="800" y="162" type="curve" smooth="yes"/>
      <point x="644" y="695" type="line"/>
      <point x="514" y="695" type="line"/>
      <point x="372" y="162" type="line" smooth="yes"/>
      <point x="363" y="127"/>
      <point x="359" y="83"/>
      <point x="359" y="83" type="curve" smooth="yes"/>
      <point x="355" y="83" type="line" smooth="yes"/>
      <point x="355" y="83"/>
      <point x="351" y="127"/>
      <point x="341" y="162" type="curve" smooth="yes"/>
      <point x="203" y="623" type="line"/>
      <point x="250" y="637" type="line" smooth="yes"/>
      <point x="279" y="645"/>
      <point x="295" y="657"/>
      <point x="295" y="678" type="curve" smooth="yes"/>
      <point x="295" y="688"/>
      <point x="291" y="695"/>
      <point x="279" y="695" type="curve" smooth="yes"/>
      <point x="60" y="695" type="line" smooth="yes"/>
      <point x="27" y="695"/>
      <point x="5" y="681"/>
      <point x="5" y="653" type="curve" smooth="yes"/>
      <point x="5" y="634"/>
      <point x="14" y="623"/>
      <point x="30" y="623" type="curve" smooth="yes"/>
      <point x="78" y="623" type="line"/>
      <point x="270" y="0" type="line"/>
    </contour>
  </outline>
</glyph>
<glyph name="X" format="1">
  <advance width="738"/>
  <unicode hex="0058"/>
  <note>
	X
  </note>
  <outline>
    <contour>
      <point x="260" y="0" type="line" smooth="yes"/>
      <point x="272" y="0"/>
      <point x="277" y="7"/>
      <point x="277" y="17" type="curve" smooth="yes"/>
      <point x="277" y="33"/>
      <point x="264" y="45"/>
      <point x="243" y="53" type="curve" smooth="yes"/>
      <point x="190" y="73" type="line"/>
      <point x="344" y="293" type="line"/>
      <point x="496" y="72" type="line"/>
      <point x="462" y="72" type="line" smooth="yes"/>
      <point x="429" y="72"/>
      <point x="407" y="58"/>
      <point x="407" y="30" type="curve" smooth="yes"/>
      <point x="407" y="11"/>
      <point x="416" y="0"/>
      <point x="432" y="0" type="curve" smooth="yes"/>
      <point x="713" y="0" type="line" smooth="yes"/>
      <point x="725" y="0"/>
      <point x="730" y="7"/>
      <point x="730" y="17" type="curve" smooth="yes"/>
      <point x="730" y="38"/>
      <point x="714" y="50"/>
      <point x="685" y="58" type="curve" smooth="yes"/>
      <point x="652" y="67" type="line"/>
      <point x="443" y="370" type="line"/>
      <point x="623" y="623" type="line"/>
      <point x="672" y="642" type="line" smooth="yes"/>
      <point x="692" y="650"/>
      <point x="705" y="662"/>
      <point x="705" y="678" type="curve" smooth="yes"/>
      <point x="705" y="688"/>
      <point x="701" y="695"/>
      <point x="689" y="695" type="curve" smooth="yes"/>
      <point x="506" y="695" type="line" smooth="yes"/>
      <point x="473" y="695"/>
      <point x="451" y="681"/>
      <point x="451" y="653" type="curve" smooth="yes"/>
      <point x="451" y="634"/>
      <point x="460" y="623"/>
      <point x="476" y="623" type="curve" smooth="yes"/>
      <point x="524" y="623" type="line"/>
      <point x="386" y="429" type="line"/>
      <point x="251" y="628" type="line"/>
      <point x="287" y="637" type="line" smooth="yes"/>
      <point x="316" y="644"/>
      <point x="332" y="657"/>
      <point x="332" y="678" type="curve" smooth="yes"/>
      <point x="332" y="688"/>
      <point x="327" y="695"/>
      <point x="316" y="695" type="curve" smooth="yes"/>
      <point x="87" y="695" type="line" smooth="yes"/>
      <point x="54" y="695"/>
      <point x="32" y="681"/>
      <point x="32" y="653" type="curve" smooth="yes"/>
      <point x="32" y="634"/>
      <point x="41" y="623"/>
      <point x="57" y="623" type="curve" smooth="yes"/>
      <point x="104" y="623" type="line"/>
      <point x="286" y="351" type="line"/>
      <point x="93" y="72" type="line"/>
      <point x="63" y="72" type="line" smooth="yes"/>
      <point x="30" y="72"/>
      <point x="8" y="58"/>
      <point x="8" y="30" type="curve" smooth="yes"/>
      <point x="8" y="11"/>
      <point x="17" y="0"/>
      <point x="33" y="0" type="curve" smooth="yes"/>
    </contour>
  </outline>
</glyph>
<glyph name="Y" format="1">
  <advance width="719"/>
  <unicode hex="0059"/>
  <note>
	Y
  </note>
  <outline>
    <contour>
      <point x="481" y="0" type="line" smooth="yes"/>
      <point x="495" y="0"/>
      <point x="498" y="7"/>
      <point x="498" y="17" type="curve" smooth="yes"/>
      <point x="498" y="35"/>
      <point x="487" y="46"/>
      <point x="460" y="56" type="curve" smooth="yes"/>
      <point x="417" y="72" type="line"/>
      <point x="417" y="302" type="line"/>
      <point x="631" y="623" type="line"/>
      <point x="681" y="642" type="line" smooth="yes"/>
      <point x="702" y="650"/>
      <point x="714" y="662"/>
      <point x="714" y="678" type="curve" smooth="yes"/>
      <point x="714" y="688"/>
      <point x="710" y="695"/>
      <point x="698" y="695" type="curve" smooth="yes"/>
      <point x="515" y="695" type="line" smooth="yes"/>
      <point x="482" y="695"/>
      <point x="460" y="681"/>
      <point x="460" y="653" type="curve" smooth="yes"/>
      <point x="460" y="634"/>
      <point x="468" y="623"/>
      <point x="484" y="623" type="curve" smooth="yes"/>
      <point x="534" y="623" type="line"/>
      <point x="377" y="386" type="line"/>
      <point x="227" y="623" type="line"/>
      <point x="274" y="636" type="line" smooth="yes"/>
      <point x="299" y="643"/>
      <point x="315" y="654"/>
      <point x="315" y="676" type="curve" smooth="yes"/>
      <point x="315" y="687"/>
      <point x="310" y="695"/>
      <point x="298" y="695" type="curve" smooth="yes"/>
      <point x="60" y="695" type="line" smooth="yes"/>
      <point x="27" y="695"/>
      <point x="5" y="681"/>
      <point x="5" y="653" type="curve" smooth="yes"/>
      <point x="5" y="634"/>
      <point x="14" y="623"/>
      <point x="30" y="623" type="curve" smooth="yes"/>
      <point x="77" y="623" type="line"/>
      <point x="292" y="286" type="line"/>
      <point x="292" y="72" type="line"/>
      <point x="276" y="72" type="line" smooth="yes"/>
      <point x="242" y="72"/>
      <point x="220" y="58"/>
      <point x="220" y="30" type="curve" smooth="yes"/>
      <point x="220" y="11"/>
      <point x="229" y="0"/>
      <point x="245" y="0" type="curve" smooth="yes"/>
    </contour>
  </outline>
</glyph>
<glyph name="Z" format="1">
  <advance width="637"/>
  <unicode hex="005A"/>
  <note>
	Z
  </note>
  <outline>
    <contour>
      <point x="593" y="0" type="line"/>
      <point x="593" y="162" type="line" smooth="yes"/>
      <point x="593" y="179"/>
      <point x="581" y="185"/>
      <point x="569" y="185" type="curve" smooth="yes"/>
      <point x="548" y="185"/>
      <point x="538" y="166"/>
      <point x="530" y="133" type="curve" smooth="yes"/>
      <point x="517" y="80" type="line"/>
      <point x="195" y="80" type="line"/>
      <point x="582" y="612" type="line"/>
      <point x="582" y="695" type="line"/>
      <point x="58" y="695" type="line"/>
      <point x="58" y="533" type="line" smooth="yes"/>
      <point x="58" y="516"/>
      <point x="69" y="510"/>
      <point x="82" y="510" type="curve" smooth="yes"/>
      <point x="103" y="510"/>
      <point x="113" y="529"/>
      <point x="121" y="563" type="curve" smooth="yes"/>
      <point x="134" y="615" type="line"/>
      <point x="430" y="615" type="line"/>
      <point x="42" y="83" type="line"/>
      <point x="42" y="0" type="line"/>
    </contour>
  </outline>
</glyph>
<glyph name="bracketleft" format="1">
  <advance width="321"/>
  <unicode hex="005B"/>
  <note>
	bracketleft
  </note>
  <outline>
    <contour>
      <point x="280" y="-150" type="line"/>
      <point x="280" y="-70" type="line"/>
      <point x="171" y="-70" type="line"/>
      <point x="171" y="693" type="line"/>
      <point x="280" y="693" type="line"/>
      <point x="280" y="772" type="line"/>
      <point x="54" y="772" type="line"/>
      <point x="54" y="-150" type="line"/>
    </contour>
  </outline>
</glyph>
<glyph name="backslash" format="1">
  <advance width="388"/>
  <unicode hex="005C"/>
  <note>
	backslash
  </note>
  <outline>
    <contour>
      <point x="421" y="-92" type="line"/>
      <point x="75" y="758" type="line"/>
      <point x="-34" y="716" type="line"/>
      <point x="312" y="-134" type="line"/>
    </contour>
  </outline>
</glyph>
<glyph name="bracketright" format="1">
  <advance width="321"/>
  <unicode hex="005D"/>
  <note>
	bracketright
  </note>
  <outline>
    <contour>
      <point x="267" y="-150" type="line"/>
      <point x="267" y="772" type="line"/>
      <point x="41" y="772" type="line"/>
      <point x="41" y="693" type="line"/>
      <point x="150" y="693" type="line"/>
      <point x="150" y="-70" type="line"/>
      <point x="41" y="-70" type="line"/>
      <point x="41" y="-150" type="line"/>
    </contour>
  </outline>
</glyph>
<glyph name="asciicircum" format="1">
  <advance width="584"/>
  <unicode hex="005E"/>
  <note>
	asciicircum
  </note>
  <outline>
    <contour>
      <point x="292" y="544" type="line"/>
      <point x="437" y="305" type="line"/>
      <point x="527" y="357" type="line"/>
      <point x="328" y="679" type="line"/>
      <point x="256" y="679" type="line"/>
      <point x="56" y="357" type="line"/>
      <point x="146" y="305" type="line"/>
    </contour>
  </outline>
</glyph>
<glyph name="underscore" format="1">
  <advance width="487"/>
  <unicode hex="005F"/>
  <note>
	underscore
  </note>
  <outline>
    <contour>
      <point x="502" y="-214" type="line"/>
      <point x="502" y="-118" type="line"/>
      <point x="-15" y="-118" type="line"/>
      <point x="-15" y="-214" type="line"/>
    </contour>
  </outline>
</glyph>
<glyph name="grave" format="1">
  <advance width="323"/>
  <unicode hex="0060"/>
  <note>
	grave
  </note>
  <outline>
    <contour>
      <point x="257" y="582" type="line"/>
      <point x="155" y="755" type="line"/>
      <point x="66" y="697" type="line"/>
      <point x="190" y="538" type="line"/>
    </contour>
  </outline>
</glyph>
<glyph name="b" format="1">
  <advance width="606"/>
  <unicode hex="0062"/>
  <note>
	b
  </note>
  <outline>
    <contour>
      <point x="452" y="-14"/>
      <point x="572" y="65"/>
      <point x="572" y="240" type="curve" smooth="yes"/>
      <point x="572" y="424"/>
      <point x="469" y="501"/>
      <point x="351" y="501" type="curve" smooth="yes"/>
      <point x="292" y="501"/>
      <point x="239" y="477"/>
      <point x="200" y="440" type="curve"/>
      <point x="197" y="441" type="line"/>
      <point x="197" y="710" type="line"/>
      <point x="67" y="710" type="line" smooth="yes"/>
      <point x="35" y="710"/>
      <point x="14" y="697"/>
      <point x="14" y="670" type="curve" smooth="yes"/>
      <point x="14" y="652"/>
      <point x="22" y="642"/>
      <point x="37" y="642" type="curve" smooth="yes"/>
      <point x="83" y="642" type="line"/>
      <point x="83" y="46" type="line"/>
      <point x="148" y="9"/>
      <point x="233" y="-14"/>
      <point x="310" y="-14" type="curve" smooth="yes"/>
    </contour>
    <contour>
      <point x="273" y="58"/>
      <point x="231" y="67"/>
      <point x="199" y="85" type="curve"/>
      <point x="199" y="322" type="line" smooth="yes"/>
      <point x="199" y="387"/>
      <point x="258" y="429"/>
      <point x="319" y="429" type="curve" smooth="yes"/>
      <point x="401" y="429"/>
      <point x="455" y="374"/>
      <point x="455" y="239" type="curve" smooth="yes"/>
      <point x="455" y="114"/>
      <point x="400" y="58"/>
      <point x="306" y="58" type="curve" smooth="yes"/>
    </contour>
  </outline>
</glyph>
<glyph name="c" format="1">
  <advance width="498"/>
  <unicode hex="0063"/>
  <note>
	c
  </note>
  <outline>
    <contour>
      <point x="342" y="-14"/>
      <point x="389" y="-2"/>
      <point x="427" y="21" type="curve" smooth="yes"/>
      <point x="452" y="36"/>
      <point x="467" y="52"/>
      <point x="467" y="72" type="curve" smooth="yes"/>
      <point x="467" y="93"/>
      <point x="454" y="106"/>
      <point x="438" y="106" type="curve" smooth="yes"/>
      <point x="430" y="106"/>
      <point x="424" y="104"/>
      <point x="411" y="94" type="curve" smooth="yes"/>
      <point x="377" y="69"/>
      <point x="345" y="58"/>
      <point x="301" y="58" type="curve" smooth="yes"/>
      <point x="214" y="58"/>
      <point x="149" y="119"/>
      <point x="149" y="244" type="curve" smooth="yes"/>
      <point x="149" y="370"/>
      <point x="214" y="428"/>
      <point x="294" y="428" type="curve" smooth="yes"/>
      <point x="331" y="428"/>
      <point x="366" y="418"/>
      <point x="388" y="402" type="curve"/>
      <point x="399" y="355" type="line" smooth="yes"/>
      <point x="404" y="331"/>
      <point x="415" y="317"/>
      <point x="436" y="317" type="curve" smooth="yes"/>
      <point x="452" y="317"/>
      <point x="459" y="325"/>
      <point x="459" y="336" type="curve" smooth="yes"/>
      <point x="459" y="440" type="line"/>
      <point x="425" y="469"/>
      <point x="356" y="501"/>
      <point x="279" y="501" type="curve" smooth="yes"/>
      <point x="147" y="501"/>
      <point x="32" y="416"/>
      <point x="32" y="245" type="curve" smooth="yes"/>
      <point x="32" y="81"/>
      <point x="140" y="-14"/>
      <point x="292" y="-14" type="curve" smooth="yes"/>
    </contour>
  </outline>
</glyph>
<glyph name="f" format="1">
  <advance width="466"/>
  <unicode hex="0066"/>
  <note>
	f
  </note>
  <outline>
    <contour>
      <point x="294" y="0" type="line" smooth="yes"/>
      <point x="306" y="0"/>
      <point x="309" y="7"/>
      <point x="309" y="17" type="curve" smooth="yes"/>
      <point x="309" y="33"/>
      <point x="298" y="42"/>
      <point x="273" y="52" type="curve" smooth="yes"/>
      <point x="233" y="68" type="line"/>
      <point x="233" y="414" type="line"/>
      <point x="322" y="423" type="line" smooth="yes"/>
      <point x="366" y="428"/>
      <point x="384" y="443"/>
      <point x="384" y="468" type="curve" smooth="yes"/>
      <point x="384" y="480"/>
      <point x="378" y="487"/>
      <point x="366" y="487" type="curve" smooth="yes"/>
      <point x="233" y="487" type="line"/>
      <point x="233" y="555" type="line" smooth="yes"/>
      <point x="233" y="619"/>
      <point x="271" y="648"/>
      <point x="320" y="648" type="curve" smooth="yes"/>
      <point x="345" y="648"/>
      <point x="370" y="642"/>
      <point x="393" y="628" type="curve"/>
      <point x="404" y="585" type="line" smooth="yes"/>
      <point x="411" y="560"/>
      <point x="421" y="546"/>
      <point x="442" y="546" type="curve" smooth="yes"/>
      <point x="457" y="546"/>
      <point x="464" y="555"/>
      <point x="464" y="565" type="curve" smooth="yes"/>
      <point x="464" y="664" type="line"/>
      <point x="426" y="696"/>
      <point x="365" y="721"/>
      <point x="292" y="721" type="curve" smooth="yes"/>
      <point x="196" y="721"/>
      <point x="116" y="668"/>
      <point x="116" y="550" type="curve" smooth="yes"/>
      <point x="116" y="487" type="line"/>
      <point x="91" y="487" type="line" smooth="yes"/>
      <point x="59" y="487"/>
      <point x="38" y="472"/>
      <point x="38" y="444" type="curve" smooth="yes"/>
      <point x="38" y="426"/>
      <point x="47" y="414"/>
      <point x="63" y="414" type="curve" smooth="yes"/>
      <point x="116" y="414" type="line"/>
      <point x="116" y="68" type="line"/>
      <point x="100" y="68" type="line" smooth="yes"/>
      <point x="68" y="68"/>
      <point x="47" y="56"/>
      <point x="47" y="28" type="curve" smooth="yes"/>
      <point x="47" y="10"/>
      <point x="55" y="0"/>
      <point x="70" y="0" type="curve" smooth="yes"/>
    </contour>
  </outline>
</glyph>
<glyph name="h" format="1">
  <advance width="654"/>
  <unicode hex="0068"/>
  <note>
	h
  </note>
  <outline>
    <contour>
      <point x="291" y="0" type="line" smooth="yes"/>
      <point x="303" y="0"/>
      <point x="306" y="7"/>
      <point x="306" y="17" type="curve" smooth="yes"/>
      <point x="306" y="33"/>
      <point x="295" y="41"/>
      <point x="270" y="52" type="curve" smooth="yes"/>
      <point x="230" y="68" type="line"/>
      <point x="230" y="360" type="line"/>
      <point x="265" y="398"/>
      <point x="313" y="427"/>
      <point x="359" y="427" type="curve" smooth="yes"/>
      <point x="418" y="427"/>
      <point x="446" y="391"/>
      <point x="446" y="338" type="curve"/>
      <point x="446" y="68" type="line"/>
      <point x="429" y="68" type="line" smooth="yes"/>
      <point x="397" y="68"/>
      <point x="376" y="56"/>
      <point x="376" y="28" type="curve" smooth="yes"/>
      <point x="376" y="10"/>
      <point x="384" y="0"/>
      <point x="399" y="0" type="curve" smooth="yes"/>
      <point x="623" y="0" type="line" smooth="yes"/>
      <point x="635" y="0"/>
      <point x="638" y="7"/>
      <point x="638" y="17" type="curve" smooth="yes"/>
      <point x="638" y="33"/>
      <point x="627" y="41"/>
      <point x="602" y="52" type="curve" smooth="yes"/>
      <point x="563" y="68" type="line"/>
      <point x="563" y="346" type="line" smooth="yes"/>
      <point x="563" y="444"/>
      <point x="492" y="501"/>
      <point x="398" y="501" type="curve" smooth="yes"/>
      <point x="333" y="501"/>
      <point x="276" y="469"/>
      <point x="230" y="428" type="curve"/>
      <point x="226" y="428" type="line"/>
      <point x="226" y="710" type="line"/>
      <point x="97" y="710" type="line" smooth="yes"/>
      <point x="65" y="710"/>
      <point x="44" y="697"/>
      <point x="44" y="670" type="curve" smooth="yes"/>
      <point x="44" y="652"/>
      <point x="52" y="642"/>
      <point x="67" y="642" type="curve" smooth="yes"/>
      <point x="113" y="642" type="line"/>
      <point x="113" y="68" type="line"/>
      <point x="97" y="68" type="line" smooth="yes"/>
      <point x="65" y="68"/>
      <point x="44" y="56"/>
      <point x="44" y="28" type="curve" smooth="yes"/>
      <point x="44" y="10"/>
      <point x="52" y="0"/>
      <point x="67" y="0" type="curve" smooth="yes"/>
    </contour>
  </outline>
</glyph>
<glyph name="i" format="1">
  <advance width="311"/>
  <unicode hex="0069"/>
  <note>
	i
  </note>
  <outline>
    <contour>
      <point x="283" y="0" type="line" smooth="yes"/>
      <point x="295" y="0"/>
      <point x="298" y="7"/>
      <point x="298" y="17" type="curve" smooth="yes"/>
      <point x="298" y="33"/>
      <point x="287" y="41"/>
      <point x="262" y="52" type="curve" smooth="yes"/>
      <point x="222" y="68" type="line"/>
      <point x="222" y="491" type="line"/>
      <point x="89" y="491" type="line" smooth="yes"/>
      <point x="57" y="491"/>
      <point x="36" y="478"/>
      <point x="36" y="451" type="curve" smooth="yes"/>
      <point x="36" y="433"/>
      <point x="44" y="423"/>
      <point x="59" y="423" type="curve" smooth="yes"/>
      <point x="105" y="423" type="line"/>
      <point x="105" y="68" type="line"/>
      <point x="89" y="68" type="line" smooth="yes"/>
      <point x="57" y="68"/>
      <point x="36" y="56"/>
      <point x="36" y="28" type="curve" smooth="yes"/>
      <point x="36" y="10"/>
      <point x="44" y="0"/>
      <point x="59" y="0" type="curve" smooth="yes"/>
    </contour>
    <contour>
      <point x="204" y="562"/>
      <point x="239" y="591"/>
      <point x="239" y="639" type="curve" smooth="yes"/>
      <point x="239" y="687"/>
      <point x="204" y="716"/>
      <point x="161" y="716" type="curve" smooth="yes"/>
      <point x="118" y="716"/>
      <point x="84" y="687"/>
      <point x="84" y="639" type="curve" smooth="yes"/>
      <point x="84" y="591"/>
      <point x="118" y="562"/>
      <point x="161" y="562" type="curve" smooth="yes"/>
    </contour>
  </outline>
</glyph>
<glyph name="j" format="1">
  <advance width="346"/>
  <unicode hex="006A"/>
  <note>
	j
  </note>
  <outline>
    <contour>
      <point x="98" y="-236"/>
      <point x="119" y="-230"/>
      <point x="147" y="-214" type="curve" smooth="yes"/>
      <point x="204" y="-180"/>
      <point x="278" y="-110"/>
      <point x="278" y="30" type="curve" smooth="yes"/>
      <point x="278" y="491" type="line"/>
      <point x="144" y="491" type="line" smooth="yes"/>
      <point x="113" y="491"/>
      <point x="91" y="478"/>
      <point x="91" y="451" type="curve" smooth="yes"/>
      <point x="91" y="433"/>
      <point x="99" y="423"/>
      <point x="114" y="423" type="curve" smooth="yes"/>
      <point x="161" y="423" type="line"/>
      <point x="161" y="39" type="line" smooth="yes"/>
      <point x="161" y="-71"/>
      <point x="111" y="-115"/>
      <point x="3" y="-153" type="curve"/>
      <point x="6" y="-213"/>
      <point x="35" y="-236"/>
      <point x="73" y="-236" type="curve" smooth="yes"/>
    </contour>
    <contour>
      <point x="261" y="562"/>
      <point x="296" y="591"/>
      <point x="296" y="639" type="curve" smooth="yes"/>
      <point x="296" y="687"/>
      <point x="261" y="716"/>
      <point x="218" y="716" type="curve" smooth="yes"/>
      <point x="175" y="716"/>
      <point x="141" y="687"/>
      <point x="141" y="639" type="curve" smooth="yes"/>
      <point x="141" y="591"/>
      <point x="175" y="562"/>
      <point x="218" y="562" type="curve" smooth="yes"/>
    </contour>
  </outline>
</glyph>
<glyph name="k" format="1">
  <advance width="635"/>
  <unicode hex="006B"/>
  <note>
	k
  </note>
  <outline>
    <contour>
      <point x="600" y="0" type="line" smooth="yes"/>
      <point x="613" y="0"/>
      <point x="617" y="7"/>
      <point x="617" y="18" type="curve" smooth="yes"/>
      <point x="617" y="36"/>
      <point x="603" y="46"/>
      <point x="576" y="55" type="curve" smooth="yes"/>
      <point x="529" y="69" type="line"/>
      <point x="355" y="273" type="line"/>
      <point x="509" y="419" type="line"/>
      <point x="544" y="429" type="line" smooth="yes"/>
      <point x="572" y="438"/>
      <point x="586" y="450"/>
      <point x="586" y="467" type="curve" smooth="yes"/>
      <point x="586" y="484"/>
      <point x="579" y="491"/>
      <point x="566" y="491" type="curve" smooth="yes"/>
      <point x="380" y="491" type="line" smooth="yes"/>
      <point x="347" y="491"/>
      <point x="324" y="478"/>
      <point x="324" y="449" type="curve" smooth="yes"/>
      <point x="324" y="430"/>
      <point x="333" y="419"/>
      <point x="349" y="419" type="curve" smooth="yes"/>
      <point x="409" y="419" type="line"/>
      <point x="230" y="254" type="line"/>
      <point x="435" y="0" type="line"/>
    </contour>
    <contour>
      <point x="289" y="0" type="line" smooth="yes"/>
      <point x="301" y="0"/>
      <point x="305" y="7"/>
      <point x="305" y="17" type="curve" smooth="yes"/>
      <point x="305" y="32"/>
      <point x="295" y="41"/>
      <point x="269" y="52" type="curve" smooth="yes"/>
      <point x="230" y="68" type="line"/>
      <point x="230" y="710" type="line"/>
      <point x="97" y="710" type="line" smooth="yes"/>
      <point x="65" y="710"/>
      <point x="44" y="697"/>
      <point x="44" y="670" type="curve" smooth="yes"/>
      <point x="44" y="652"/>
      <point x="52" y="642"/>
      <point x="67" y="642" type="curve" smooth="yes"/>
      <point x="113" y="642" type="line"/>
      <point x="113" y="68" type="line"/>
      <point x="97" y="68" type="line" smooth="yes"/>
      <point x="65" y="68"/>
      <point x="44" y="56"/>
      <point x="44" y="28" type="curve" smooth="yes"/>
      <point x="44" y="10"/>
      <point x="52" y="0"/>
      <point x="67" y="0" type="curve" smooth="yes"/>
    </contour>
  </outline>
</glyph>
<glyph name="m" format="1">
  <advance width="949"/>
  <unicode hex="006D"/>
  <note>
	m
  </note>
  <outline>
    <contour>
      <point x="285" y="0" type="line" smooth="yes"/>
      <point x="297" y="0"/>
      <point x="301" y="7"/>
      <point x="301" y="17" type="curve" smooth="yes"/>
      <point x="301" y="32"/>
      <point x="292" y="43"/>
      <point x="267" y="52" type="curve" smooth="yes"/>
      <point x="227" y="67" type="line"/>
      <point x="227" y="363" type="line"/>
      <point x="259" y="396"/>
      <point x="303" y="425"/>
      <point x="349" y="425" type="curve" smooth="yes"/>
      <point x="403" y="425"/>
      <point x="427" y="395"/>
      <point x="427" y="339" type="curve" smooth="yes"/>
      <point x="427" y="68" type="line"/>
      <point x="414" y="68" type="line" smooth="yes"/>
      <point x="382" y="68"/>
      <point x="361" y="56"/>
      <point x="361" y="28" type="curve" smooth="yes"/>
      <point x="361" y="10"/>
      <point x="369" y="0"/>
      <point x="384" y="0" type="curve" smooth="yes"/>
      <point x="602" y="0" type="line" smooth="yes"/>
      <point x="614" y="0"/>
      <point x="618" y="7"/>
      <point x="618" y="17" type="curve" smooth="yes"/>
      <point x="618" y="32"/>
      <point x="609" y="43"/>
      <point x="584" y="52" type="curve" smooth="yes"/>
      <point x="544" y="67" type="line"/>
      <point x="544" y="364" type="line"/>
      <point x="575" y="396"/>
      <point x="620" y="425"/>
      <point x="666" y="425" type="curve" smooth="yes"/>
      <point x="719" y="425"/>
      <point x="744" y="395"/>
      <point x="744" y="339" type="curve" smooth="yes"/>
      <point x="744" y="68" type="line"/>
      <point x="730" y="68" type="line" smooth="yes"/>
      <point x="698" y="68"/>
      <point x="677" y="56"/>
      <point x="677" y="28" type="curve" smooth="yes"/>
      <point x="677" y="10"/>
      <point x="685" y="0"/>
      <point x="700" y="0" type="curve" smooth="yes"/>
      <point x="918" y="0" type="line" smooth="yes"/>
      <point x="930" y="0"/>
      <point x="934" y="7"/>
      <point x="934" y="17" type="curve" smooth="yes"/>
      <point x="934" y="32"/>
      <point x="925" y="43"/>
      <point x="900" y="52" type="curve" smooth="yes"/>
      <point x="861" y="67" type="line"/>
      <point x="861" y="350" type="line" smooth="yes"/>
      <point x="861" y="448"/>
      <point x="793" y="501"/>
      <point x="706" y="501" type="curve" smooth="yes"/>
      <point x="634" y="501"/>
      <point x="574" y="462"/>
      <point x="529" y="421" type="curve"/>
      <point x="505" y="474"/>
      <point x="454" y="501"/>
      <point x="391" y="501" type="curve" smooth="yes"/>
      <point x="327" y="501"/>
      <point x="270" y="466"/>
      <point x="225" y="428" type="curve"/>
      <point x="222" y="428" type="line"/>
      <point x="222" y="491" type="line"/>
      <point x="94" y="491" type="line" smooth="yes"/>
      <point x="62" y="491"/>
      <point x="41" y="478"/>
      <point x="41" y="451" type="curve" smooth="yes"/>
      <point x="41" y="433"/>
      <point x="49" y="423"/>
      <point x="64" y="423" type="curve" smooth="yes"/>
      <point x="110" y="423" type="line"/>
      <point x="110" y="68" type="line"/>
      <point x="94" y="68" type="line" smooth="yes"/>
      <point x="62" y="68"/>
      <point x="41" y="56"/>
      <point x="41" y="28" type="curve" smooth="yes"/>
      <point x="41" y="10"/>
      <point x="49" y="0"/>
      <point x="64" y="0" type="curve" smooth="yes"/>
    </contour>
  </outline>
</glyph>
<glyph name="o" format="1">
  <advance width="559"/>
  <unicode hex="006F"/>
  <note>
	o
  </note>
  <outline>
    <contour>
      <point x="416" y="-14"/>
      <point x="526" y="71"/>
      <point x="526" y="244" type="curve" smooth="yes"/>
      <point x="526" y="417"/>
      <point x="416" y="501"/>
      <point x="280" y="501" type="curve" smooth="yes"/>
      <point x="143" y="501"/>
      <point x="33" y="417"/>
      <point x="33" y="244" type="curve" smooth="yes"/>
      <point x="33" y="71"/>
      <point x="143" y="-14"/>
      <point x="280" y="-14" type="curve" smooth="yes"/>
    </contour>
    <contour>
      <point x="197" y="58"/>
      <point x="151" y="124"/>
      <point x="151" y="244" type="curve" smooth="yes"/>
      <point x="151" y="363"/>
      <point x="197" y="429"/>
      <point x="280" y="429" type="curve" smooth="yes"/>
      <point x="363" y="429"/>
      <point x="409" y="363"/>
      <point x="409" y="244" type="curve" smooth="yes"/>
      <point x="409" y="124"/>
      <point x="363" y="58"/>
      <point x="280" y="58" type="curve" smooth="yes"/>
    </contour>
  </outline>
</glyph>
<glyph name="p" format="1">
  <advance width="638"/>
  <unicode hex="0070"/>
  <note>
	p
  </note>
  <outline>
    <contour>
      <point x="290" y="-213" type="line" smooth="yes"/>
      <point x="302" y="-213"/>
      <point x="305" y="-206"/>
      <point x="305" y="-196" type="curve" smooth="yes"/>
      <point x="305" y="-180"/>
      <point x="298" y="-172"/>
      <point x="270" y="-161" type="curve" smooth="yes"/>
      <point x="229" y="-145" type="line"/>
      <point x="229" y="14" type="line"/>
      <point x="266" y="-3"/>
      <point x="317" y="-14"/>
      <point x="355" y="-14" type="curve" smooth="yes"/>
      <point x="502" y="-14"/>
      <point x="604" y="73"/>
      <point x="604" y="240" type="curve" smooth="yes"/>
      <point x="604" y="424"/>
      <point x="496" y="501"/>
      <point x="378" y="501" type="curve" smooth="yes"/>
      <point x="319" y="501"/>
      <point x="269" y="477"/>
      <point x="230" y="439" type="curve"/>
      <point x="227" y="441" type="line"/>
      <point x="227" y="491" type="line"/>
      <point x="97" y="491" type="line" smooth="yes"/>
      <point x="65" y="491"/>
      <point x="44" y="478"/>
      <point x="44" y="451" type="curve" smooth="yes"/>
      <point x="44" y="433"/>
      <point x="52" y="423"/>
      <point x="67" y="423" type="curve" smooth="yes"/>
      <point x="113" y="423" type="line"/>
      <point x="113" y="-145" type="line"/>
      <point x="97" y="-145" type="line" smooth="yes"/>
      <point x="65" y="-145"/>
      <point x="44" y="-157"/>
      <point x="44" y="-185" type="curve" smooth="yes"/>
      <point x="44" y="-203"/>
      <point x="52" y="-213"/>
      <point x="67" y="-213" type="curve" smooth="yes"/>
    </contour>
    <contour>
      <point x="304" y="58"/>
      <point x="259" y="69"/>
      <point x="229" y="86" type="curve"/>
      <point x="229" y="322" type="line" smooth="yes"/>
      <point x="229" y="387"/>
      <point x="288" y="429"/>
      <point x="349" y="429" type="curve" smooth="yes"/>
      <point x="431" y="429"/>
      <point x="487" y="374"/>
      <point x="487" y="239" type="curve" smooth="yes"/>
      <point x="487" y="114"/>
      <point x="431" y="58"/>
      <point x="336" y="58" type="curve" smooth="yes"/>
    </contour>
  </outline>
</glyph>
<glyph name="q" format="1">
  <advance width="610"/>
  <unicode hex="0071"/>
  <note>
	q
  </note>
  <outline>
    <contour>
      <point x="581" y="-213" type="line" smooth="yes"/>
      <point x="593" y="-213"/>
      <point x="596" y="-206"/>
      <point x="596" y="-196" type="curve" smooth="yes"/>
      <point x="596" y="-180"/>
      <point x="587" y="-171"/>
      <point x="561" y="-161" type="curve" smooth="yes"/>
      <point x="522" y="-146" type="line"/>
      <point x="522" y="491" type="line"/>
      <point x="441" y="491" type="line" smooth="yes"/>
      <point x="425" y="491"/>
      <point x="413" y="482"/>
      <point x="408" y="466" type="curve"/>
      <point x="368" y="488"/>
      <point x="323" y="501"/>
      <point x="276" y="501" type="curve" smooth="yes"/>
      <point x="141" y="501"/>
      <point x="32" y="403"/>
      <point x="32" y="240" type="curve" smooth="yes"/>
      <point x="32" y="63"/>
      <point x="141" y="-14"/>
      <point x="261" y="-14" type="curve" smooth="yes"/>
      <point x="329" y="-14"/>
      <point x="378" y="14"/>
      <point x="407" y="51" type="curve"/>
      <point x="411" y="51" type="line"/>
      <point x="411" y="-145" type="line"/>
      <point x="383" y="-145" type="line" smooth="yes"/>
      <point x="352" y="-145"/>
      <point x="330" y="-157"/>
      <point x="330" y="-185" type="curve" smooth="yes"/>
      <point x="330" y="-203"/>
      <point x="338" y="-213"/>
      <point x="353" y="-213" type="curve" smooth="yes"/>
    </contour>
    <contour>
      <point x="205" y="58"/>
      <point x="149" y="118"/>
      <point x="149" y="241" type="curve" smooth="yes"/>
      <point x="149" y="365"/>
      <point x="216" y="429"/>
      <point x="297" y="429" type="curve" smooth="yes"/>
      <point x="337" y="429"/>
      <point x="379" y="414"/>
      <point x="406" y="393" type="curve"/>
      <point x="406" y="171" type="line" smooth="yes"/>
      <point x="406" y="101"/>
      <point x="355" y="58"/>
      <point x="288" y="58" type="curve" smooth="yes"/>
    </contour>
  </outline>
</glyph>
<glyph name="r" format="1">
  <advance width="461"/>
  <unicode hex="0072"/>
  <note>
	r
  </note>
  <outline>
    <contour>
      <point x="288" y="0" type="line" smooth="yes"/>
      <point x="300" y="0"/>
      <point x="303" y="7"/>
      <point x="303" y="17" type="curve" smooth="yes"/>
      <point x="303" y="33"/>
      <point x="292" y="41"/>
      <point x="267" y="52" type="curve" smooth="yes"/>
      <point x="227" y="68" type="line"/>
      <point x="227" y="315" type="line"/>
      <point x="290" y="366"/>
      <point x="358" y="391"/>
      <point x="436" y="391" type="curve"/>
      <point x="447" y="403"/>
      <point x="456" y="424"/>
      <point x="456" y="444" type="curve" smooth="yes"/>
      <point x="456" y="475"/>
      <point x="436" y="501"/>
      <point x="395" y="501" type="curve" smooth="yes"/>
      <point x="336" y="501"/>
      <point x="269" y="448"/>
      <point x="225" y="390" type="curve"/>
      <point x="222" y="390" type="line"/>
      <point x="222" y="491" type="line"/>
      <point x="94" y="491" type="line" smooth="yes"/>
      <point x="62" y="491"/>
      <point x="41" y="478"/>
      <point x="41" y="451" type="curve" smooth="yes"/>
      <point x="41" y="433"/>
      <point x="49" y="423"/>
      <point x="64" y="423" type="curve" smooth="yes"/>
      <point x="110" y="423" type="line"/>
      <point x="110" y="68" type="line"/>
      <point x="94" y="68" type="line" smooth="yes"/>
      <point x="62" y="68"/>
      <point x="41" y="56"/>
      <point x="41" y="28" type="curve" smooth="yes"/>
      <point x="41" y="10"/>
      <point x="49" y="0"/>
      <point x="64" y="0" type="curve" smooth="yes"/>
    </contour>
  </outline>
</glyph>
<glyph name="v" format="1">
  <advance width="592"/>
  <unicode hex="0076"/>
  <note>
	v
  </note>
  <outline>
    <contour>
      <point x="364" y="0" type="line"/>
      <point x="519" y="422" type="line"/>
      <point x="558" y="439" type="line" smooth="yes"/>
      <point x="577" y="448"/>
      <point x="594" y="458"/>
      <point x="594" y="474" type="curve" smooth="yes"/>
      <point x="594" y="484"/>
      <point x="590" y="491"/>
      <point x="578" y="491" type="curve" smooth="yes"/>
      <point x="408" y="491" type="line" smooth="yes"/>
      <point x="377" y="491"/>
      <point x="356" y="478"/>
      <point x="356" y="451" type="curve" smooth="yes"/>
      <point x="356" y="433"/>
      <point x="364" y="423"/>
      <point x="379" y="423" type="curve" smooth="yes"/>
      <point x="433" y="423" type="line"/>
      <point x="317" y="101" type="line" smooth="yes"/>
      <point x="310" y="83"/>
      <point x="305" y="53"/>
      <point x="305" y="53" type="curve" smooth="yes"/>
      <point x="301" y="53" type="line" smooth="yes"/>
      <point x="301" y="53"/>
      <point x="296" y="83"/>
      <point x="289" y="101" type="curve"/>
      <point x="180" y="422" type="line"/>
      <point x="224" y="439" type="line" smooth="yes"/>
      <point x="245" y="447"/>
      <point x="260" y="458"/>
      <point x="260" y="474" type="curve" smooth="yes"/>
      <point x="260" y="484"/>
      <point x="257" y="491"/>
      <point x="244" y="491" type="curve" smooth="yes"/>
      <point x="50" y="491" type="line" smooth="yes"/>
      <point x="19" y="491"/>
      <point x="-2" y="478"/>
      <point x="-2" y="451" type="curve" smooth="yes"/>
      <point x="-2" y="433"/>
      <point x="6" y="423"/>
      <point x="21" y="423" type="curve" smooth="yes"/>
      <point x="59" y="423" type="line"/>
      <point x="213" y="0" type="line"/>
    </contour>
  </outline>
</glyph>
<glyph name="w" format="1">
  <advance width="902"/>
  <unicode hex="0077"/>
  <note>
	w
  </note>
  <outline>
    <contour>
      <point x="340" y="0" type="line"/>
      <point x="432" y="347" type="line" smooth="yes"/>
      <point x="440" y="378"/>
      <point x="443" y="423"/>
      <point x="443" y="423" type="curve"/>
      <point x="447" y="423" type="line"/>
      <point x="447" y="423"/>
      <point x="449" y="378"/>
      <point x="458" y="347" type="curve" smooth="yes"/>
      <point x="558" y="0" type="line"/>
      <point x="709" y="0" type="line"/>
      <point x="830" y="422" type="line"/>
      <point x="868" y="439" type="line" smooth="yes"/>
      <point x="887" y="448"/>
      <point x="904" y="458"/>
      <point x="904" y="474" type="curve" smooth="yes"/>
      <point x="904" y="484"/>
      <point x="901" y="491"/>
      <point x="889" y="491" type="curve" smooth="yes"/>
      <point x="719" y="491" type="line" smooth="yes"/>
      <point x="688" y="491"/>
      <point x="666" y="478"/>
      <point x="666" y="451" type="curve" smooth="yes"/>
      <point x="666" y="433"/>
      <point x="674" y="423"/>
      <point x="690" y="423" type="curve" smooth="yes"/>
      <point x="746" y="423" type="line"/>
      <point x="662" y="115" type="line" smooth="yes"/>
      <point x="655" y="90"/>
      <point x="653" y="60"/>
      <point x="653" y="60" type="curve" smooth="yes"/>
      <point x="649" y="60" type="line" smooth="yes"/>
      <point x="649" y="60"/>
      <point x="647" y="90"/>
      <point x="640" y="115" type="curve" smooth="yes"/>
      <point x="530" y="491" type="line"/>
      <point x="388" y="491" type="line"/>
      <point x="289" y="115" type="line" smooth="yes"/>
      <point x="282" y="90"/>
      <point x="280" y="60"/>
      <point x="280" y="60" type="curve" smooth="yes"/>
      <point x="276" y="60" type="line" smooth="yes"/>
      <point x="276" y="60"/>
      <point x="274" y="90"/>
      <point x="267" y="115" type="curve" smooth="yes"/>
      <point x="174" y="422" type="line"/>
      <point x="224" y="439" type="line" smooth="yes"/>
      <point x="247" y="447"/>
      <point x="260" y="458"/>
      <point x="260" y="474" type="curve" smooth="yes"/>
      <point x="260" y="484"/>
      <point x="257" y="491"/>
      <point x="244" y="491" type="curve" smooth="yes"/>
      <point x="50" y="491" type="line" smooth="yes"/>
      <point x="19" y="491"/>
      <point x="-2" y="478"/>
      <point x="-2" y="451" type="curve" smooth="yes"/>
      <point x="-2" y="433"/>
      <point x="6" y="423"/>
      <point x="21" y="423" type="curve" smooth="yes"/>
      <point x="59" y="423" type="line"/>
      <point x="189" y="0" type="line"/>
    </contour>
  </outline>
</glyph>
<glyph name="x" format="1">
  <advance width="566"/>
  <unicode hex="0078"/>
  <note>
	x
  </note>
  <outline>
    <contour>
      <point x="220" y="0" type="line" smooth="yes"/>
      <point x="230" y="0"/>
      <point x="233" y="8"/>
      <point x="233" y="17" type="curve" smooth="yes"/>
      <point x="233" y="31"/>
      <point x="224" y="42"/>
      <point x="200" y="52" type="curve" smooth="yes"/>
      <point x="158" y="69" type="line"/>
      <point x="252" y="206" type="line"/>
      <point x="392" y="0" type="line"/>
      <point x="544" y="0" type="line" smooth="yes"/>
      <point x="554" y="0"/>
      <point x="558" y="8"/>
      <point x="558" y="17" type="curve" smooth="yes"/>
      <point x="558" y="31"/>
      <point x="548" y="42"/>
      <point x="524" y="52" type="curve" smooth="yes"/>
      <point x="485" y="69" type="line"/>
      <point x="357" y="254" type="line"/>
      <point x="477" y="422" type="line"/>
      <point x="514" y="439" type="line" smooth="yes"/>
      <point x="538" y="450"/>
      <point x="548" y="460"/>
      <point x="548" y="474" type="curve" smooth="yes"/>
      <point x="548" y="483"/>
      <point x="544" y="491"/>
      <point x="534" y="491" type="curve" smooth="yes"/>
      <point x="370" y="491" type="line" smooth="yes"/>
      <point x="346" y="491"/>
      <point x="323" y="476"/>
      <point x="323" y="451" type="curve" smooth="yes"/>
      <point x="323" y="433"/>
      <point x="331" y="423"/>
      <point x="346" y="423" type="curve" smooth="yes"/>
      <point x="389" y="423" type="line"/>
      <point x="303" y="302" type="line"/>
      <point x="178" y="491" type="line"/>
      <point x="64" y="491" type="line" smooth="yes"/>
      <point x="40" y="491"/>
      <point x="17" y="476"/>
      <point x="17" y="451" type="curve" smooth="yes"/>
      <point x="17" y="433"/>
      <point x="25" y="423"/>
      <point x="40" y="423" type="curve" smooth="yes"/>
      <point x="83" y="423" type="line"/>
      <point x="198" y="254" type="line"/>
      <point x="70" y="68" type="line"/>
      <point x="56" y="68" type="line" smooth="yes"/>
      <point x="32" y="68"/>
      <point x="9" y="53"/>
      <point x="9" y="28" type="curve" smooth="yes"/>
      <point x="9" y="10"/>
      <point x="17" y="0"/>
      <point x="32" y="0" type="curve" smooth="yes"/>
    </contour>
  </outline>
</glyph>
<glyph name="z" format="1">
  <advance width="463"/>
  <unicode hex="007A"/>
  <note>
	z
  </note>
  <outline>
    <contour>
      <point x="428" y="0" type="line"/>
      <point x="428" y="135" type="line" smooth="yes"/>
      <point x="428" y="145"/>
      <point x="421" y="155"/>
      <point x="405" y="155" type="curve" smooth="yes"/>
      <point x="384" y="155"/>
      <point x="374" y="141"/>
      <point x="368" y="116" type="curve" smooth="yes"/>
      <point x="358" y="72" type="line"/>
      <point x="171" y="72" type="line"/>
      <point x="418" y="409" type="line"/>
      <point x="418" y="491" type="line"/>
      <point x="47" y="491" type="line"/>
      <point x="47" y="357" type="line" smooth="yes"/>
      <point x="47" y="346"/>
      <point x="54" y="336"/>
      <point x="69" y="336" type="curve" smooth="yes"/>
      <point x="91" y="336"/>
      <point x="100" y="351"/>
      <point x="106" y="375" type="curve" smooth="yes"/>
      <point x="116" y="419" type="line"/>
      <point x="282" y="419" type="line"/>
      <point x="35" y="82" type="line"/>
      <point x="35" y="0" type="line"/>
    </contour>
  </outline>
</glyph>
<glyph name="braceleft" format="1">
  <advance width="446"/>
  <unicode hex="007B"/>
  <note>
	braceleft
  </note>
  <outline>
    <contour>
      <point x="405" y="-160" type="line"/>
      <point x="405" y="-80" type="line"/>
      <point x="330" y="-80" type="line" smooth="yes"/>
      <point x="292" y="-80"/>
      <point x="272" y="-64"/>
      <point x="272" y="-22" type="curve" smooth="yes"/>
      <point x="272" y="167" type="line" smooth="yes"/>
      <point x="272" y="240"/>
      <point x="245" y="282"/>
      <point x="177" y="311" type="curve"/>
      <point x="245" y="340"/>
      <point x="272" y="382"/>
      <point x="272" y="456" type="curve" smooth="yes"/>
      <point x="272" y="644" type="line" smooth="yes"/>
      <point x="272" y="687"/>
      <point x="292" y="703"/>
      <point x="330" y="703" type="curve" smooth="yes"/>
      <point x="405" y="703" type="line"/>
      <point x="405" y="782" type="line"/>
      <point x="309" y="782" type="line" smooth="yes"/>
      <point x="224" y="782"/>
      <point x="155" y="747"/>
      <point x="155" y="634" type="curve" smooth="yes"/>
      <point x="155" y="472" type="line" smooth="yes"/>
      <point x="155" y="421"/>
      <point x="132" y="373"/>
      <point x="48" y="363" type="curve"/>
      <point x="48" y="259" type="line"/>
      <point x="132" y="250"/>
      <point x="155" y="205"/>
      <point x="155" y="150" type="curve" smooth="yes"/>
      <point x="155" y="-12" type="line" smooth="yes"/>
      <point x="155" y="-124"/>
      <point x="224" y="-160"/>
      <point x="309" y="-160" type="curve" smooth="yes"/>
    </contour>
  </outline>
</glyph>
<glyph name="bar" format="1">
  <advance width="317"/>
  <unicode hex="007C"/>
  <note>
	bar
  </note>
  <outline>
    <contour>
      <point x="217" y="-123" type="line"/>
      <point x="217" y="736" type="line"/>
      <point x="100" y="736" type="line"/>
      <point x="100" y="-123" type="line"/>
    </contour>
  </outline>
</glyph>
<glyph name="braceright" format="1">
  <advance width="446"/>
  <unicode hex="007D"/>
  <note>
	braceright
  </note>
  <outline>
    <contour>
      <point x="137" y="-160" type="line" smooth="yes"/>
      <point x="222" y="-160"/>
      <point x="291" y="-124"/>
      <point x="291" y="-12" type="curve" smooth="yes"/>
      <point x="291" y="150" type="line" smooth="yes"/>
      <point x="291" y="205"/>
      <point x="314" y="250"/>
      <point x="398" y="259" type="curve"/>
      <point x="398" y="363" type="line"/>
      <point x="314" y="373"/>
      <point x="291" y="421"/>
      <point x="291" y="472" type="curve" smooth="yes"/>
      <point x="291" y="634" type="line" smooth="yes"/>
      <point x="291" y="747"/>
      <point x="222" y="782"/>
      <point x="137" y="782" type="curve" smooth="yes"/>
      <point x="41" y="782" type="line"/>
      <point x="41" y="703" type="line"/>
      <point x="116" y="703" type="line" smooth="yes"/>
      <point x="154" y="703"/>
      <point x="174" y="687"/>
      <point x="174" y="644" type="curve" smooth="yes"/>
      <point x="174" y="456" type="line" smooth="yes"/>
      <point x="174" y="382"/>
      <point x="201" y="340"/>
      <point x="269" y="311" type="curve"/>
      <point x="202" y="282"/>
      <point x="174" y="240"/>
      <point x="174" y="167" type="curve" smooth="yes"/>
      <point x="174" y="-22" type="line" smooth="yes"/>
      <point x="174" y="-64"/>
      <point x="154" y="-80"/>
      <point x="116" y="-80" type="curve" smooth="yes"/>
      <point x="41" y="-80" type="line"/>
      <point x="41" y="-160" type="line"/>
    </contour>
  </outline>
</glyph>
<glyph name="asciitilde" format="1">
  <advance width="621"/>
  <unicode hex="007E"/>
  <note>
	asciitilde
  </note>
  <outline>
    <contour>
      <point x="466" y="228"/>
      <point x="511" y="250"/>
      <point x="565" y="291" type="curve"/>
      <point x="527" y="371" type="line"/>
      <point x="488" y="342"/>
      <point x="451" y="328"/>
      <point x="414" y="328" type="curve" smooth="yes"/>
      <point x="382" y="328"/>
      <point x="351" y="336"/>
      <point x="314" y="352" type="curve" smooth="yes"/>
      <point x="270" y="371"/>
      <point x="240" y="380"/>
      <point x="205" y="380" type="curve" smooth="yes"/>
      <point x="153" y="380"/>
      <point x="103" y="358"/>
      <point x="49" y="317" type="curve"/>
      <point x="87" y="237" type="line"/>
      <point x="127" y="265"/>
      <point x="165" y="280"/>
      <point x="204" y="280" type="curve" smooth="yes"/>
      <point x="235" y="280"/>
      <point x="264" y="272"/>
      <point x="300" y="256" type="curve" smooth="yes"/>
      <point x="344" y="237"/>
      <point x="379" y="228"/>
      <point x="414" y="228" type="curve" smooth="yes"/>
    </contour>
  </outline>
</glyph>
<glyph name="exclamdown" format="1">
  <advance width="336"/>
  <unicode hex="00A1"/>
  <note>
	exclamdown
  </note>
  <outline>
    <contour>
      <point x="235" y="-229" type="line"/>
      <point x="204" y="315" type="line"/>
      <point x="132" y="315" type="line"/>
      <point x="100" y="-229" type="line"/>
    </contour>
    <contour>
      <point x="201" y="374"/>
      <point x="227" y="396"/>
      <point x="227" y="432" type="curve" smooth="yes"/>
      <point x="227" y="468"/>
      <point x="201" y="491"/>
      <point x="168" y="491" type="curve" smooth="yes"/>
      <point x="136" y="491"/>
      <point x="110" y="468"/>
      <point x="110" y="432" type="curve" smooth="yes"/>
      <point x="110" y="396"/>
      <point x="136" y="374"/>
      <point x="168" y="374" type="curve" smooth="yes"/>
    </contour>
  </outline>
</glyph>
<glyph name="cent" format="1">
  <advance width="576"/>
  <unicode hex="00A2"/>
  <note>
	cent
  </note>
  <outline>
    <contour>
      <point x="350" y="-66" type="line"/>
      <point x="350" y="18" type="line"/>
      <point x="395" y="20"/>
      <point x="440" y="32"/>
      <point x="474" y="53" type="curve" smooth="yes"/>
      <point x="500" y="69"/>
      <point x="517" y="88"/>
      <point x="517" y="108" type="curve" smooth="yes"/>
      <point x="517" y="130"/>
      <point x="503" y="145"/>
      <point x="485" y="145" type="curve" smooth="yes"/>
      <point x="477" y="145"/>
      <point x="470" y="141"/>
      <point x="458" y="132" type="curve" smooth="yes"/>
      <point x="419" y="105"/>
      <point x="387" y="95"/>
      <point x="341" y="95" type="curve" smooth="yes"/>
      <point x="249" y="95"/>
      <point x="180" y="159"/>
      <point x="180" y="292" type="curve" smooth="yes"/>
      <point x="180" y="424"/>
      <point x="249" y="485"/>
      <point x="333" y="485" type="curve" smooth="yes"/>
      <point x="372" y="485"/>
      <point x="410" y="475"/>
      <point x="432" y="458" type="curve"/>
      <point x="444" y="408" type="line" smooth="yes"/>
      <point x="450" y="382"/>
      <point x="462" y="367"/>
      <point x="484" y="367" type="curve" smooth="yes"/>
      <point x="500" y="367"/>
      <point x="507" y="377"/>
      <point x="507" y="387" type="curve" smooth="yes"/>
      <point x="507" y="500" type="line"/>
      <point x="480" y="525"/>
      <point x="426" y="551"/>
      <point x="364" y="561" type="curve"/>
      <point x="364" y="640" type="line"/>
      <point x="271" y="640" type="line"/>
      <point x="271" y="560" type="line"/>
      <point x="152" y="542"/>
      <point x="56" y="451"/>
      <point x="56" y="292" type="curve" smooth="yes"/>
      <point x="56" y="147"/>
      <point x="137" y="52"/>
      <point x="257" y="25" type="curve"/>
      <point x="257" y="-66" type="line"/>
    </contour>
  </outline>
</glyph>
<glyph name="sterling" format="1">
  <advance width="653"/>
  <unicode hex="00A3"/>
  <note>
	sterling
  </note>
  <outline>
    <contour>
      <point x="547" y="0" type="line"/>
      <point x="547" y="128" type="line" smooth="yes"/>
      <point x="547" y="147"/>
      <point x="535" y="157"/>
      <point x="519" y="157" type="curve" smooth="yes"/>
      <point x="498" y="157"/>
      <point x="480" y="143"/>
      <point x="471" y="109" type="curve" smooth="yes"/>
      <point x="463" y="80" type="line"/>
      <point x="271" y="80" type="line"/>
      <point x="296" y="106"/>
      <point x="316" y="142"/>
      <point x="316" y="185" type="curve" smooth="yes"/>
      <point x="316" y="209"/>
      <point x="311" y="231"/>
      <point x="304" y="253" type="curve"/>
      <point x="452" y="269" type="line" smooth="yes"/>
      <point x="475" y="272"/>
      <point x="498" y="283"/>
      <point x="498" y="308" type="curve" smooth="yes"/>
      <point x="498" y="322"/>
      <point x="491" y="333"/>
      <point x="471" y="333" type="curve" smooth="yes"/>
      <point x="270" y="333" type="line"/>
      <point x="257" y="364"/>
      <point x="245" y="394"/>
      <point x="245" y="424" type="curve" smooth="yes"/>
      <point x="245" y="485"/>
      <point x="285" y="517"/>
      <point x="340" y="517" type="curve" smooth="yes"/>
      <point x="382" y="517"/>
      <point x="413" y="506"/>
      <point x="441" y="490" type="curve"/>
      <point x="455" y="437" type="line" smooth="yes"/>
      <point x="464" y="407"/>
      <point x="477" y="390"/>
      <point x="500" y="390" type="curve" smooth="yes"/>
      <point x="518" y="390"/>
      <point x="531" y="397"/>
      <point x="531" y="419" type="curve" smooth="yes"/>
      <point x="531" y="523" type="line"/>
      <point x="477" y="568"/>
      <point x="405" y="596"/>
      <point x="329" y="596" type="curve" smooth="yes"/>
      <point x="221" y="596"/>
      <point x="126" y="541"/>
      <point x="126" y="423" type="curve" smooth="yes"/>
      <point x="126" y="392"/>
      <point x="135" y="362"/>
      <point x="146" y="333" type="curve"/>
      <point x="122" y="333" type="line" smooth="yes"/>
      <point x="92" y="333"/>
      <point x="69" y="315"/>
      <point x="69" y="285" type="curve" smooth="yes"/>
      <point x="69" y="267"/>
      <point x="82" y="253"/>
      <point x="102" y="253" type="curve" smooth="yes"/>
      <point x="180" y="253" type="line"/>
      <point x="189" y="230"/>
      <point x="196" y="207"/>
      <point x="196" y="185" type="curve" smooth="yes"/>
      <point x="196" y="141"/>
      <point x="183" y="111"/>
      <point x="149" y="80" type="curve"/>
      <point x="101" y="80" type="line" smooth="yes"/>
      <point x="71" y="80"/>
      <point x="48" y="63"/>
      <point x="48" y="33" type="curve" smooth="yes"/>
      <point x="48" y="14"/>
      <point x="58" y="0"/>
      <point x="77" y="0" type="curve" smooth="yes"/>
    </contour>
  </outline>
</glyph>
<glyph name="currency" format="1">
  <advance width="606"/>
  <unicode hex="00A4"/>
  <note>
	currency
  </note>
  <outline>
    <contour>
      <point x="213" y="131" type="line"/>
      <point x="240" y="115"/>
      <point x="270" y="109"/>
      <point x="303" y="109" type="curve" smooth="yes"/>
      <point x="336" y="109"/>
      <point x="365" y="115"/>
      <point x="392" y="131" type="curve"/>
      <point x="449" y="61" type="line"/>
      <point x="535" y="124" type="line"/>
      <point x="470" y="196" type="line"/>
      <point x="496" y="231"/>
      <point x="512" y="272"/>
      <point x="512" y="320" type="curve" smooth="yes"/>
      <point x="512" y="369"/>
      <point x="495" y="410"/>
      <point x="470" y="445" type="curve"/>
      <point x="535" y="517" type="line"/>
      <point x="448" y="581" type="line"/>
      <point x="392" y="510" type="line"/>
      <point x="365" y="526"/>
      <point x="336" y="532"/>
      <point x="303" y="532" type="curve" smooth="yes"/>
      <point x="270" y="532"/>
      <point x="239" y="525"/>
      <point x="214" y="510" type="curve"/>
      <point x="157" y="581" type="line"/>
      <point x="71" y="517" type="line"/>
      <point x="135" y="445" type="line"/>
      <point x="105" y="406"/>
      <point x="93" y="370"/>
      <point x="93" y="320" type="curve" smooth="yes"/>
      <point x="93" y="272"/>
      <point x="110" y="232"/>
      <point x="135" y="197" type="curve"/>
      <point x="71" y="124" type="line"/>
      <point x="157" y="60" type="line"/>
    </contour>
    <contour>
      <point x="245" y="210"/>
      <point x="199" y="253"/>
      <point x="199" y="320" type="curve" smooth="yes"/>
      <point x="199" y="388"/>
      <point x="245" y="431"/>
      <point x="303" y="431" type="curve" smooth="yes"/>
      <point x="361" y="431"/>
      <point x="407" y="388"/>
      <point x="407" y="320" type="curve" smooth="yes"/>
      <point x="407" y="253"/>
      <point x="361" y="210"/>
      <point x="303" y="210" type="curve" smooth="yes"/>
    </contour>
  </outline>
</glyph>
<glyph name="yen" format="1">
  <advance width="659"/>
  <unicode hex="00A5"/>
  <note>
	yen
  </note>
  <outline>
    <contour>
      <point x="454" y="0" type="line" smooth="yes"/>
      <point x="467" y="0"/>
      <point x="470" y="7"/>
      <point x="470" y="17" type="curve" smooth="yes"/>
      <point x="470" y="34"/>
      <point x="460" y="44"/>
      <point x="432" y="55" type="curve" smooth="yes"/>
      <point x="390" y="71" type="line"/>
      <point x="390" y="186" type="line"/>
      <point x="588" y="186" type="line"/>
      <point x="588" y="262" type="line"/>
      <point x="390" y="262" type="line"/>
      <point x="390" y="301" type="line"/>
      <point x="425" y="353" type="line"/>
      <point x="587" y="353" type="line"/>
      <point x="587" y="429" type="line"/>
      <point x="476" y="429" type="line"/>
      <point x="602" y="617" type="line"/>
      <point x="652" y="637" type="line" smooth="yes"/>
      <point x="671" y="645"/>
      <point x="685" y="656"/>
      <point x="685" y="672" type="curve" smooth="yes"/>
      <point x="685" y="682"/>
      <point x="681" y="689"/>
      <point x="668" y="689" type="curve" smooth="yes"/>
      <point x="488" y="689" type="line" smooth="yes"/>
      <point x="454" y="689"/>
      <point x="432" y="675"/>
      <point x="432" y="647" type="curve" smooth="yes"/>
      <point x="432" y="629"/>
      <point x="441" y="618"/>
      <point x="457" y="618" type="curve" smooth="yes"/>
      <point x="506" y="618" type="line"/>
      <point x="350" y="383" type="line"/>
      <point x="202" y="618" type="line"/>
      <point x="249" y="631" type="line" smooth="yes"/>
      <point x="274" y="638"/>
      <point x="289" y="648"/>
      <point x="289" y="670" type="curve" smooth="yes"/>
      <point x="289" y="681"/>
      <point x="284" y="689"/>
      <point x="273" y="689" type="curve" smooth="yes"/>
      <point x="36" y="689" type="line" smooth="yes"/>
      <point x="4" y="689"/>
      <point x="-18" y="675"/>
      <point x="-18" y="647" type="curve" smooth="yes"/>
      <point x="-18" y="629"/>
      <point x="-10" y="618"/>
      <point x="6" y="618" type="curve" smooth="yes"/>
      <point x="53" y="618" type="line"/>
      <point x="174" y="429" type="line"/>
      <point x="70" y="429" type="line"/>
      <point x="70" y="353" type="line"/>
      <point x="222" y="353" type="line"/>
      <point x="267" y="282" type="line"/>
      <point x="267" y="262" type="line"/>
      <point x="70" y="262" type="line"/>
      <point x="70" y="186" type="line"/>
      <point x="267" y="186" type="line"/>
      <point x="267" y="72" type="line"/>
      <point x="250" y="72" type="line" smooth="yes"/>
      <point x="216" y="72"/>
      <point x="194" y="58"/>
      <point x="194" y="30" type="curve" smooth="yes"/>
      <point x="194" y="11"/>
      <point x="203" y="0"/>
      <point x="219" y="0" type="curve" smooth="yes"/>
    </contour>
  </outline>
</glyph>
<glyph name="brokenbar" format="1">
  <advance width="325"/>
  <unicode hex="00A6"/>
  <note>
	brokenbar
  </note>
  <outline>
    <contour>
      <point x="221" y="360" type="line"/>
      <point x="221" y="735" type="line"/>
      <point x="104" y="735" type="line"/>
      <point x="104" y="360" type="line"/>
    </contour>
    <contour>
      <point x="221" y="-170" type="line"/>
      <point x="221" y="205" type="line"/>
      <point x="104" y="205" type="line"/>
      <point x="104" y="-170" type="line"/>
    </contour>
  </outline>
</glyph>
<glyph name="section" format="1">
  <advance width="602"/>
  <unicode hex="00A7"/>
  <note>
	section
  </note>
  <outline>
    <contour>
      <point x="399" y="-112"/>
      <point x="498" y="-64"/>
      <point x="498" y="48" type="curve" smooth="yes"/>
      <point x="498" y="69"/>
      <point x="495" y="88"/>
      <point x="489" y="105" type="curve"/>
      <point x="517" y="130"/>
      <point x="536" y="168"/>
      <point x="536" y="214" type="curve" smooth="yes"/>
      <point x="536" y="315"/>
      <point x="467" y="360"/>
      <point x="374" y="402" type="curve" smooth="yes"/>
      <point x="273" y="449"/>
      <point x="214" y="472"/>
      <point x="214" y="526" type="curve" smooth="yes"/>
      <point x="214" y="577"/>
      <point x="260" y="600"/>
      <point x="318" y="600" type="curve" smooth="yes"/>
      <point x="369" y="600"/>
      <point x="408" y="588"/>
      <point x="433" y="570" type="curve"/>
      <point x="448" y="521" type="line" smooth="yes"/>
      <point x="460" y="480"/>
      <point x="469" y="470"/>
      <point x="487" y="470" type="curve" smooth="yes"/>
      <point x="499" y="470"/>
      <point x="504" y="478"/>
      <point x="504" y="487" type="curve" smooth="yes"/>
      <point x="504" y="607" type="line"/>
      <point x="458" y="644"/>
      <point x="383" y="668"/>
      <point x="309" y="668" type="curve" smooth="yes"/>
      <point x="207" y="668"/>
      <point x="107" y="621"/>
      <point x="107" y="514" type="curve" smooth="yes"/>
      <point x="107" y="493"/>
      <point x="111" y="474"/>
      <point x="119" y="458" type="curve"/>
      <point x="89" y="432"/>
      <point x="68" y="394"/>
      <point x="68" y="348" type="curve" smooth="yes"/>
      <point x="68" y="252"/>
      <point x="153" y="203"/>
      <point x="250" y="161" type="curve" smooth="yes"/>
      <point x="355" y="114"/>
      <point x="391" y="92"/>
      <point x="391" y="36" type="curve" smooth="yes"/>
      <point x="391" y="-24"/>
      <point x="326" y="-44"/>
      <point x="264" y="-44" type="curve" smooth="yes"/>
      <point x="217" y="-44"/>
      <point x="166" y="-32"/>
      <point x="139" y="-14" type="curve"/>
      <point x="125" y="39" type="line" smooth="yes"/>
      <point x="115" y="77"/>
      <point x="104" y="91"/>
      <point x="85" y="91" type="curve" smooth="yes"/>
      <point x="73" y="91"/>
      <point x="67" y="82"/>
      <point x="67" y="72" type="curve" smooth="yes"/>
      <point x="67" y="-59" type="line"/>
      <point x="116" y="-90"/>
      <point x="206" y="-112"/>
      <point x="275" y="-112" type="curve" smooth="yes"/>
    </contour>
    <contour>
      <point x="400" y="196"/>
      <point x="360" y="216"/>
      <point x="308" y="239" type="curve" smooth="yes"/>
      <point x="220" y="278"/>
      <point x="189" y="292"/>
      <point x="180" y="335" type="curve" smooth="yes"/>
      <point x="177" y="352"/>
      <point x="178" y="367"/>
      <point x="181" y="385" type="curve"/>
      <point x="210" y="366"/>
      <point x="271" y="339"/>
      <point x="310" y="321" type="curve" smooth="yes"/>
      <point x="404" y="280"/>
      <point x="430" y="266"/>
      <point x="434" y="218" type="curve" smooth="yes"/>
      <point x="435" y="206"/>
      <point x="434" y="178"/>
      <point x="431" y="166" type="curve"/>
    </contour>
  </outline>
</glyph>
<glyph name="dieresis" format="1">
  <advance width="423"/>
  <unicode hex="00A8"/>
  <note>
	dieresis
  </note>
  <outline>
    <contour>
      <point x="349" y="551"/>
      <point x="377" y="577"/>
      <point x="377" y="614" type="curve" smooth="yes"/>
      <point x="377" y="650"/>
      <point x="349" y="677"/>
      <point x="315" y="677" type="curve" smooth="yes"/>
      <point x="281" y="677"/>
      <point x="252" y="650"/>
      <point x="252" y="614" type="curve" smooth="yes"/>
      <point x="252" y="577"/>
      <point x="281" y="551"/>
      <point x="315" y="551" type="curve" smooth="yes"/>
    </contour>
    <contour>
      <point x="144" y="551"/>
      <point x="172" y="577"/>
      <point x="172" y="614" type="curve" smooth="yes"/>
      <point x="172" y="650"/>
      <point x="144" y="677"/>
      <point x="110" y="677" type="curve" smooth="yes"/>
      <point x="76" y="677"/>
      <point x="47" y="650"/>
      <point x="47" y="614" type="curve" smooth="yes"/>
      <point x="47" y="577"/>
      <point x="76" y="551"/>
      <point x="110" y="551" type="curve" smooth="yes"/>
    </contour>
  </outline>
</glyph>
<glyph name="copyright" format="1">
  <advance width="795"/>
  <unicode hex="00A9"/>
  <note>
	copyright
  </note>
  <outline>
    <contour>
      <point x="609" y="-15"/>
      <point x="757" y="128"/>
      <point x="757" y="338" type="curve" smooth="yes"/>
      <point x="757" y="546"/>
      <point x="609" y="689"/>
      <point x="397" y="689" type="curve" smooth="yes"/>
      <point x="188" y="689"/>
      <point x="39" y="546"/>
      <point x="39" y="338" type="curve" smooth="yes"/>
      <point x="39" y="128"/>
      <point x="188" y="-15"/>
      <point x="397" y="-15" type="curve" smooth="yes"/>
    </contour>
    <contour>
      <point x="456" y="134"/>
      <point x="492" y="142"/>
      <point x="523" y="161" type="curve" smooth="yes"/>
      <point x="543" y="173"/>
      <point x="555" y="186"/>
      <point x="555" y="202" type="curve" smooth="yes"/>
      <point x="555" y="220"/>
      <point x="544" y="230"/>
      <point x="532" y="230" type="curve" smooth="yes"/>
      <point x="526" y="230"/>
      <point x="521" y="227"/>
      <point x="511" y="220" type="curve" smooth="yes"/>
      <point x="488" y="203"/>
      <point x="458" y="192"/>
      <point x="424" y="192" type="curve" smooth="yes"/>
      <point x="356" y="192"/>
      <point x="305" y="239"/>
      <point x="305" y="337" type="curve" smooth="yes"/>
      <point x="305" y="436"/>
      <point x="356" y="480"/>
      <point x="418" y="480" type="curve" smooth="yes"/>
      <point x="448" y="480"/>
      <point x="475" y="473"/>
      <point x="492" y="460" type="curve"/>
      <point x="502" y="423" type="line" smooth="yes"/>
      <point x="507" y="404"/>
      <point x="516" y="392"/>
      <point x="533" y="392" type="curve" smooth="yes"/>
      <point x="544" y="392"/>
      <point x="549" y="399"/>
      <point x="549" y="408" type="curve" smooth="yes"/>
      <point x="549" y="491" type="line"/>
      <point x="523" y="513"/>
      <point x="469" y="539"/>
      <point x="406" y="539" type="curve" smooth="yes"/>
      <point x="303" y="539"/>
      <point x="211" y="472"/>
      <point x="211" y="338" type="curve" smooth="yes"/>
      <point x="211" y="208"/>
      <point x="298" y="134"/>
      <point x="417" y="134" type="curve" smooth="yes"/>
    </contour>
    <contour>
      <point x="226" y="44"/>
      <point x="108" y="165"/>
      <point x="108" y="338" type="curve" smooth="yes"/>
      <point x="108" y="509"/>
      <point x="226" y="630"/>
      <point x="397" y="630" type="curve" smooth="yes"/>
      <point x="569" y="630"/>
      <point x="688" y="509"/>
      <point x="688" y="338" type="curve" smooth="yes"/>
      <point x="688" y="165"/>
      <point x="569" y="44"/>
      <point x="397" y="44" type="curve" smooth="yes"/>
    </contour>
  </outline>
</glyph>
<glyph name="ordfeminine" format="1">
  <advance width="400"/>
  <unicode hex="00AA"/>
  <note>
	ordfeminine
  </note>
  <outline>
    <contour>
      <point x="189" y="317"/>
      <point x="225" y="334"/>
      <point x="246" y="361" type="curve"/>
      <point x="250" y="361" type="line"/>
      <point x="250" y="325" type="line"/>
      <point x="359" y="325" type="line" smooth="yes"/>
      <point x="367" y="325"/>
      <point x="369" y="330"/>
      <point x="369" y="336" type="curve" smooth="yes"/>
      <point x="369" y="348"/>
      <point x="362" y="353"/>
      <point x="345" y="360" type="curve" smooth="yes"/>
      <point x="324" y="369" type="line"/>
      <point x="324" y="538" type="line" smooth="yes"/>
      <point x="324" y="608"/>
      <point x="272" y="643"/>
      <point x="199" y="643" type="curve" smooth="yes"/>
      <point x="154" y="643"/>
      <point x="103" y="628"/>
      <point x="68" y="607" type="curve"/>
      <point x="68" y="538" type="line" smooth="yes"/>
      <point x="68" y="530"/>
      <point x="73" y="525"/>
      <point x="84" y="525" type="curve" smooth="yes"/>
      <point x="97" y="525"/>
      <point x="105" y="533"/>
      <point x="109" y="551" type="curve" smooth="yes"/>
      <point x="115" y="576" type="line"/>
      <point x="131" y="585"/>
      <point x="163" y="595"/>
      <point x="187" y="595" type="curve" smooth="yes"/>
      <point x="227" y="595"/>
      <point x="248" y="576"/>
      <point x="248" y="540" type="curve" smooth="yes"/>
      <point x="248" y="518" type="line"/>
      <point x="174" y="507" type="line" smooth="yes"/>
      <point x="112" y="498"/>
      <point x="49" y="476"/>
      <point x="49" y="405" type="curve" smooth="yes"/>
      <point x="49" y="344"/>
      <point x="98" y="317"/>
      <point x="149" y="317" type="curve" smooth="yes"/>
    </contour>
    <contour>
      <point x="142" y="366"/>
      <point x="125" y="383"/>
      <point x="125" y="408" type="curve" smooth="yes"/>
      <point x="125" y="441"/>
      <point x="149" y="456"/>
      <point x="186" y="463" type="curve" smooth="yes"/>
      <point x="248" y="473" type="line"/>
      <point x="248" y="436" type="line" smooth="yes"/>
      <point x="248" y="398"/>
      <point x="212" y="366"/>
      <point x="172" y="366" type="curve" smooth="yes"/>
    </contour>
  </outline>
</glyph>
<glyph name="guillemotleft" format="1">
  <advance width="585"/>
  <unicode hex="00AB"/>
  <note>
	guillemotleft
  </note>
  <outline>
    <contour>
      <point x="514" y="99" type="line"/>
      <point x="411" y="237" type="line"/>
      <point x="514" y="375" type="line"/>
      <point x="443" y="431" type="line"/>
      <point x="290" y="250" type="line"/>
      <point x="290" y="224" type="line"/>
      <point x="443" y="43" type="line"/>
    </contour>
    <contour>
      <point x="285" y="99" type="line"/>
      <point x="182" y="237" type="line"/>
      <point x="285" y="375" type="line"/>
      <point x="214" y="431" type="line"/>
      <point x="61" y="250" type="line"/>
      <point x="61" y="224" type="line"/>
      <point x="214" y="43" type="line"/>
    </contour>
  </outline>
</glyph>
<glyph name="logicalnot" format="1">
  <advance width="644"/>
  <unicode hex="00AC"/>
  <note>
	logicalnot
  </note>
  <outline>
    <contour>
      <point x="566" y="141" type="line"/>
      <point x="566" y="387" type="line"/>
      <point x="70" y="387" type="line"/>
      <point x="70" y="291" type="line"/>
      <point x="449" y="291" type="line"/>
      <point x="449" y="141" type="line"/>
    </contour>
  </outline>
</glyph>
<glyph name="softhyphen" format="1">
  <advance width="306"/>
  <unicode hex="00AD"/>
  <note>
	softhyphen
  </note>
  <outline>
    <contour>
      <point x="265" y="259" type="line"/>
      <point x="265" y="355" type="line"/>
      <point x="41" y="355" type="line"/>
      <point x="41" y="259" type="line"/>
    </contour>
  </outline>
</glyph>
<glyph name="registered" format="1">
  <advance width="470"/>
  <unicode hex="00AE"/>
  <note>
	registered
  </note>
  <outline>
    <contour>
      <point x="357" y="331"/>
      <point x="457" y="418"/>
      <point x="457" y="549" type="curve" smooth="yes"/>
      <point x="457" y="679"/>
      <point x="357" y="766"/>
      <point x="235" y="766" type="curve" smooth="yes"/>
      <point x="112" y="766"/>
      <point x="13" y="679"/>
      <point x="13" y="549" type="curve" smooth="yes"/>
      <point x="13" y="418"/>
      <point x="112" y="331"/>
      <point x="235" y="331" type="curve" smooth="yes"/>
    </contour>
    <contour>
      <point x="142" y="377"/>
      <point x="67" y="437"/>
      <point x="67" y="549" type="curve" smooth="yes"/>
      <point x="67" y="660"/>
      <point x="142" y="720"/>
      <point x="234" y="720" type="curve" smooth="yes"/>
      <point x="328" y="720"/>
      <point x="403" y="660"/>
      <point x="403" y="549" type="curve" smooth="yes"/>
      <point x="403" y="437"/>
      <point x="328" y="377"/>
      <point x="234" y="377" type="curve" smooth="yes"/>
    </contour>
    <contour>
      <point x="226" y="442" type="line" smooth="yes"/>
      <point x="233" y="442"/>
      <point x="236" y="444"/>
      <point x="236" y="451" type="curve" smooth="yes"/>
      <point x="236" y="457"/>
      <point x="229" y="461"/>
      <point x="220" y="466" type="curve" smooth="yes"/>
      <point x="209" y="472" type="line"/>
      <point x="209" y="526" type="line"/>
      <point x="276" y="442" type="line"/>
      <point x="338" y="442" type="line" smooth="yes"/>
      <point x="343" y="442"/>
      <point x="347" y="445"/>
      <point x="347" y="452" type="curve" smooth="yes"/>
      <point x="347" y="459"/>
      <point x="343" y="462"/>
      <point x="330" y="467" type="curve" smooth="yes"/>
      <point x="314" y="473" type="line"/>
      <point x="257" y="532" type="line"/>
      <point x="265" y="532" type="line" smooth="yes"/>
      <point x="300" y="532"/>
      <point x="322" y="557"/>
      <point x="322" y="594" type="curve" smooth="yes"/>
      <point x="322" y="634"/>
      <point x="292" y="660"/>
      <point x="244" y="660" type="curve" smooth="yes"/>
      <point x="143" y="660" type="line" smooth="yes"/>
      <point x="137" y="660"/>
      <point x="133" y="656"/>
      <point x="133" y="649" type="curve" smooth="yes"/>
      <point x="133" y="642"/>
      <point x="138" y="639"/>
      <point x="147" y="634" type="curve" smooth="yes"/>
      <point x="159" y="627" type="line"/>
      <point x="159" y="473" type="line"/>
      <point x="156" y="473" type="line"/>
      <point x="141" y="472"/>
      <point x="134" y="466"/>
      <point x="134" y="455" type="curve" smooth="yes"/>
      <point x="134" y="447"/>
      <point x="139" y="442"/>
      <point x="146" y="442" type="curve" smooth="yes"/>
    </contour>
    <contour>
      <point x="209" y="626" type="line"/>
      <point x="241" y="626" type="line" smooth="yes"/>
      <point x="261" y="626"/>
      <point x="273" y="614"/>
      <point x="273" y="595" type="curve" smooth="yes"/>
      <point x="273" y="575"/>
      <point x="261" y="564"/>
      <point x="241" y="564" type="curve" smooth="yes"/>
      <point x="209" y="564" type="line"/>
    </contour>
  </outline>
</glyph>
<glyph name="macron" format="1">
  <advance width="377"/>
  <unicode hex="00AF"/>
  <note>
	macron
  </note>
  <outline>
    <contour>
      <point x="336" y="570" type="line"/>
      <point x="336" y="649" type="line"/>
      <point x="42" y="649" type="line"/>
      <point x="42" y="570" type="line"/>
    </contour>
  </outline>
</glyph>
<glyph name="degree" format="1">
  <advance width="359"/>
  <unicode hex="00B0"/>
  <note>
	degree
  </note>
  <outline>
    <contour>
      <point x="256" y="546"/>
      <point x="317" y="593"/>
      <point x="317" y="672" type="curve" smooth="yes"/>
      <point x="317" y="751"/>
      <point x="256" y="798"/>
      <point x="179" y="798" type="curve" smooth="yes"/>
      <point x="102" y="798"/>
      <point x="41" y="751"/>
      <point x="41" y="672" type="curve" smooth="yes"/>
      <point x="41" y="593"/>
      <point x="102" y="546"/>
      <point x="179" y="546" type="curve" smooth="yes"/>
    </contour>
    <contour>
      <point x="144" y="606"/>
      <point x="118" y="629"/>
      <point x="118" y="672" type="curve" smooth="yes"/>
      <point x="118" y="715"/>
      <point x="144" y="738"/>
      <point x="179" y="738" type="curve" smooth="yes"/>
      <point x="213" y="738"/>
      <point x="240" y="715"/>
      <point x="240" y="672" type="curve" smooth="yes"/>
      <point x="240" y="629"/>
      <point x="213" y="606"/>
      <point x="179" y="606" type="curve" smooth="yes"/>
    </contour>
  </outline>
</glyph>
<glyph name="plusminus" format="1">
  <advance width="562"/>
  <unicode hex="00B1"/>
  <note>
	plusminus
  </note>
  <outline>
    <contour>
      <point x="341" y="177" type="line"/>
      <point x="341" y="346" type="line"/>
      <point x="509" y="346" type="line"/>
      <point x="509" y="425" type="line"/>
      <point x="341" y="425" type="line"/>
      <point x="341" y="600" type="line"/>
      <point x="221" y="600" type="line"/>
      <point x="221" y="425" type="line"/>
      <point x="53" y="425" type="line"/>
      <point x="53" y="346" type="line"/>
      <point x="221" y="346" type="line"/>
      <point x="221" y="177" type="line"/>
    </contour>
    <contour>
      <point x="509" y="0" type="line"/>
      <point x="509" y="79" type="line"/>
      <point x="53" y="79" type="line"/>
      <point x="53" y="0" type="line"/>
    </contour>
  </outline>
</glyph>
<glyph name="twosuperior" format="1">
  <advance width="318"/>
  <unicode hex="00B2"/>
  <note>
	twosuperior
  </note>
  <outline>
    <contour>
      <point x="292" y="389" type="line"/>
      <point x="292" y="442" type="line"/>
      <point x="125" y="442" type="line"/>
      <point x="214" y="533" type="line" smooth="yes"/>
      <point x="264" y="585"/>
      <point x="286" y="625"/>
      <point x="286" y="663" type="curve" smooth="yes"/>
      <point x="286" y="734"/>
      <point x="240" y="769"/>
      <point x="166" y="769" type="curve" smooth="yes"/>
      <point x="124" y="769"/>
      <point x="79" y="754"/>
      <point x="38" y="731" type="curve"/>
      <point x="38" y="653" type="line" smooth="yes"/>
      <point x="38" y="644"/>
      <point x="43" y="637"/>
      <point x="54" y="637" type="curve" smooth="yes"/>
      <point x="69" y="637"/>
      <point x="73" y="645"/>
      <point x="83" y="672" type="curve" smooth="yes"/>
      <point x="93" y="702" type="line"/>
      <point x="111" y="710"/>
      <point x="133" y="717"/>
      <point x="153" y="717" type="curve" smooth="yes"/>
      <point x="184" y="717"/>
      <point x="208" y="702"/>
      <point x="208" y="668" type="curve" smooth="yes"/>
      <point x="208" y="642"/>
      <point x="191" y="612"/>
      <point x="148" y="568" type="curve" smooth="yes"/>
      <point x="28" y="446" type="line"/>
      <point x="28" y="389" type="line"/>
    </contour>
  </outline>
</glyph>
<glyph name="threesuperior" format="1">
  <advance width="320"/>
  <unicode hex="00B3"/>
  <note>
	threesuperior
  </note>
  <outline>
    <contour>
      <point x="220" y="382"/>
      <point x="287" y="417"/>
      <point x="287" y="489" type="curve" smooth="yes"/>
      <point x="287" y="541"/>
      <point x="250" y="575"/>
      <point x="198" y="584" type="curve"/>
      <point x="245" y="599"/>
      <point x="274" y="631"/>
      <point x="274" y="677" type="curve" smooth="yes"/>
      <point x="274" y="742"/>
      <point x="214" y="769"/>
      <point x="152" y="769" type="curve" smooth="yes"/>
      <point x="107" y="769"/>
      <point x="61" y="754"/>
      <point x="22" y="731" type="curve"/>
      <point x="22" y="647" type="line" smooth="yes"/>
      <point x="22" y="640"/>
      <point x="26" y="634"/>
      <point x="36" y="634" type="curve" smooth="yes"/>
      <point x="47" y="634"/>
      <point x="55" y="641"/>
      <point x="62" y="668" type="curve" smooth="yes"/>
      <point x="71" y="700" type="line"/>
      <point x="89" y="709"/>
      <point x="113" y="717"/>
      <point x="137" y="717" type="curve" smooth="yes"/>
      <point x="175" y="717"/>
      <point x="196" y="701"/>
      <point x="196" y="665" type="curve" smooth="yes"/>
      <point x="196" y="627"/>
      <point x="171" y="608"/>
      <point x="124" y="602" type="curve" smooth="yes"/>
      <point x="82" y="597" type="line"/>
      <point x="82" y="552" type="line"/>
      <point x="110" y="556"/>
      <point x="126" y="558"/>
      <point x="141" y="558" type="curve" smooth="yes"/>
      <point x="184" y="558"/>
      <point x="209" y="533"/>
      <point x="209" y="497" type="curve" smooth="yes"/>
      <point x="209" y="457"/>
      <point x="189" y="435"/>
      <point x="131" y="435" type="curve" smooth="yes"/>
      <point x="95" y="435"/>
      <point x="51" y="445"/>
      <point x="18" y="458" type="curve"/>
      <point x="18" y="404" type="line"/>
      <point x="45" y="392"/>
      <point x="92" y="382"/>
      <point x="136" y="382" type="curve" smooth="yes"/>
    </contour>
  </outline>
</glyph>
<glyph name="acute" format="1">
  <advance width="322"/>
  <unicode hex="00B4"/>
  <note>
	acute
  </note>
  <outline>
    <contour>
      <point x="260" y="697" type="line"/>
      <point x="172" y="755" type="line"/>
      <point x="69" y="582" type="line"/>
      <point x="137" y="538" type="line"/>
    </contour>
  </outline>
</glyph>
<glyph name="mu" format="1">
  <advance width="632"/>
  <unicode hex="00B5"/>
  <note>
	mu
  </note>
  <outline>
    <contour>
      <point x="208" y="-240" type="line"/>
      <point x="197" y="17" type="line"/>
      <point x="224" y="-3"/>
      <point x="256" y="-14"/>
      <point x="288" y="-14" type="curve" smooth="yes"/>
      <point x="351" y="-14"/>
      <point x="398" y="20"/>
      <point x="430" y="60" type="curve"/>
      <point x="434" y="60" type="line"/>
      <point x="434" y="49" type="line" smooth="yes"/>
      <point x="434" y="3"/>
      <point x="468" y="-14"/>
      <point x="508" y="-14" type="curve" smooth="yes"/>
      <point x="548" y="-14"/>
      <point x="593" y="3"/>
      <point x="613" y="15" type="curve"/>
      <point x="613" y="75" type="line"/>
      <point x="597" y="65"/>
      <point x="578" y="58"/>
      <point x="562" y="58" type="curve" smooth="yes"/>
      <point x="544" y="58"/>
      <point x="533" y="64"/>
      <point x="533" y="90" type="curve" smooth="yes"/>
      <point x="533" y="491" type="line"/>
      <point x="416" y="491" type="line"/>
      <point x="416" y="129" type="line"/>
      <point x="376" y="85"/>
      <point x="337" y="62"/>
      <point x="287" y="62" type="curve" smooth="yes"/>
      <point x="228" y="62"/>
      <point x="200" y="97"/>
      <point x="200" y="149" type="curve" smooth="yes"/>
      <point x="200" y="491" type="line"/>
      <point x="84" y="491" type="line"/>
      <point x="84" y="48" type="line"/>
      <point x="73" y="-240" type="line"/>
    </contour>
  </outline>
</glyph>
<glyph name="paragraph" format="1">
  <advance width="727"/>
  <unicode hex="00B6"/>
  <note>
	paragraph
  </note>
  <outline>
    <contour>
      <point x="604" y="-160" type="line" smooth="yes"/>
      <point x="616" y="-160"/>
      <point x="621" y="-151"/>
      <point x="621" y="-141" type="curve" smooth="yes"/>
      <point x="621" y="-121"/>
      <point x="606" y="-109"/>
      <point x="566" y="-106" type="curve" smooth="yes"/>
      <point x="393" y="-92" type="line"/>
      <point x="393" y="627" type="line"/>
      <point x="469" y="627" type="line"/>
      <point x="469" y="-29" type="line"/>
      <point x="550" y="-29" type="line"/>
      <point x="550" y="626" type="line"/>
      <point x="585" y="644" type="line" smooth="yes"/>
      <point x="609" y="656"/>
      <point x="620" y="666"/>
      <point x="620" y="678" type="curve" smooth="yes"/>
      <point x="620" y="688"/>
      <point x="617" y="695"/>
      <point x="605" y="695" type="curve" smooth="yes"/>
      <point x="289" y="695" type="line" smooth="yes"/>
      <point x="170" y="695"/>
      <point x="86" y="637"/>
      <point x="86" y="520" type="curve" smooth="yes"/>
      <point x="86" y="418"/>
      <point x="160" y="345"/>
      <point x="261" y="345" type="curve" smooth="yes"/>
      <point x="312" y="345" type="line"/>
      <point x="312" y="-92" type="line"/>
      <point x="278" y="-92" type="line" smooth="yes"/>
      <point x="246" y="-92"/>
      <point x="225" y="-104"/>
      <point x="225" y="-132" type="curve" smooth="yes"/>
      <point x="225" y="-150"/>
      <point x="233" y="-160"/>
      <point x="248" y="-160" type="curve" smooth="yes"/>
    </contour>
  </outline>
</glyph>
<glyph name="periodcentered" format="1">
  <advance width="301"/>
  <unicode hex="00B7"/>
  <note>
	periodcentered
  </note>
  <outline>
    <contour>
      <point x="191" y="247"/>
      <point x="223" y="277"/>
      <point x="223" y="320" type="curve" smooth="yes"/>
      <point x="223" y="363"/>
      <point x="191" y="393"/>
      <point x="151" y="393" type="curve" smooth="yes"/>
      <point x="110" y="393"/>
      <point x="78" y="363"/>
      <point x="78" y="320" type="curve" smooth="yes"/>
      <point x="78" y="277"/>
      <point x="110" y="247"/>
      <point x="151" y="247" type="curve" smooth="yes"/>
    </contour>
  </outline>
</glyph>
<glyph name="cedilla" format="1">
  <advance width="394"/>
  <unicode hex="00B8"/>
  <note>
	cedilla
  </note>
  <outline>
    <contour>
      <point x="206" y="-202"/>
      <point x="269" y="-161"/>
      <point x="269" y="-112" type="curve" smooth="yes"/>
      <point x="269" y="-78"/>
      <point x="248" y="-59"/>
      <point x="220" y="-47" type="curve"/>
      <point x="241" y="0" type="line"/>
      <point x="164" y="0" type="line"/>
      <point x="143" y="-59" type="line"/>
      <point x="173" y="-69"/>
      <point x="186" y="-85"/>
      <point x="186" y="-109" type="curve" smooth="yes"/>
      <point x="186" y="-136"/>
      <point x="166" y="-161"/>
      <point x="119" y="-176" type="curve"/>
      <point x="135" y="-216" type="line"/>
    </contour>
  </outline>
</glyph>
<glyph name="onesuperior" format="1">
  <advance width="244"/>
  <unicode hex="00B9"/>
  <note>
	onesuperior
  </note>
  <outline>
    <contour>
      <point x="205" y="389" type="line" smooth="yes"/>
      <point x="216" y="389"/>
      <point x="219" y="395"/>
      <point x="219" y="404" type="curve" smooth="yes"/>
      <point x="219" y="417"/>
      <point x="211" y="424"/>
      <point x="191" y="429" type="curve" smooth="yes"/>
      <point x="163" y="436" type="line"/>
      <point x="163" y="761" type="line"/>
      <point x="83" y="761" type="line"/>
      <point x="15" y="737" type="line"/>
      <point x="15" y="694" type="line"/>
      <point x="77" y="713" type="line"/>
      <point x="77" y="438" type="line"/>
      <point x="50" y="438" type="line" smooth="yes"/>
      <point x="29" y="438"/>
      <point x="16" y="428"/>
      <point x="16" y="410" type="curve" smooth="yes"/>
      <point x="16" y="397"/>
      <point x="23" y="389"/>
      <point x="33" y="389" type="curve" smooth="yes"/>
    </contour>
  </outline>
</glyph>
<glyph name="ordmasculine" format="1">
  <advance width="398"/>
  <unicode hex="00BA"/>
  <note>
	ordmasculine
  </note>
  <outline>
    <contour>
      <point x="286" y="317"/>
      <point x="356" y="371"/>
      <point x="356" y="479" type="curve" smooth="yes"/>
      <point x="356" y="590"/>
      <point x="286" y="643"/>
      <point x="199" y="643" type="curve" smooth="yes"/>
      <point x="113" y="643"/>
      <point x="43" y="590"/>
      <point x="43" y="479" type="curve" smooth="yes"/>
      <point x="43" y="371"/>
      <point x="113" y="317"/>
      <point x="199" y="317" type="curve" smooth="yes"/>
    </contour>
    <contour>
      <point x="146" y="365"/>
      <point x="119" y="406"/>
      <point x="119" y="479" type="curve" smooth="yes"/>
      <point x="119" y="554"/>
      <point x="146" y="595"/>
      <point x="199" y="595" type="curve" smooth="yes"/>
      <point x="250" y="595"/>
      <point x="279" y="554"/>
      <point x="279" y="479" type="curve" smooth="yes"/>
      <point x="279" y="406"/>
      <point x="250" y="365"/>
      <point x="199" y="365" type="curve" smooth="yes"/>
    </contour>
  </outline>
</glyph>
<glyph name="guillemotright" format="1">
  <advance width="585"/>
  <unicode hex="00BB"/>
  <note>
	guillemotright
  </note>
  <outline>
    <contour>
      <point x="524" y="224" type="line"/>
      <point x="524" y="250" type="line"/>
      <point x="371" y="431" type="line"/>
      <point x="300" y="375" type="line"/>
      <point x="403" y="237" type="line"/>
      <point x="300" y="99" type="line"/>
      <point x="371" y="43" type="line"/>
    </contour>
    <contour>
      <point x="295" y="224" type="line"/>
      <point x="295" y="250" type="line"/>
      <point x="142" y="431" type="line"/>
      <point x="71" y="375" type="line"/>
      <point x="174" y="237" type="line"/>
      <point x="71" y="99" type="line"/>
      <point x="142" y="43" type="line"/>
    </contour>
  </outline>
</glyph>
<glyph name="onequarter" format="1">
  <advance width="814"/>
  <unicode hex="00BC"/>
  <note>
	onequarter
  </note>
  <outline>
    <contour>
      <point x="678" y="648" type="line"/>
      <point x="605" y="695" type="line"/>
      <point x="144" y="27" type="line"/>
      <point x="216" y="-20" type="line"/>
    </contour>
    <contour>
      <point x="221" y="307" type="line" smooth="yes"/>
      <point x="232" y="307"/>
      <point x="235" y="313"/>
      <point x="235" y="322" type="curve" smooth="yes"/>
      <point x="235" y="335"/>
      <point x="228" y="342"/>
      <point x="207" y="347" type="curve" smooth="yes"/>
      <point x="179" y="354" type="line"/>
      <point x="179" y="679" type="line"/>
      <point x="99" y="679" type="line"/>
      <point x="31" y="655" type="line"/>
      <point x="31" y="612" type="line"/>
      <point x="93" y="631" type="line"/>
      <point x="93" y="355" type="line"/>
      <point x="66" y="355" type="line" smooth="yes"/>
      <point x="45" y="355"/>
      <point x="32" y="346"/>
      <point x="32" y="328" type="curve" smooth="yes"/>
      <point x="32" y="315"/>
      <point x="39" y="307"/>
      <point x="49" y="307" type="curve" smooth="yes"/>
    </contour>
    <contour>
      <point x="661" y="291" type="line"/>
      <point x="661" y="129" type="line"/>
      <point x="544" y="129" type="line"/>
    </contour>
    <contour>
      <point x="745" y="0" type="line"/>
      <point x="745" y="77" type="line"/>
      <point x="793" y="77" type="line"/>
      <point x="793" y="129" type="line"/>
      <point x="745" y="129" type="line"/>
      <point x="745" y="372" type="line"/>
      <point x="660" y="372" type="line"/>
      <point x="484" y="126" type="line"/>
      <point x="484" y="77" type="line"/>
      <point x="668" y="77" type="line"/>
      <point x="668" y="0" type="line"/>
    </contour>
  </outline>
</glyph>
<glyph name="onehalf" format="1">
  <advance width="855"/>
  <unicode hex="00BD"/>
  <note>
	onehalf
  </note>
  <outline>
    <contour>
      <point x="678" y="648" type="line"/>
      <point x="605" y="695" type="line"/>
      <point x="144" y="27" type="line"/>
      <point x="216" y="-20" type="line"/>
    </contour>
    <contour>
      <point x="221" y="307" type="line" smooth="yes"/>
      <point x="232" y="307"/>
      <point x="235" y="313"/>
      <point x="235" y="322" type="curve" smooth="yes"/>
      <point x="235" y="335"/>
      <point x="228" y="342"/>
      <point x="207" y="347" type="curve" smooth="yes"/>
      <point x="179" y="354" type="line"/>
      <point x="179" y="679" type="line"/>
      <point x="99" y="679" type="line"/>
      <point x="31" y="655" type="line"/>
      <point x="31" y="612" type="line"/>
      <point x="93" y="631" type="line"/>
      <point x="93" y="355" type="line"/>
      <point x="66" y="355" type="line" smooth="yes"/>
      <point x="45" y="355"/>
      <point x="32" y="346"/>
      <point x="32" y="328" type="curve" smooth="yes"/>
      <point x="32" y="315"/>
      <point x="39" y="307"/>
      <point x="49" y="307" type="curve" smooth="yes"/>
    </contour>
    <contour>
      <point x="829" y="0" type="line"/>
      <point x="829" y="52" type="line"/>
      <point x="662" y="52" type="line"/>
      <point x="748" y="140" type="line" smooth="yes"/>
      <point x="799" y="194"/>
      <point x="823" y="231"/>
      <point x="823" y="274" type="curve" smooth="yes"/>
      <point x="823" y="345"/>
      <point x="777" y="380"/>
      <point x="703" y="380" type="curve" smooth="yes"/>
      <point x="661" y="380"/>
      <point x="616" y="365"/>
      <point x="575" y="342" type="curve"/>
      <point x="575" y="264" type="line" smooth="yes"/>
      <point x="575" y="254"/>
      <point x="580" y="248"/>
      <point x="591" y="248" type="curve" smooth="yes"/>
      <point x="606" y="248"/>
      <point x="610" y="256"/>
      <point x="620" y="283" type="curve" smooth="yes"/>
      <point x="630" y="313" type="line"/>
      <point x="648" y="321"/>
      <point x="670" y="327"/>
      <point x="690" y="327" type="curve" smooth="yes"/>
      <point x="721" y="327"/>
      <point x="745" y="313"/>
      <point x="745" y="279" type="curve" smooth="yes"/>
      <point x="745" y="249"/>
      <point x="728" y="222"/>
      <point x="684" y="177" type="curve" smooth="yes"/>
      <point x="565" y="57" type="line"/>
      <point x="565" y="0" type="line"/>
    </contour>
  </outline>
</glyph>
<glyph name="threequarters" format="1">
  <advance width="815"/>
  <unicode hex="00BE"/>
  <note>
	threequarters
  </note>
  <outline>
    <contour>
      <point x="679" y="648" type="line"/>
      <point x="606" y="695" type="line"/>
      <point x="145" y="27" type="line"/>
      <point x="217" y="-20" type="line"/>
    </contour>
    <contour>
      <point x="222" y="299"/>
      <point x="289" y="334"/>
      <point x="289" y="406" type="curve" smooth="yes"/>
      <point x="289" y="458"/>
      <point x="252" y="492"/>
      <point x="200" y="501" type="curve"/>
      <point x="247" y="516"/>
      <point x="276" y="548"/>
      <point x="276" y="594" type="curve" smooth="yes"/>
      <point x="276" y="659"/>
      <point x="216" y="686"/>
      <point x="154" y="686" type="curve" smooth="yes"/>
      <point x="109" y="686"/>
      <point x="63" y="671"/>
      <point x="24" y="648" type="curve"/>
      <point x="24" y="564" type="line" smooth="yes"/>
      <point x="24" y="557"/>
      <point x="28" y="552"/>
      <point x="38" y="552" type="curve" smooth="yes"/>
      <point x="49" y="552"/>
      <point x="56" y="559"/>
      <point x="64" y="586" type="curve" smooth="yes"/>
      <point x="73" y="617" type="line"/>
      <point x="91" y="626"/>
      <point x="115" y="634"/>
      <point x="139" y="634" type="curve" smooth="yes"/>
      <point x="177" y="634"/>
      <point x="198" y="618"/>
      <point x="198" y="583" type="curve" smooth="yes"/>
      <point x="198" y="544"/>
      <point x="173" y="525"/>
      <point x="126" y="519" type="curve" smooth="yes"/>
      <point x="84" y="514" type="line"/>
      <point x="84" y="469" type="line"/>
      <point x="114" y="473"/>
      <point x="128" y="476"/>
      <point x="143" y="476" type="curve" smooth="yes"/>
      <point x="186" y="476"/>
      <point x="211" y="450"/>
      <point x="211" y="415" type="curve" smooth="yes"/>
      <point x="211" y="374"/>
      <point x="191" y="352"/>
      <point x="133" y="352" type="curve" smooth="yes"/>
      <point x="97" y="352"/>
      <point x="53" y="362"/>
      <point x="20" y="375" type="curve"/>
      <point x="20" y="321" type="line"/>
      <point x="47" y="309"/>
      <point x="94" y="299"/>
      <point x="138" y="299" type="curve" smooth="yes"/>
    </contour>
    <contour>
      <point x="663" y="291" type="line"/>
      <point x="663" y="129" type="line"/>
      <point x="546" y="129" type="line"/>
    </contour>
    <contour>
      <point x="747" y="0" type="line"/>
      <point x="747" y="77" type="line"/>
      <point x="795" y="77" type="line"/>
      <point x="795" y="129" type="line"/>
      <point x="747" y="129" type="line"/>
      <point x="747" y="372" type="line"/>
      <point x="662" y="372" type="line"/>
      <point x="486" y="126" type="line"/>
      <point x="486" y="77" type="line"/>
      <point x="670" y="77" type="line"/>
      <point x="670" y="0" type="line"/>
    </contour>
  </outline>
</glyph>
<glyph name="questiondown" format="1">
  <advance width="483"/>
  <unicode hex="00BF"/>
  <note>
	questiondown
  </note>
  <outline>
    <contour>
      <point x="309" y="-239"/>
      <point x="377" y="-207"/>
      <point x="413" y="-178" type="curve"/>
      <point x="413" y="-75" type="line" smooth="yes"/>
      <point x="413" y="-65"/>
      <point x="406" y="-56"/>
      <point x="391" y="-56" type="curve" smooth="yes"/>
      <point x="369" y="-56"/>
      <point x="359" y="-70"/>
      <point x="353" y="-95" type="curve" smooth="yes"/>
      <point x="342" y="-140" type="line"/>
      <point x="318" y="-156"/>
      <point x="282" y="-166"/>
      <point x="244" y="-166" type="curve" smooth="yes"/>
      <point x="188" y="-166"/>
      <point x="155" y="-129"/>
      <point x="155" y="-80" type="curve" smooth="yes"/>
      <point x="155" y="-27"/>
      <point x="182" y="8"/>
      <point x="215" y="42" type="curve" smooth="yes"/>
      <point x="261" y="90"/>
      <point x="294" y="129"/>
      <point x="294" y="203" type="curve" smooth="yes"/>
      <point x="294" y="315" type="line"/>
      <point x="193" y="315" type="line"/>
      <point x="193" y="223" type="line" smooth="yes"/>
      <point x="193" y="150"/>
      <point x="176" y="128"/>
      <point x="125" y="73" type="curve" smooth="yes"/>
      <point x="89" y="36"/>
      <point x="46" y="-10"/>
      <point x="46" y="-87" type="curve" smooth="yes"/>
      <point x="46" y="-176"/>
      <point x="112" y="-239"/>
      <point x="231" y="-239" type="curve" smooth="yes"/>
    </contour>
    <contour>
      <point x="275" y="374"/>
      <point x="301" y="396"/>
      <point x="301" y="432" type="curve" smooth="yes"/>
      <point x="301" y="468"/>
      <point x="275" y="491"/>
      <point x="243" y="491" type="curve" smooth="yes"/>
      <point x="210" y="491"/>
      <point x="184" y="468"/>
      <point x="184" y="432" type="curve" smooth="yes"/>
      <point x="184" y="396"/>
      <point x="210" y="374"/>
      <point x="243" y="374" type="curve" smooth="yes"/>
    </contour>
  </outline>
</glyph>
<glyph name="Agrave" format="1">
  <advance width="750"/>
  <unicode hex="00C0"/>
  <note>
	Agrave
  </note>
  <outline>
    <contour>
      <point x="415" y="798" type="line"/>
      <point x="313" y="971" type="line"/>
      <point x="224" y="913" type="line"/>
      <point x="348" y="754" type="line"/>
    </contour>
    <component base="A"/>
  </outline>
</glyph>
<glyph name="Aacute" format="1">
  <advance width="750"/>
  <unicode hex="00C1"/>
  <note>
	Aacute
  </note>
  <outline>
    <contour>
      <point x="512" y="912" type="line"/>
      <point x="424" y="970" type="line"/>
      <point x="321" y="797" type="line"/>
      <point x="389" y="753" type="line"/>
    </contour>
    <component base="A"/>
  </outline>
</glyph>
<glyph name="Acircumflex" format="1">
  <advance width="750"/>
  <unicode hex="00C2"/>
  <note>
	Acircumflex
  </note>
  <outline>
    <contour>
      <point x="363" y="860" type="line"/>
      <point x="458" y="753" type="line"/>
      <point x="510" y="798" type="line"/>
      <point x="392" y="952" type="line"/>
      <point x="335" y="952" type="line"/>
      <point x="216" y="798" type="line"/>
      <point x="268" y="753" type="line"/>
    </contour>
    <component base="A"/>
  </outline>
</glyph>
<glyph name="Atilde" format="1">
  <advance width="750"/>
  <unicode hex="00C3"/>
  <note>
	Atilde
  </note>
  <outline>
    <contour>
      <point x="471" y="764"/>
      <point x="507" y="783"/>
      <point x="538" y="814" type="curve"/>
      <point x="498" y="871" type="line"/>
      <point x="477" y="855"/>
      <point x="458" y="846"/>
      <point x="437" y="846" type="curve" smooth="yes"/>
      <point x="394" y="846"/>
      <point x="357" y="885"/>
      <point x="312" y="885" type="curve" smooth="yes"/>
      <point x="279" y="885"/>
      <point x="239" y="863"/>
      <point x="208" y="835" type="curve"/>
      <point x="248" y="778" type="line"/>
      <point x="268" y="792"/>
      <point x="286" y="803"/>
      <point x="312" y="803" type="curve" smooth="yes"/>
      <point x="356" y="803"/>
      <point x="391" y="764"/>
      <point x="438" y="764" type="curve" smooth="yes"/>
    </contour>
    <component base="A"/>
  </outline>
</glyph>
<glyph name="Adieresis" format="1">
  <advance width="750"/>
  <unicode hex="00C4"/>
  <note>
	Adieresis
  </note>
  <outline>
    <contour>
      <point x="301" y="764"/>
      <point x="329" y="790"/>
      <point x="329" y="827" type="curve" smooth="yes"/>
      <point x="329" y="863"/>
      <point x="301" y="890"/>
      <point x="267" y="890" type="curve" smooth="yes"/>
      <point x="233" y="890"/>
      <point x="204" y="863"/>
      <point x="204" y="827" type="curve" smooth="yes"/>
      <point x="204" y="790"/>
      <point x="233" y="764"/>
      <point x="267" y="764" type="curve" smooth="yes"/>
    </contour>
    <contour>
      <point x="506" y="764"/>
      <point x="534" y="790"/>
      <point x="534" y="827" type="curve" smooth="yes"/>
      <point x="534" y="863"/>
      <point x="506" y="890"/>
      <point x="472" y="890" type="curve" smooth="yes"/>
      <point x="438" y="890"/>
      <point x="409" y="863"/>
      <point x="409" y="827" type="curve" smooth="yes"/>
      <point x="409" y="790"/>
      <point x="438" y="764"/>
      <point x="472" y="764" type="curve" smooth="yes"/>
    </contour>
    <component base="A"/>
  </outline>
</glyph>
<glyph name="Aring" format="1">
  <advance width="750"/>
  <unicode hex="00C5"/>
  <note>
	Aring
  </note>
  <outline>
    <contour>
      <point x="434" y="739"/>
      <point x="476" y="785"/>
      <point x="476" y="841" type="curve" smooth="yes"/>
      <point x="476" y="896"/>
      <point x="434" y="942"/>
      <point x="368" y="942" type="curve" smooth="yes"/>
      <point x="301" y="942"/>
      <point x="259" y="896"/>
      <point x="259" y="841" type="curve" smooth="yes"/>
      <point x="259" y="785"/>
      <point x="301" y="739"/>
      <point x="368" y="739" type="curve" smooth="yes"/>
    </contour>
    <contour>
      <point x="343" y="796"/>
      <point x="324" y="812"/>
      <point x="324" y="841" type="curve" smooth="yes"/>
      <point x="324" y="870"/>
      <point x="343" y="885"/>
      <point x="367" y="885" type="curve" smooth="yes"/>
      <point x="391" y="885"/>
      <point x="411" y="870"/>
      <point x="411" y="841" type="curve" smooth="yes"/>
      <point x="411" y="812"/>
      <point x="391" y="796"/>
      <point x="367" y="796" type="curve" smooth="yes"/>
    </contour>
    <component base="A"/>
  </outline>
</glyph>
<glyph name="AE" format="1">
  <advance width="1143"/>
  <unicode hex="00C6"/>
  <note>
	AE
  </note>
  <outline>
    <contour>
      <point x="264" y="0" type="line" smooth="yes"/>
      <point x="274" y="0"/>
      <point x="278" y="7"/>
      <point x="278" y="19" type="curve" smooth="yes"/>
      <point x="278" y="36"/>
      <point x="270" y="45"/>
      <point x="238" y="55" type="curve" smooth="yes"/>
      <point x="182" y="72" type="line"/>
      <point x="281" y="209" type="line"/>
      <point x="567" y="209" type="line"/>
      <point x="567" y="79" type="line"/>
      <point x="547" y="74" type="line" smooth="yes"/>
      <point x="506" y="64"/>
      <point x="491" y="50"/>
      <point x="491" y="25" type="curve" smooth="yes"/>
      <point x="491" y="7"/>
      <point x="499" y="0"/>
      <point x="510" y="0" type="curve" smooth="yes"/>
      <point x="1080" y="0" type="line"/>
      <point x="1080" y="157" type="line" smooth="yes"/>
      <point x="1080" y="169"/>
      <point x="1075" y="177"/>
      <point x="1060" y="177" type="curve" smooth="yes"/>
      <point x="1042" y="177"/>
      <point x="1031" y="159"/>
      <point x="1019" y="117" type="curve" smooth="yes"/>
      <point x="1008" y="78" type="line"/>
      <point x="692" y="78" type="line"/>
      <point x="692" y="317" type="line"/>
      <point x="932" y="317" type="line"/>
      <point x="947" y="278" type="line" smooth="yes"/>
      <point x="957" y="254"/>
      <point x="966" y="244"/>
      <point x="977" y="244" type="curve" smooth="yes"/>
      <point x="991" y="244"/>
      <point x="996" y="252"/>
      <point x="996" y="262" type="curve" smooth="yes"/>
      <point x="996" y="449" type="line" smooth="yes"/>
      <point x="996" y="458"/>
      <point x="991" y="467"/>
      <point x="977" y="467" type="curve" smooth="yes"/>
      <point x="966" y="467"/>
      <point x="956" y="456"/>
      <point x="947" y="433" type="curve" smooth="yes"/>
      <point x="932" y="394" type="line"/>
      <point x="692" y="394" type="line"/>
      <point x="692" y="617" type="line"/>
      <point x="994" y="617" type="line"/>
      <point x="1005" y="579" type="line" smooth="yes"/>
      <point x="1017" y="538"/>
      <point x="1028" y="519"/>
      <point x="1046" y="519" type="curve" smooth="yes"/>
      <point x="1061" y="519"/>
      <point x="1066" y="527"/>
      <point x="1066" y="539" type="curve" smooth="yes"/>
      <point x="1066" y="695" type="line"/>
      <point x="406" y="695" type="line" smooth="yes"/>
      <point x="396" y="695"/>
      <point x="386" y="688"/>
      <point x="386" y="670" type="curve" smooth="yes"/>
      <point x="386" y="645"/>
      <point x="402" y="633"/>
      <point x="441" y="622" type="curve" smooth="yes"/>
      <point x="462" y="616" type="line"/>
      <point x="75" y="72" type="line"/>
      <point x="58" y="72" type="line" smooth="yes"/>
      <point x="25" y="72"/>
      <point x="3" y="58"/>
      <point x="3" y="30" type="curve" smooth="yes"/>
      <point x="3" y="11"/>
      <point x="12" y="0"/>
      <point x="28" y="0" type="curve" smooth="yes"/>
    </contour>
    <contour>
      <point x="567" y="613" type="line"/>
      <point x="567" y="289" type="line"/>
      <point x="335" y="289" type="line"/>
    </contour>
  </outline>
</glyph>
<glyph name="Ccedilla" format="1">
  <advance width="668"/>
  <unicode hex="00C7"/>
  <note>
	Ccedilla
  </note>
  <outline>
    <contour>
      <point x="387" y="-212"/>
      <point x="450" y="-171"/>
      <point x="450" y="-122" type="curve" smooth="yes"/>
      <point x="450" y="-88"/>
      <point x="429" y="-68"/>
      <point x="401" y="-57" type="curve"/>
      <point x="420" y="-13" type="line"/>
      <point x="501" y="-8"/>
      <point x="557" y="16"/>
      <point x="588" y="36" type="curve" smooth="yes"/>
      <point x="606" y="48"/>
      <point x="622" y="63"/>
      <point x="622" y="86" type="curve" smooth="yes"/>
      <point x="622" y="107"/>
      <point x="606" y="122"/>
      <point x="589" y="122" type="curve" smooth="yes"/>
      <point x="580" y="122"/>
      <point x="571" y="117"/>
      <point x="554" y="105" type="curve" smooth="yes"/>
      <point x="513" y="77"/>
      <point x="465" y="66"/>
      <point x="405" y="66" type="curve" smooth="yes"/>
      <point x="271" y="66"/>
      <point x="167" y="162"/>
      <point x="167" y="349" type="curve" smooth="yes"/>
      <point x="167" y="534"/>
      <point x="264" y="629"/>
      <point x="399" y="629" type="curve" smooth="yes"/>
      <point x="459" y="629"/>
      <point x="507" y="613"/>
      <point x="532" y="597" type="curve"/>
      <point x="551" y="528" type="line" smooth="yes"/>
      <point x="560" y="494"/>
      <point x="570" y="478"/>
      <point x="592" y="478" type="curve" smooth="yes"/>
      <point x="610" y="478"/>
      <point x="614" y="488"/>
      <point x="614" y="500" type="curve" smooth="yes"/>
      <point x="614" y="633" type="line"/>
      <point x="564" y="674"/>
      <point x="483" y="709"/>
      <point x="377" y="709" type="curve" smooth="yes"/>
      <point x="201" y="709"/>
      <point x="40" y="588"/>
      <point x="40" y="349" type="curve" smooth="yes"/>
      <point x="40" y="126"/>
      <point x="173" y="6"/>
      <point x="344" y="-12" type="curve"/>
      <point x="324" y="-69" type="line"/>
      <point x="354" y="-78"/>
      <point x="367" y="-94"/>
      <point x="367" y="-119" type="curve" smooth="yes"/>
      <point x="367" y="-146"/>
      <point x="347" y="-170"/>
      <point x="300" y="-185" type="curve"/>
      <point x="316" y="-225" type="line"/>
    </contour>
  </outline>
</glyph>
<glyph name="Egrave" format="1">
  <advance width="711"/>
  <unicode hex="00C8"/>
  <note>
	Egrave
  </note>
  <outline>
    <contour>
      <point x="427" y="798" type="line"/>
      <point x="325" y="971" type="line"/>
      <point x="236" y="913" type="line"/>
      <point x="360" y="754" type="line"/>
    </contour>
    <component base="E"/>
  </outline>
</glyph>
<glyph name="Eacute" format="1">
  <advance width="711"/>
  <unicode hex="00C9"/>
  <note>
	Eacute
  </note>
  <outline>
    <contour>
      <point x="478" y="913" type="line"/>
      <point x="390" y="971" type="line"/>
      <point x="287" y="798" type="line"/>
      <point x="355" y="754" type="line"/>
    </contour>
    <component base="E"/>
  </outline>
</glyph>
<glyph name="Ecircumflex" format="1">
  <advance width="711"/>
  <unicode hex="00CA"/>
  <note>
	Ecircumflex
  </note>
  <outline>
    <contour>
      <point x="355" y="860" type="line"/>
      <point x="450" y="753" type="line"/>
      <point x="502" y="798" type="line"/>
      <point x="384" y="952" type="line"/>
      <point x="327" y="952" type="line"/>
      <point x="208" y="798" type="line"/>
      <point x="260" y="753" type="line"/>
    </contour>
    <component base="E"/>
  </outline>
</glyph>
<glyph name="Edieresis" format="1">
  <advance width="711"/>
  <unicode hex="00CB"/>
  <note>
	Edieresis
  </note>
  <outline>
    <contour>
      <point x="299" y="764"/>
      <point x="327" y="790"/>
      <point x="327" y="827" type="curve" smooth="yes"/>
      <point x="327" y="863"/>
      <point x="299" y="890"/>
      <point x="265" y="890" type="curve" smooth="yes"/>
      <point x="231" y="890"/>
      <point x="202" y="863"/>
      <point x="202" y="827" type="curve" smooth="yes"/>
      <point x="202" y="790"/>
      <point x="231" y="764"/>
      <point x="265" y="764" type="curve" smooth="yes"/>
    </contour>
    <contour>
      <point x="504" y="764"/>
      <point x="532" y="790"/>
      <point x="532" y="827" type="curve" smooth="yes"/>
      <point x="532" y="863"/>
      <point x="504" y="890"/>
      <point x="470" y="890" type="curve" smooth="yes"/>
      <point x="436" y="890"/>
      <point x="407" y="863"/>
      <point x="407" y="827" type="curve" smooth="yes"/>
      <point x="407" y="790"/>
      <point x="436" y="764"/>
      <point x="470" y="764" type="curve" smooth="yes"/>
    </contour>
    <component base="E"/>
  </outline>
</glyph>
<glyph name="Igrave" format="1">
  <advance width="390"/>
  <unicode hex="00CC"/>
  <note>
	Igrave
  </note>
  <outline>
    <contour>
      <point x="317" y="0" type="line" smooth="yes"/>
      <point x="331" y="0"/>
      <point x="334" y="7"/>
      <point x="334" y="17" type="curve" smooth="yes"/>
      <point x="334" y="35"/>
      <point x="323" y="44"/>
      <point x="296" y="55" type="curve" smooth="yes"/>
      <point x="254" y="72" type="line"/>
      <point x="254" y="623" type="line"/>
      <point x="296" y="640" type="line" smooth="yes"/>
      <point x="323" y="651"/>
      <point x="334" y="660"/>
      <point x="334" y="678" type="curve" smooth="yes"/>
      <point x="334" y="688"/>
      <point x="331" y="695"/>
      <point x="317" y="695" type="curve" smooth="yes"/>
      <point x="111" y="695" type="line" smooth="yes"/>
      <point x="78" y="695"/>
      <point x="56" y="681"/>
      <point x="56" y="653" type="curve" smooth="yes"/>
      <point x="56" y="634"/>
      <point x="65" y="623"/>
      <point x="81" y="623" type="curve" smooth="yes"/>
      <point x="129" y="623" type="line"/>
      <point x="129" y="72" type="line"/>
      <point x="112" y="72" type="line" smooth="yes"/>
      <point x="78" y="72"/>
      <point x="56" y="58"/>
      <point x="56" y="30" type="curve" smooth="yes"/>
      <point x="56" y="11"/>
      <point x="65" y="0"/>
      <point x="81" y="0" type="curve" smooth="yes"/>
    </contour>
    <contour>
      <point x="258" y="798" type="line"/>
      <point x="156" y="971" type="line"/>
      <point x="67" y="913" type="line"/>
      <point x="191" y="754" type="line"/>
    </contour>
  </outline>
</glyph>
<glyph name="Iacute" format="1">
  <advance width="390"/>
  <unicode hex="00CD"/>
  <note>
	Iacute
  </note>
  <outline>
    <contour>
      <point x="317" y="0" type="line" smooth="yes"/>
      <point x="331" y="0"/>
      <point x="334" y="7"/>
      <point x="334" y="17" type="curve" smooth="yes"/>
      <point x="334" y="35"/>
      <point x="323" y="44"/>
      <point x="296" y="55" type="curve" smooth="yes"/>
      <point x="254" y="72" type="line"/>
      <point x="254" y="623" type="line"/>
      <point x="296" y="640" type="line" smooth="yes"/>
      <point x="323" y="651"/>
      <point x="334" y="660"/>
      <point x="334" y="678" type="curve" smooth="yes"/>
      <point x="334" y="688"/>
      <point x="331" y="695"/>
      <point x="317" y="695" type="curve" smooth="yes"/>
      <point x="111" y="695" type="line" smooth="yes"/>
      <point x="78" y="695"/>
      <point x="56" y="681"/>
      <point x="56" y="653" type="curve" smooth="yes"/>
      <point x="56" y="634"/>
      <point x="65" y="623"/>
      <point x="81" y="623" type="curve" smooth="yes"/>
      <point x="129" y="623" type="line"/>
      <point x="129" y="72" type="line"/>
      <point x="112" y="72" type="line" smooth="yes"/>
      <point x="78" y="72"/>
      <point x="56" y="58"/>
      <point x="56" y="30" type="curve" smooth="yes"/>
      <point x="56" y="11"/>
      <point x="65" y="0"/>
      <point x="81" y="0" type="curve" smooth="yes"/>
    </contour>
    <contour>
      <point x="312" y="913" type="line"/>
      <point x="224" y="971" type="line"/>
      <point x="121" y="798" type="line"/>
      <point x="189" y="754" type="line"/>
    </contour>
  </outline>
</glyph>
<glyph name="Icircumflex" format="1">
  <advance width="361"/>
  <unicode hex="00CE"/>
  <note>
	Icircumflex
  </note>
  <outline>
    <contour>
      <point x="179" y="860" type="line"/>
      <point x="274" y="753" type="line"/>
      <point x="326" y="798" type="line"/>
      <point x="208" y="952" type="line"/>
      <point x="151" y="952" type="line"/>
      <point x="32" y="798" type="line"/>
      <point x="84" y="753" type="line"/>
    </contour>
    <component base="I" xOffset="-9"/>
  </outline>
</glyph>
<glyph name="Idieresis" format="1">
  <advance width="364"/>
  <unicode hex="00CF"/>
  <note>
	Idieresis
  </note>
  <outline>
    <contour>
      <point x="114" y="764"/>
      <point x="142" y="790"/>
      <point x="142" y="827" type="curve" smooth="yes"/>
      <point x="142" y="863"/>
      <point x="114" y="890"/>
      <point x="80" y="890" type="curve" smooth="yes"/>
      <point x="46" y="890"/>
      <point x="17" y="863"/>
      <point x="17" y="827" type="curve" smooth="yes"/>
      <point x="17" y="790"/>
      <point x="46" y="764"/>
      <point x="80" y="764" type="curve" smooth="yes"/>
    </contour>
    <contour>
      <point x="319" y="764"/>
      <point x="347" y="790"/>
      <point x="347" y="827" type="curve" smooth="yes"/>
      <point x="347" y="863"/>
      <point x="319" y="890"/>
      <point x="285" y="890" type="curve" smooth="yes"/>
      <point x="251" y="890"/>
      <point x="222" y="863"/>
      <point x="222" y="827" type="curve" smooth="yes"/>
      <point x="222" y="790"/>
      <point x="251" y="764"/>
      <point x="285" y="764" type="curve" smooth="yes"/>
    </contour>
    <component base="I" xOffset="-10"/>
  </outline>
</glyph>
<glyph name="Eth" format="1">
  <advance width="762"/>
  <unicode hex="00D0"/>
  <note>
	Eth
  </note>
  <outline>
    <contour>
      <point x="382" y="0" type="line" smooth="yes"/>
      <point x="568" y="0"/>
      <point x="721" y="104"/>
      <point x="721" y="346" type="curve" smooth="yes"/>
      <point x="721" y="588"/>
      <point x="568" y="695"/>
      <point x="382" y="695" type="curve" smooth="yes"/>
      <point x="72" y="695" type="line" smooth="yes"/>
      <point x="61" y="695"/>
      <point x="53" y="688"/>
      <point x="53" y="670" type="curve" smooth="yes"/>
      <point x="53" y="645"/>
      <point x="70" y="634"/>
      <point x="109" y="622" type="curve" smooth="yes"/>
      <point x="129" y="616" type="line"/>
      <point x="129" y="394" type="line"/>
      <point x="61" y="394" type="line"/>
      <point x="61" y="314" type="line"/>
      <point x="129" y="314" type="line"/>
      <point x="129" y="79" type="line"/>
      <point x="109" y="73" type="line" smooth="yes"/>
      <point x="70" y="61"/>
      <point x="53" y="50"/>
      <point x="53" y="25" type="curve" smooth="yes"/>
      <point x="53" y="7"/>
      <point x="61" y="0"/>
      <point x="72" y="0" type="curve" smooth="yes"/>
    </contour>
    <contour>
      <point x="254" y="314" type="line"/>
      <point x="426" y="314" type="line"/>
      <point x="426" y="394" type="line"/>
      <point x="254" y="394" type="line"/>
      <point x="254" y="615" type="line"/>
      <point x="382" y="615" type="line" smooth="yes"/>
      <point x="520" y="615"/>
      <point x="595" y="513"/>
      <point x="595" y="346" type="curve" smooth="yes"/>
      <point x="595" y="179"/>
      <point x="520" y="80"/>
      <point x="382" y="80" type="curve" smooth="yes"/>
      <point x="254" y="80" type="line"/>
    </contour>
  </outline>
</glyph>
<glyph name="Ntilde" format="1">
  <advance width="811"/>
  <unicode hex="00D1"/>
  <note>
	Ntilde
  </note>
  <outline>
    <contour>
      <point x="493" y="764"/>
      <point x="529" y="783"/>
      <point x="560" y="814" type="curve"/>
      <point x="520" y="871" type="line"/>
      <point x="499" y="855"/>
      <point x="480" y="846"/>
      <point x="459" y="846" type="curve" smooth="yes"/>
      <point x="416" y="846"/>
      <point x="379" y="885"/>
      <point x="334" y="885" type="curve" smooth="yes"/>
      <point x="301" y="885"/>
      <point x="261" y="863"/>
      <point x="230" y="835" type="curve"/>
      <point x="270" y="778" type="line"/>
      <point x="290" y="792"/>
      <point x="308" y="803"/>
      <point x="334" y="803" type="curve" smooth="yes"/>
      <point x="378" y="803"/>
      <point x="413" y="764"/>
      <point x="460" y="764" type="curve" smooth="yes"/>
    </contour>
    <component base="N"/>
  </outline>
</glyph>
